<?xml version="1.0" standalone="no"?>
<!DOCTYPE svg PUBLIC "-//W3C//DTD SVG 1.1//EN" "http://www.w3.org/Graphics/SVG/1.1/DTD/svg11.dtd" >
<svg>
<metadata>
Created by FontForge 20090914 at Wed Mar 22 21:18:26 2017
 By www-data
Copyright (c) Gophmann A.L., 2007. All rights reserved.
</metadata>
<defs>
<font id="RosaMarena" horiz-adv-x="302" >
  <font-face 
    font-family="Rosa Marena"
    font-weight="500"
    font-stretch="normal"
    units-per-em="1000"
    panose-1="2 0 0 0 0 0 0 0 0 0"
    ascent="800"
    descent="-200"
    x-height="274.001"
    cap-height="945"
    bbox="-637.005 -570.004 1661 984.017"
    underline-thickness="20"
    underline-position="-123"
    unicode-range="U+0020-U+FB02"
  />
<missing-glyph horiz-adv-x="1000" 
 />
    <glyph glyph-name=".notdef" horiz-adv-x="1000" 
 />
    <glyph glyph-name="space" unicode=" " horiz-adv-x="275" 
 />
    <glyph glyph-name="exclam" unicode="!" horiz-adv-x="300" 
d="M619 747c0 0.666992 -0.834961 2.33398 -2.50195 5.00098s-4.16699 5.5 -7.5 8.5s-7.16602 5.66699 -11.499 8s-8.83301 3.5 -13.5 3.5c-4 0 -12.5 -8.33301 -25.5 -25s-28.667 -37.834 -47 -63.501l-58.5 -84.5l-58.5 -87.5l-48.5 -73.5
c-14 -21.333 -23 -35.333 -27 -42l-19.5 -30.5l-30 -49l-34.5 -58.5l-33 -58.5c-10 -18.333 -18.167 -34.5 -24.5 -48.5s-9.5 -23.667 -9.5 -29s0.833008 -10.333 2.5 -15s5.5 -7 11.5 -7c3.33301 0 6 0.333008 8 1c8.66699 26 20.834 53.5 36.501 82.5s32.667 58 51 87
l55.5 84.5l51 76c26.667 40.667 54 79.667 82 117l76 98.5l55.5 68l21.5 25.5v7zM186.998 29c0 4 -1.66504 8.50098 -4.99805 13.501s-7.33301 9.5 -12 13.5s-9.33398 7.5 -14.001 10.5s-8.33398 4.5 -11.001 4.5s-5.66699 -1.5 -9 -4.5s-6.5 -6.33301 -9.5 -10
s-5.66699 -7.5 -8 -11.5s-3.5 -7 -3.5 -9c0 -3.33301 0.833008 -9.66602 2.5 -18.999s3.16699 -16 4.5 -20c0.666992 -3.33301 3.5 -6.33301 8.5 -9s11.167 -4 18.5 -4c4.66699 0 9.33398 1.66699 14.001 5s8.66699 7.16602 12 11.499s6.16602 9.16602 8.49902 14.499
s3.5 10 3.5 14z" />
    <glyph glyph-name="quotedbl" unicode="&#x22;" horiz-adv-x="297" 
d="M469 630c0 3.33301 -1.49902 7.33594 -4.49902 12.0029s-6.83301 9.33398 -11.5 14.001s-9.33398 8.5 -14.001 11.5s-8.66699 4.5 -12 4.5c-2 0 -4.83301 -1.33301 -8.5 -4s-7 -6 -10 -10s-5.66699 -8 -8 -12s-3.5 -7 -3.5 -9c0 -3.33301 1 -10.333 3 -21
s3.66699 -17.667 5 -21l-13 -35.5c-4.66699 -12.333 -10.667 -23.5 -18 -33.5c-3.33301 -5.33301 -8.16602 -10.333 -14.499 -15s-12.5 -9 -18.5 -13s-11.5 -7.83301 -16.5 -11.5s-7.83301 -6.5 -8.5 -8.5c0 -2.66699 1.16699 -4.33398 3.5 -5.00098s4.16602 -1 5.49902 -1
c14 0 28.667 6.33301 44 19s29.833 27.167 43.5 43.5s25.167 32.166 34.5 47.499s15 25.666 17 30.999l3.5 8.5c1 2.33301 1.5 5.16602 1.5 8.49902zM362.001 630.003c0 3.33301 -1.5 7.33691 -4.5 12.0039s-6.66699 9.33398 -11 14.001s-8.83301 8.5 -13.5 11.5
s-8.66699 4.5 -12 4.5c-2 0 -4.83301 -1.33301 -8.5 -4s-7.16699 -6 -10.5 -10s-6.16602 -8 -8.49902 -12s-3.5 -7 -3.5 -9c0 -3.33301 1.16699 -10.333 3.5 -21s4.16602 -17.667 5.49902 -21l-14 -35.5c-4.66699 -12.333 -10.667 -23.5 -18 -33.5
c-3.33301 -5.33301 -8.16602 -10.333 -14.499 -15s-12.5 -9 -18.5 -13s-11.5 -7.83301 -16.5 -11.5s-7.83301 -6.5 -8.5 -8.5c0 -2.66699 1.16699 -4.33398 3.5 -5.00098s4.16602 -1 5.49902 -1c14 0 28.833 6.33301 44.5 19s30.167 27.167 43.5 43.5
s24.833 32.166 34.5 47.499s15.5 25.666 17.5 30.999c0.666992 3.33301 1.5 6.16602 2.5 8.49902s1.5 5.16602 1.5 8.49902z" />
    <glyph glyph-name="numbersign" unicode="#" horiz-adv-x="607" 
d="M783 485c1.33301 3.33301 1.33301 6.66602 0 9.99902s-3.66602 5 -6.99902 5h-161l128 240c2 4 2.33301 7.5 1 10.5s-4 4.5 -8 4.5h-32c-4.66699 0 -9.16699 -1.5 -13.5 -4.5s-7.5 -6.5 -9.5 -10.5l-128 -240h-121l128 240c2 4 2.33301 7.5 1 10.5s-4 4.5 -8 4.5h-32
c-4.66699 0 -9.16699 -1.5 -13.5 -4.5s-7.5 -6.5 -9.5 -10.5l-128 -240h-167c-3.33301 0 -7.66602 -1.66699 -12.999 -5s-8.66602 -6.66602 -9.99902 -9.99902s-1.33301 -6.66602 0 -9.99902s3.66602 -5 6.99902 -5h167l-88 -165h-167
c-3.33301 0 -7.66602 -1.66699 -12.999 -5s-8.66602 -6.66602 -9.99902 -9.99902s-1.33301 -6.66602 0 -9.99902s3.66602 -5 6.99902 -5h167l-117 -220c-2.66699 -4 -3.16699 -7.5 -1.5 -10.5s4.5 -4.5 8.5 -4.5h32c4 0 8.16699 1.5 12.5 4.5s7.83301 6.5 10.5 10.5l117 220
h121l-117 -220c-2.66699 -4 -3.16699 -7.5 -1.5 -10.5s4.5 -4.5 8.5 -4.5h32c4 0 8.16699 1.5 12.5 4.5s7.83301 6.5 10.5 10.5l117 220h161c3.33301 0 7.66602 1.66699 12.999 5s8.66602 6.66602 9.99902 9.99902s1.33301 6.66602 0 9.99902s-3.66602 5 -6.99902 5h-161
l88 165h161c3.33301 0 7.66602 1.66699 12.999 5s8.66602 6.66602 9.99902 9.99902zM537 470l-88 -165h-121l88 165h121z" />
    <glyph glyph-name="dollar" unicode="$" horiz-adv-x="595" 
d="M732 625c0 10 -2.66992 18.3291 -8.00293 24.9961s-12.166 12 -20.499 16s-17.166 6.66699 -26.499 8s-18 2 -26 2c-16 0 -33 -1 -51 -3l33.5 40c8.33301 10 12.833 15.333 13.5 16c1.33301 3.33301 3.16602 9.33301 5.49902 18s3.5 14.334 3.5 17.001
c0 2 0.333008 4 1 6s0 3 -2 3c-4 0 -15.5 -10.167 -34.5 -30.5s-41.5 -46.166 -67.5 -77.499c-37.333 -7.33301 -75.833 -17.833 -115.5 -31.5s-76 -30 -109 -49s-60.167 -40.667 -81.5 -65s-32 -50.5 -32 -78.5c0 -18 6.16699 -37.167 18.5 -57.5s25.5 -40.5 39.5 -60.5
l-32 -40l-37.5 -48.5l-40 -52.5l-38.5 -53c-16.667 3.33301 -32.5 8.66602 -47.5 15.999s-22.5 18 -22.5 32c0 8 3 16.167 9 24.5s13 16.333 21 24s16.5 14.667 25.5 21l22.5 15.5c-1.33301 8.66699 -6 13 -14 13c-6.66699 0 -15.167 -3.83301 -25.5 -11.5
s-20.5 -16.834 -30.5 -27.501s-18.667 -21.667 -26 -33s-11 -20.333 -11 -27c0 -21.333 7.83301 -38.166 23.5 -50.499s33.5 -21.5 53.5 -27.5c-15.333 -23.333 -28.166 -44.166 -38.499 -62.499s-15.5 -31.833 -15.5 -40.5c0 -3.33301 0.833008 -6.33301 2.5 -9
s4.16699 -4 7.5 -4h5c10.667 19.333 22 38 34 56l37 53c7.33301 -1.33301 14.5 -2.33301 21.5 -3s13.5 -1 19.5 -1c14 0 31.5 1.83301 52.5 5.5s41.333 9.66699 61 18s36.5 19.166 50.5 32.499s21 29.333 21 48c0 22 -5.66699 44 -17 66s-24 43.667 -38 65l27 33.5l27 33.5
c2.66699 3.33301 10.667 12.833 24 28.5l48 57l60.5 72l62.5 73.5c21.333 6 41.333 10.667 60 14s35.334 5 50.001 5c2.66699 0 6.16699 -0.166992 10.5 -0.5s8.5 -1 12.5 -2s7.5 -2.66699 10.5 -5s4.5 -5.83301 4.5 -10.5c0 -5.33301 -3.5 -13.333 -10.5 -24
s-15 -21.334 -24 -32.001s-18 -20 -27 -28s-15.833 -12 -20.5 -12c-2 0 -4 1.33301 -6 4s-5.66699 4 -11 4c-4 0 -10.667 -2.83301 -20 -8.5s-20 -13 -32 -22s-24.5 -19 -37.5 -30s-25 -21.667 -36 -32s-20 -19.666 -27 -27.999s-10.5 -14.166 -10.5 -17.499
c0 -7.33301 2.33301 -13.5 7 -18.5s10.667 -7.5 18 -7.5c6.66699 0 17.834 5 33.501 15s33.334 22.667 53.001 38s40.167 32.833 61.5 52.5s40.666 38.834 57.999 57.501s31.666 36.334 42.999 53.001s17 30 17 40zM498.997 601.996l-66 -80.501l-60.5 -75l-47.5 -59.5
c-13.333 -16.667 -22.333 -27.667 -27 -33l-7 -9c-11.333 17.333 -20.833 33.833 -28.5 49.5s-11.5 30.167 -11.5 43.5c0 12 7.16699 25.333 21.5 40s33.166 29.334 56.499 44.001s49.833 29 79.5 43s59.834 26.333 90.501 37zM315.997 225.995
c0 -18 -4.66797 -33.501 -14.001 -46.501s-21.166 -23.5 -35.499 -31.5s-30 -14 -47 -18s-32.833 -6 -47.5 -6h-13l64 88.5l65 86.5c8 -12.667 14.667 -25.167 20 -37.5s8 -24.166 8 -35.499z" />
    <glyph glyph-name="percent" unicode="%" horiz-adv-x="790" 
d="M889 742l-0.00195312 10.002c0 4 -2.33301 6.66699 -7 8c-4 2 -13 -2.5 -27 -13.5s-28.667 -23.833 -44 -38.5l-43.5 -43l-26.5 -27c-13.333 -13.333 -26.666 -22.666 -39.999 -27.999s-26.666 -8 -39.999 -8c-10.667 0 -19.167 2.5 -25.5 7.5
s-11.166 10.833 -14.499 17.5c11.333 26.667 17 51.667 17 75s-8 42.666 -24 57.999s-36.667 23 -62 23c-9.33301 0 -18.666 -1.5 -27.999 -4.5s-18.666 -6.16699 -27.999 -9.5l-8 -2c-2.66699 4.66699 -6.66699 7 -12 7c-8 0 -19.5 -5.33301 -34.5 -16
s-31.5 -24.834 -49.5 -42.501s-36.5 -38.167 -55.5 -61.5s-36.167 -47.333 -51.5 -72s-27.833 -49.5 -37.5 -74.5s-14.5 -48.167 -14.5 -69.5c0 -18 2.5 -32.667 7.5 -44s11.5 -20.166 19.5 -26.499s17 -10.833 27 -13.5s20 -4 30 -4c20 0 42.833 6.83301 68.5 20.5
s51.667 31.5 78 53.5s51.666 47 75.999 75s44.833 56.667 61.5 86c12.667 -6 27.334 -9 44.001 -9c15.333 0 29.666 2.33301 42.999 7l-70.5 -76.5l-64 -71l-50.5 -56.5c-14 -16 -23.333 -27 -28 -33l-29.5 -34.5l-46.5 -57l-54 -69l-51.5 -69.5
c-15.667 -22 -28.5 -41.833 -38.5 -59.5s-15 -30.834 -15 -39.501c-0.666992 -8 2.5 -13.333 9.5 -16s14.167 -4.33398 21.5 -5.00098c11.333 26.667 25.166 51.667 41.499 75l47.5 69c30.667 44 62.167 86.833 94.5 128.5s66.166 82.167 101.499 121.5l122.5 130.5
l106 108.5l75 74.5c19 18.333 28.5 27.833 28.5 28.5c0.666992 2 1 5.33301 1 10zM846.998 340.002c0 23.333 -8.00195 42.667 -24.002 58s-36.667 23 -62 23c-9.33301 0 -18.666 -1.5 -27.999 -4.5s-18.666 -6.16699 -27.999 -9.5l-8 -2c-2.66699 4.66699 -6.66699 7 -12 7
c-8 0 -19.5 -5.33301 -34.5 -16s-31.5 -24.834 -49.5 -42.501s-36.5 -38.167 -55.5 -61.5s-36.167 -47.333 -51.5 -72s-27.833 -49.5 -37.5 -74.5s-14.5 -48.167 -14.5 -69.5c0 -18 2.5 -32.667 7.5 -44s11.5 -20.166 19.5 -26.499s17 -10.833 27 -13.5s20 -4 30 -4
c17.333 0 37.5 5.5 60.5 16.5s46.333 25.833 70 44.5s47 40 70 64s43.333 49 61 75s32 52.167 43 78.5s16.5 50.833 16.5 73.5zM608.996 725.003c-5.33301 -0.666992 -11.667 -1.83398 -19 -3.50098s-14.333 -4.83398 -21 -9.50098s-12.5 -10.834 -17.5 -18.501
s-7.5 -17.834 -7.5 -30.501c0 -13.333 3.5 -25.666 10.5 -36.999s16.167 -21.333 27.5 -30c-15.333 -28 -34.333 -55.5 -57 -82.5s-46.334 -51 -71.001 -72s-48.667 -38 -72 -51s-43.666 -19.5 -60.999 -19.5c-12.667 0 -23.667 4 -33 12s-14 21.333 -14 40
c0 16.667 5.16699 36.334 15.5 59.001s23.833 45.834 40.5 69.501s35.667 47 57 70s42.833 43.5 64.5 61.5s42.834 32.5 63.501 43.5s38.667 16.5 54 16.5c10.667 0 19.167 -1.66699 25.5 -5s11.166 -7.66602 14.499 -12.999zM823.995 336.003
c0 -22 -5.33203 -45.3301 -15.999 -69.9971s-24.667 -49 -42 -73s-36.5 -46.833 -57.5 -68.5s-42.167 -40.834 -63.5 -57.501s-41.333 -29.834 -60 -39.501s-34 -14.5 -46 -14.5c-12.667 0 -23.667 3.33301 -33 10s-14 19.334 -14 38.001c0 17.333 5 37 15 59
s23 44.667 39 68s34.167 46.166 54.5 68.499s41.166 42.166 62.499 59.499s42 31.333 62 42s37.667 16 53 16c16.667 0 28.5 -4 35.5 -12s10.5 -16.667 10.5 -26z" />
    <glyph glyph-name="ampersand" unicode="&#x26;" horiz-adv-x="974" 
d="M1027 708c0 14 -3.83984 25.502 -11.5068 34.502s-17.167 16 -28.5 21s-23.5 8.5 -36.5 10.5s-24.833 3 -35.5 3c-32 0 -69.833 -4 -113.5 -12s-88.667 -19.5 -135 -34.5s-92.166 -33.167 -137.499 -54.5s-85.833 -45.5 -121.5 -72.5s-64.5 -56.333 -86.5 -88
s-33 -65.5 -33 -101.5c0 -19.333 4 -37.666 12 -54.999s18.333 -32.666 31 -45.999c-22.667 -6 -48.834 -15.167 -78.501 -27.5s-57.834 -27.5 -84.501 -45.5s-49.334 -38.667 -68.001 -62s-28 -49 -28 -77c0 -24.667 8.33301 -45.334 25 -62.001s36.834 -30 60.501 -40
s48.334 -17 74.001 -21s47.834 -6 66.501 -6c34 0 67.5 3.33301 100.5 10s64.167 17 93.5 31s56.333 32 81 54s46 48.333 64 79h19h43c14.667 0 29 -0.666992 43 -2c3.33301 3.33301 7.5 8.33301 12.5 15s7.5 11.667 7.5 15c0 2.66699 -2.83301 4.83398 -8.5 6.50098
s-12 3 -19 4s-13.833 1.5 -20.5 1.5h-13c-9.33301 0 -22.666 -0.333008 -39.999 -1s-36.666 -2 -57.999 -4s-43.166 -4.33301 -65.499 -7s-43.5 -6 -63.5 -10s-37.5 -8.83301 -52.5 -14.5s-25.5 -11.834 -31.5 -18.501c-3.33301 -4 -6.66602 -9 -9.99902 -15
s-5 -11.667 -5 -17l1 -7c14 8.66699 31.333 16.334 52 23.001s42 12.167 64 16.5s43.833 7.66602 65.5 9.99902s40.834 3.83301 57.501 4.5c-19.333 -24 -41 -44.667 -65 -62s-49.833 -31.833 -77.5 -43.5s-56.334 -20.334 -86.001 -26.001s-59.5 -8.5 -89.5 -8.5
c-16 0 -34 1.5 -54 4.5s-38.667 8.33301 -56 16s-31.833 18.167 -43.5 31.5s-17.5 30.666 -17.5 51.999c0 22.667 8.5 44 25.5 64s37.5 38 61.5 54s49 29.5 75 40.5s48 19.167 66 24.5c10.667 -7.33301 22.334 -13.166 35.001 -17.499s25.667 -6.5 39 -6.5
c4.66699 0 10.834 0.5 18.501 1.5s15 2.66699 22 5s13.167 5.66602 18.5 9.99902s8 9.83301 8 16.5c0 6 -2.5 10.667 -7.5 14s-11 5.83301 -18 7.5s-14 2.83398 -21 3.50098s-12.167 1 -15.5 1c-11.333 0 -22.5 -0.666992 -33.5 -2s-22.167 -3 -33.5 -5
c-11.333 11.333 -20.5 24.666 -27.5 39.999s-10.5 31.333 -10.5 48c0 21.333 11.5 44.166 34.5 68.499s52.833 48.666 89.5 72.999s77.834 47.5 123.501 69.5s91 41.5 136 58.5s87.333 30.5 127 40.5s72.167 15 97.5 15c5.33301 0 11.5 -0.166992 18.5 -0.5
s13.667 -1.5 20 -3.5s11.666 -5 15.999 -9s6.5 -10 6.5 -18c0 -10 -5.5 -23.333 -16.5 -40s-23.667 -32.667 -38 -48s-28.333 -28.666 -42 -39.999s-23.5 -17 -29.5 -17c-2.66699 0 -4.66699 0.5 -6 1.5s-2.66602 2.33301 -3.99902 4s-3 3 -5 4s-5 1.5 -9 1.5
c-5.33301 0 -14.666 -4.16699 -27.999 -12.5s-28.5 -19 -45.5 -32l-53.5 -43c-18.667 -15.667 -35.667 -30.834 -51 -45.501s-28 -27.667 -38 -39s-15 -19.333 -15 -24c0 -8 3 -15.167 9 -21.5s13.333 -9.5 22 -9.5c2.66699 0 7.16699 1.5 13.5 4.5s12.666 6.5 18.999 10.5
l18.5 12c6 4 10.333 7 13 9c12 8 28 19.833 48 35.5l65.5 52.5c23.667 19.333 47.5 40.166 71.5 62.499s45.667 44.333 65 66s35.166 42.334 47.499 62.001s18.5 36.834 18.5 51.501zM466.993 298.002c0 -2 -1.5 -3.66797 -4.5 -5.00098s-6.5 -2.16602 -10.5 -2.49902
l-11.5 -1c-3.66699 -0.333008 -6.16699 -0.5 -7.5 -0.5c-7.33301 0 -14.666 1.33301 -21.999 4s-14.333 5.66699 -21 9c15.333 3.33301 29.666 5 42.999 5h7c4 0 8 -0.333008 12 -1s7.5 -1.5 10.5 -2.5s4.5 -2.83301 4.5 -5.5z" />
    <glyph glyph-name="quotesingle" unicode="'" horiz-adv-x="175" 
d="M304 626c0 3.33301 -1.5 7.33691 -4.5 12.0039s-6.66699 9.33398 -11 14.001s-8.83301 8.5 -13.5 11.5s-8.66699 4.5 -12 4.5c-2 0 -4.83301 -1.33301 -8.5 -4s-7.16699 -6 -10.5 -10s-6.16602 -8 -8.49902 -12s-3.5 -7 -3.5 -9c0 -3.33301 1.16699 -10.333 3.5 -21
s4.16602 -17.667 5.49902 -21l-14 -35.5c-4.66699 -12.333 -10.667 -23.5 -18 -33.5c-3.33301 -5.33301 -8.16602 -10.333 -14.499 -15s-12.5 -9 -18.5 -13s-11.5 -7.83301 -16.5 -11.5s-7.83301 -6.5 -8.5 -8.5c0 -2.66699 1.16699 -4.33398 3.5 -5.00098
s4.16602 -1 5.49902 -1c14 0 28.833 6.33301 44.5 19s30.167 27.167 43.5 43.5s24.833 32.166 34.5 47.499s15.5 25.666 17.5 30.999c0.666992 3.33301 1.5 6.16602 2.5 8.49902s1.5 5.16602 1.5 8.49902z" />
    <glyph glyph-name="parenleft" unicode="(" horiz-adv-x="291" 
d="M491 808c0 2 -0.998047 3.33691 -2.99805 4.00391s-3.66699 1 -5 1c-5.33301 0 -10 -1 -14 -3c-65.333 -25.333 -124 -60 -176 -104s-96.333 -94 -133 -150s-64.667 -116.833 -84 -182.5s-29 -132.834 -29 -201.501c0 -7.33301 0.666992 -21 2 -41
s3.66602 -41.833 6.99902 -65.5s7.5 -46.834 12.5 -69.501s11.167 -40.667 18.5 -54c6 -12.667 13.333 -19 22 -19c2.66699 0 7.5 0.833008 14.5 2.5s14.167 4 21.5 7s13.833 6.16699 19.5 9.5s8.5 7 8.5 11c0 6.66699 -3 13.667 -9 21s-10.667 13.666 -14 18.999
c-16.667 29.333 -28.667 63.166 -36 101.499s-11 74.5 -11 108.5c0 60.667 8.66699 121.167 26 181.5s42.166 117 74.499 170s71.5 100.333 117.5 142s97.333 74.167 154 97.5c3.33301 1.33301 6.83301 3 10.5 5s5.5 5 5.5 9z" />
    <glyph glyph-name="parenright" unicode=")" horiz-adv-x="340" 
d="M459 564c0 7.33301 -0.666992 20.998 -2 40.998s-3.66602 41.833 -6.99902 65.5s-7.5 46.834 -12.5 69.501s-11.167 40.667 -18.5 54c-6.66699 12.667 -13.667 19 -21 19c-3.33301 0 -8.5 -0.833008 -15.5 -2.5s-14 -4 -21 -7s-13.333 -6.16699 -19 -9.5
s-8.5 -7 -8.5 -11c0 -6.66699 2.83301 -13.667 8.5 -21s10.167 -13.666 13.5 -18.999c17.333 -29.333 29.666 -63.166 36.999 -101.499s11 -74.5 11 -108.5c0 -60 -8.83301 -120.333 -26.5 -181s-42.667 -117.5 -75 -170.5s-71.5 -100.333 -117.5 -142
s-97.333 -74.167 -154 -97.5c-3.33301 -1.33301 -6.83301 -3 -10.5 -5s-5.5 -5 -5.5 -9c0 -2 1 -3.33301 3 -4s3.66699 -1 5 -1c4.66699 0 9.66699 1 15 3c64.667 25.333 123 60 175 104s96.333 94 133 150s64.667 116.667 84 182s29 132.666 29 201.999z" />
    <glyph glyph-name="asterisk" unicode="*" horiz-adv-x="354" 
d="M414 702c0 2 -0.170898 4.66895 -0.503906 8.00195s-1.5 5.66602 -3.5 6.99902c-2.66699 2 -11.667 4 -27 6s-32 3.66699 -50 5l18.5 28c6.33301 9.33301 12.166 18.666 17.499 27.999c0.666992 1.33301 1.33398 2.83301 2.00098 4.5s0.333984 3.16699 -0.999023 4.5
l-5 4c-1.33301 1.33301 -3.5 2.66602 -6.5 3.99902s-5.5 1.33301 -7.5 0c-3.33301 -1.33301 -9.66602 -8.16602 -18.999 -20.499s-19 -25.833 -29 -40.5c-5.33301 9.33301 -10.5 19.166 -15.5 29.499s-10.167 20.166 -15.5 29.499l-3.5 3.5c-1 1 -2.5 1.83301 -4.5 2.5
l-5 -3l-6.5 -4.5c-2.33301 -1.66699 -3.83301 -3.5 -4.5 -5.5c-0.666992 -3.33301 1.33301 -10.666 6 -21.999s10.334 -24 17.001 -38h-16c-8.66699 0 -16.334 -0.166992 -23.001 -0.5s-12.334 -1.66602 -17.001 -3.99902s-8.16699 -6.16602 -10.5 -11.499
s-3.5 -13.333 -3.5 -24c0 -6 3.33301 -9.33301 10 -10c3.33301 4.66699 11.333 7.83398 24 9.50098s25.334 3.16699 38.001 4.5c-3.33301 -5.33301 -6 -9.83301 -8 -13.5s-3.66699 -6.5 -5 -8.5c-4.66699 -7.33301 -8.5 -13.833 -11.5 -19.5s-4.66699 -11.167 -5 -16.5
s1.16699 -10.333 4.5 -15s9.66602 -9.66699 18.999 -15c5.33301 -4 10 -3 14 3c-2 5.33301 -0.666992 14 4 26s9.66699 23.667 15 35c3.33301 -5.33301 5.83301 -10 7.5 -14s3.16699 -7 4.5 -9c4 -7.33301 7.83301 -13.833 11.5 -19.5s7.66699 -9.83398 12 -12.501
s9.5 -3.66699 15.5 -3s13.667 3.66699 23 9c5.33301 3.33301 6.33301 7.66602 3 12.999c-3.33301 0.666992 -7.16602 3.16699 -11.499 7.5s-8.66602 9.33301 -12.999 15l-13.5 18.5c-4.66699 6.66699 -8.66699 13 -12 19l39 -2c12.667 -0.666992 25.334 -1 38.001 -1
c4.66699 0 7.66699 1 9 3z" />
    <glyph glyph-name="plus" unicode="+" horiz-adv-x="363" 
d="M405 333c0 3.33301 -0.172852 6.83496 -0.505859 10.502s-1.83301 6.5 -4.5 8.5c-2 1.33301 -6.5 2.66602 -13.5 3.99902s-15.5 2.66602 -25.5 3.99902s-21.167 2.5 -33.5 3.5s-24.833 2.16699 -37.5 3.5c1.33301 10 2 18.333 2 25v16
c0 10.667 -0.166992 20.334 -0.5 29.001s-2 16 -5 22s-8 10.5 -15 13.5s-17.167 4.5 -30.5 4.5c-8 0 -12.333 -4 -13 -12c3.33301 -2.66699 6 -7.5 8 -14.5s3.83301 -15 5.5 -24s2.83398 -18.5 3.50098 -28.5s1 -19.333 1 -28c-11.333 0.666992 -20.833 1.16699 -28.5 1.5
s-13.167 0.5 -16.5 0.5c-11.333 0 -21.166 -0.166992 -29.499 -0.5s-15.5 -2 -21.5 -5s-10.5 -8 -13.5 -15s-4.5 -17.167 -4.5 -30.5c0 -8.66699 4.33301 -13 13 -13c2.66699 3.33301 7.83398 6.16602 15.501 8.49902s16.334 4.16602 26.001 5.49902
s19.834 2.33301 30.501 3s20.334 1 29.001 1c-0.666992 -18.667 -1.66699 -37 -3 -55s-2 -36 -2 -54c0 -5.33301 1.66699 -9.33301 5 -12l8 -1c2.66699 0 6 0.166992 10 0.5s6.66699 1.83301 8 4.5c1.33301 2 2.83301 6.83301 4.5 14.5s3.16699 16.834 4.5 27.501
s2.5 22.5 3.5 35.5s2.16699 26.167 3.5 39.5c17.333 -0.666992 34.833 -1.66699 52.5 -3s35.167 -2 52.5 -2c5.33301 0 9 1.33301 11 4z" />
    <glyph glyph-name="comma" unicode="," horiz-adv-x="175" 
d="M120 29c0 3.33301 -1.5 7.33691 -4.5 12.0039s-6.66699 9.33398 -11 14.001s-8.83301 8.5 -13.5 11.5s-8.66699 4.5 -12 4.5c-2 0 -4.83301 -1.33301 -8.5 -4s-7.16699 -6 -10.5 -10s-6.16602 -8 -8.49902 -12s-3.5 -7 -3.5 -9c0 -3.33301 1.16699 -10.333 3.5 -21
s4.16602 -17.667 5.49902 -21l-14 -35.5c-4.66699 -12.333 -10.667 -23.5 -18 -33.5c-3.33301 -5.33301 -8.16602 -10.333 -14.499 -15s-12.5 -9 -18.5 -13s-11.5 -7.83301 -16.5 -11.5s-7.83301 -6.5 -8.5 -8.5c0 -2.66699 1.16699 -4.33398 3.5 -5.00098
s4.16602 -1 5.49902 -1c14 0 28.833 6.33301 44.5 19s30.167 27.167 43.5 43.5s24.833 32.166 34.5 47.499s15.5 25.666 17.5 30.999c0.666992 3.33301 1.5 6.16602 2.5 8.49902s1.5 5.16602 1.5 8.49902z" />
    <glyph glyph-name="hyphen" unicode="-" horiz-adv-x="381" 
d="M363 229c0 3.33301 -0.166016 6.83105 -0.499023 10.498s-1.83301 6.5 -4.5 8.5c-2 1.33301 -7.83301 2.83301 -17.5 4.5s-21.167 3.33398 -34.5 5.00098s-27.833 3.16699 -43.5 4.5s-30.5 2.33301 -44.5 3s-26.333 1.33398 -37 2.00098s-18 1 -22 1
c-11.333 0 -21.166 -0.166992 -29.499 -0.5s-15.5 -2 -21.5 -5s-10.5 -8 -13.5 -15s-4.5 -17.167 -4.5 -30.5c0 -8.66699 4.33301 -13 13 -13c4 4.66699 11.667 8.16699 23 10.5s23.666 4 36.999 5s26.166 1.66699 38.499 2s21.5 0.5 27.5 0.5
c20 0 40.167 -0.833008 60.5 -2.5s40.833 -2.5 61.5 -2.5c5.33301 0 9 1.33301 11 4z" />
    <glyph glyph-name="period" unicode="." horiz-adv-x="175" 
d="M120 29c0 4 -1.66504 8.50098 -4.99805 13.501s-7.33301 9.5 -12 13.5s-9.33398 7.5 -14.001 10.5s-8.33398 4.5 -11.001 4.5s-5.66699 -1.5 -9 -4.5s-6.5 -6.33301 -9.5 -10s-5.66699 -7.5 -8 -11.5s-3.5 -7 -3.5 -9c0 -3.33301 0.833008 -9.66602 2.5 -18.999
s3.16699 -16 4.5 -20c0.666992 -3.33301 3.5 -6.33301 8.5 -9s11.167 -4 18.5 -4c4.66699 0 9.33398 1.66699 14.001 5s8.66699 7.16602 12 11.499s6.16602 9.16602 8.49902 14.499s3.5 10 3.5 14z" />
    <glyph glyph-name="slash" unicode="/" horiz-adv-x="313" 
d="M619 781l-0.00195312 6.00098c0 4 -0.166992 8 -0.5 12s-1 7.66699 -2 11s-2.5 5 -4.5 5c-5.33301 0 -17.5 -11.333 -36.5 -34s-41.5 -51.334 -67.5 -86.001l-83 -114l-83.5 -118.5l-68.5 -99l-38 -56.5l-27.5 -41l-43 -66.5l-49 -79.5l-47 -79.5
c-14.333 -25 -26 -47 -35 -66s-13.5 -32.167 -13.5 -39.5s1.16699 -14.166 3.5 -20.499s7.83301 -9.5 16.5 -9.5c3.33301 0 7 0.666992 11 2c10 27.333 22.5 54.166 37.5 80.499l43.5 77.5c28 50 56.833 99 86.5 147s60.834 95.333 93.501 142l113 157.5l98 133l69.5 92
c17.667 23 26.5 34.833 26.5 35.5c0.666992 1.33301 0.833984 2.83301 0.500977 4.5s-0.5 3.16699 -0.5 4.5z" />
    <glyph glyph-name="zero" unicode="0" horiz-adv-x="656" 
d="M841 637c0 40 -12.998 72.668 -38.998 98.001s-61 38 -105 38c-10.667 0 -22.167 -1.5 -34.5 -4.5s-24.166 -6.5 -35.499 -10.5s-21.666 -7.5 -30.999 -10.5s-16.333 -4.5 -21 -4.5c-8.66699 0 -13 2 -13 6c-1.33301 5.33301 -4 8 -8 8c-10 0 -23.833 -5.66699 -41.5 -17
s-37.834 -26.833 -60.501 -46.5s-46.667 -43 -72 -70s-50.5 -56.167 -75.5 -87.5s-49.167 -64.166 -72.5 -98.499s-43.833 -68.833 -61.5 -103.5s-31.667 -68.667 -42 -102s-15.5 -64.666 -15.5 -93.999c0 -30 4.16699 -54.667 12.5 -74s19.166 -34.5 32.499 -45.5
s28.333 -18.667 45 -23s33.667 -6.5 51 -6.5c31.333 0 67.666 10.167 108.999 30.5s83.666 47.666 126.999 81.999s86 73.666 128 117.999s79.5 90.5 112.5 138.5s59.667 96.167 80 144.5s30.5 93.166 30.5 134.499zM817.002 643.001
c0 -43.333 -10.3311 -88.9971 -30.998 -136.997s-47.5 -95.333 -80.5 -142s-70.167 -91 -111.5 -133s-82.666 -79.167 -123.999 -111.5s-80.333 -58 -117 -77s-67.334 -28.5 -92.001 -28.5c-14 0 -27.333 1.83301 -40 5.5s-24 9.66699 -34 18s-17.833 19.5 -23.5 33.5
s-8.5 31.333 -8.5 52c0 33.333 9.5 71.666 28.5 114.999s44 87.666 75 132.999s66.167 89.666 105.5 132.999s79.666 82.166 120.999 116.499s81.833 61.833 121.5 82.5s74.834 31 105.501 31c18 0 33.667 -2.66699 47 -8s24.166 -12.166 32.499 -20.499
s14.666 -18 18.999 -29s6.5 -22.167 6.5 -33.5z" />
    <glyph glyph-name="one" unicode="1" horiz-adv-x="453" 
d="M668 750c0 2.66699 -1.3291 6 -3.99609 10s-5.66699 7.66699 -9 11s-7.16602 6.16602 -11.499 8.49902s-7.83301 3.5 -10.5 3.5c-0.666992 0 -7.83398 -3.5 -21.501 -10.5l-45.5 -23l-48 -24.5c-15.333 -8 -25.333 -13 -30 -15c-8.66699 -3.33301 -20.5 -7.5 -35.5 -12.5
l-46.5 -15c-16 -5 -31.5 -9.16699 -46.5 -12.5s-26.833 -5 -35.5 -5s-14.834 1.33301 -18.501 4s-6.5 4 -8.5 4c-4 0 -6.5 -2 -7.5 -6s-1.5 -7.33301 -1.5 -10c0 -7.33301 2.66699 -13.333 8 -18s11.666 -7 18.999 -7c18 0 38.167 3.5 60.5 10.5s43.833 14.833 64.5 23.5
s38.5 16.5 53.5 23.5s23.5 10.5 25.5 10.5c6.66699 0 10 -4 10 -12c0 -1.33301 -4.83301 -9.66602 -14.5 -24.999l-36 -56.5l-47.5 -73l-49 -74.5l-40 -60.5c-11.333 -17 -18 -27.167 -20 -30.5l-99 -157.5c-32 -53 -63 -107.167 -93 -162.5
c-2 -0.666992 -7.33301 -3 -16 -7s-17.834 -8.5 -27.501 -13.5s-18.167 -9.83301 -25.5 -14.5s-11 -8 -11 -10c0 -4 0.833008 -8.16699 2.5 -12.5s5.16699 -6.83301 10.5 -7.5l95.5 49.5c31.667 15.667 64.167 30.5 97.5 44.5c11.333 4.66699 23.166 8.66699 35.499 12
s24.166 7.66602 35.499 12.999c2.66699 2 4 5.33301 4 10c0 3.33301 -0.666992 5.33301 -2 6c-18.667 -3.33301 -37.167 -8.16602 -55.5 -14.499s-36.166 -12.833 -53.499 -19.5c29.333 58.667 61 116.167 95 172.5s69.667 111.5 107 165.5l32 43.5l49 65.5l56.5 74
l53.5 69.5l39.5 52.5c10.333 14 15.5 21.667 15.5 23z" />
    <glyph glyph-name="two" unicode="2" horiz-adv-x="567" 
d="M754 697c0 14.667 -3.00586 27.4971 -9.00586 38.4971s-13.833 20.333 -23.5 28s-20.834 13.334 -33.501 17.001s-26 5.5 -40 5.5c-25.333 0 -52.333 -3.33301 -81 -10s-56.834 -15 -84.501 -25s-54.167 -21.167 -79.5 -33.5s-47.666 -24 -66.999 -35
s-34.666 -20.833 -45.999 -29.5s-17 -14.334 -17 -17.001c0 -5.33301 1.66699 -10.5 5 -15.5s7 -9.5 11 -13.5s8 -7.16699 12 -9.5s7 -3.5 9 -3.5c3.33301 0 11.666 4.16699 24.999 12.5l49.5 31.5l66.5 41.5c24.667 15 49.834 28.833 75.501 41.5
s50.834 23.167 75.501 31.5s47 12.5 67 12.5c14.667 0 24.834 -3.5 30.501 -10.5s8.5 -16.833 8.5 -29.5c0 -23.333 -10.667 -51.166 -32 -83.499s-48.666 -66.5 -81.999 -102.5s-70.333 -72.167 -111 -108.5l-118 -102l-104 -83.5l-68 -52
c-43.333 -32.667 -77.666 -60.334 -102.999 -83.001s-38 -42.667 -38 -60s5 -31 15 -41s21.667 -15 35 -15c4 0 13.5 3.5 28.5 10.5l56.5 27.5l78.5 38.5c29.667 14.333 61.5 28.833 95.5 43.5s69.5 28.834 106.5 42.501s74.167 25.5 111.5 35.5
c3.33301 1.33301 4.5 3 3.5 5s-3.83301 3.66699 -8.5 5c-14.667 -1.33301 -32.834 -4.33301 -54.501 -9s-45.334 -10.167 -71.001 -16.5s-52.5 -13.666 -80.5 -21.999s-55.667 -17.333 -83 -27s-53.666 -19.5 -78.999 -29.5s-47.666 -20 -66.999 -30l-2 3
c1.33301 1.33301 8.33301 7.5 21 18.5l48.5 41.5l66.5 56.5l75 63.5l74 61.5l63 51.5l88.5 71.5c31.667 25.667 60.834 52.834 87.501 81.501s48.834 58 66.501 88s26.5 60.667 26.5 92z" />
    <glyph glyph-name="three" unicode="3" horiz-adv-x="542" 
d="M702 725c0 2.66699 -0.827148 7.66699 -2.49414 15s-3.83398 14.666 -6.50098 21.999s-5.66699 14 -9 20s-6.66602 9 -9.99902 9c-6 0 -17.167 -1.66699 -33.5 -5s-33.833 -7.16602 -52.5 -11.499l-54.5 -13c-17.667 -4.33301 -30.834 -7.16602 -39.501 -8.49902
l-89.5 -16c-30.333 -5.33301 -60.5 -8 -90.5 -8c-4.66699 0 -8.83398 0.833008 -12.501 2.5s-7.16699 2.5 -10.5 2.5c-4 0 -6 -2.33301 -6 -7c0 -3.33301 0.666992 -7.5 2 -12.5s3.33301 -10 6 -15s5.83398 -9.33301 9.50098 -13s7.5 -5.5 11.5 -5.5
c10 0 25.167 2.33301 45.5 7s41.833 10 64.5 16s44.5 12.167 65.5 18.5l48.5 14.5c2.66699 0.666992 6.83398 1.83398 12.501 3.50098s11.667 3.16699 18 4.5s12.166 2.66602 17.499 3.99902s9.66602 2 12.999 2c7.33301 0 11 -3.66699 11 -11
c0 -6.66699 -8.83301 -17.834 -26.5 -33.501s-39.667 -33.5 -66 -53.5l-85.5 -62.5l-85.5 -61l-66 -49c-17.667 -13.667 -26.5 -22.167 -26.5 -25.5c0 -5.33301 2.5 -11.5 7.5 -18.5s10.167 -10.5 15.5 -10.5c1.33301 0 4.33301 0.666992 9 2s9.5 3 14.5 5l14 5.5
c4.33301 1.66699 7.5 2.83398 9.5 3.50098c15.333 5.33301 31.166 10 47.499 14s33.166 6 50.499 6c14 0 27.5 -1.33301 40.5 -4s24.333 -7 34 -13s17.5 -14.333 23.5 -25s9 -24 9 -40c0 -27.333 -7 -54.333 -21 -81s-32.5 -52.334 -55.5 -77.001s-49 -48.167 -78 -70.5
s-58.5 -43.333 -88.5 -63s-59.167 -37.667 -87.5 -54l-73.5 -42.5c-1.33301 -2.66699 -2 -5.33398 -2 -8.00098c0 -5.33301 1.66699 -9.66602 5 -12.999c22.667 9.33301 50.167 22 82.5 38s66.166 34.167 101.499 54.5s70.666 42.5 105.999 66.5s67 49.167 95 75.5
s50.667 53.333 68 81s26 55.167 26 82.5c0 22 -5 40.667 -15 56s-22.833 28 -38.5 38s-33.167 17.167 -52.5 21.5s-38.333 6.5 -57 6.5c-11.333 0 -22.333 -0.833008 -33 -2.5s-21.667 -2.5 -33 -2.5c-3.33301 0 -5.33301 1 -6 3c2 3.33301 11.5 10.833 28.5 22.5l62 41.5
l78.5 51.5l78 52c24 16.333 43.833 30.833 59.5 43.5s23.5 21 23.5 25z" />
    <glyph glyph-name="four" unicode="4" horiz-adv-x="582" 
d="M785 771c0 2 -0.834961 3.83594 -2.50195 5.50293s-3.5 2.16699 -5.5 1.5c-20.667 -20.667 -43.167 -47.667 -67.5 -81s-48.166 -68.5 -71.499 -105.5l-66.5 -109.5l-52.5 -93l-64.5 -11.5c-23.667 -4.33301 -47.5 -9 -71.5 -14s-47.667 -10.333 -71 -16
s-44 -11.834 -62 -18.501l-2 3c36 37.333 73 73.333 111 108l116 102c29.333 25.333 58.833 49.333 88.5 72l80 60l58 42.5c15 11 22.5 17.5 22.5 19.5c0 5.33301 -3.5 12.333 -10.5 21s-13.167 13 -18.5 13s-19.666 -7.33301 -42.999 -22s-51.166 -33.5 -83.499 -56.5
s-66.833 -48.833 -103.5 -77.5s-70.667 -57 -102 -85l-95.5 -88.5l-81 -80.5c-23.667 -24.667 -42.5 -46.5 -56.5 -65.5s-21 -33.5 -21 -43.5c0 -5.33301 4.16699 -11 12.5 -17s14.833 -9 19.5 -9c0.666992 0 3.66699 1.16699 9 3.5l17.5 8l17.5 8.5l10 5
c44.667 20.667 89.5 39.5 134.5 56.5s91.5 31.167 139.5 42.5l32 8l-20.5 -39l-33 -64.5l-38.5 -77l-36.5 -77c-11 -24.333 -20.167 -45.666 -27.5 -63.999s-11 -30.833 -11 -37.5c0 -9.33301 5.33301 -14 16 -14c9.33301 0 19.833 2.5 31.5 7.5s19.5 11.5 23.5 19.5
c1.33301 2.66699 3.66602 9 6.99902 19l10.5 33l10.5 35c3.33301 11.333 6 19.666 8 24.999c15.333 41.333 31.333 82.166 48 122.499s34.334 80.5 53.001 120.5c30 6 60.667 11.667 92 17s62.333 8 93 8c2.66699 2.66699 4 6 4 10c0 1.33301 -0.166992 2.33301 -0.5 3
s-0.5 1.66699 -0.5 3c-6.66699 0 -13 0.166992 -19 0.5s-12.333 0.5 -19 0.5c-22.667 0 -45.334 -1.33301 -68.001 -4s-45.334 -5.66699 -68.001 -9l12 23l12 23c26.667 51.333 54.667 102 84 152s62 98 98 144c0.666992 0.666992 2.16699 2.5 4.5 5.5l7.5 9.5l7.5 9
c2.33301 2.66699 3.5 4.33398 3.5 5.00098c0.666992 1.33301 0.833984 2.16602 0.500977 2.49902s-0.5 1.16602 -0.5 2.49902z" />
    <glyph glyph-name="five" unicode="5" horiz-adv-x="593" 
d="M844 772c0 4 -1.3291 6.33887 -3.99609 7.00586c-55.333 0 -110.333 -1.83301 -165 -5.5s-109.667 -5.5 -165 -5.5c-8.66699 0 -16.667 2.33301 -24 7s-13.666 7 -18.999 7c-1.33301 0 -5.83301 -4.83301 -13.5 -14.5s-15.834 -20.667 -24.501 -33l-24 -35
c-7.33301 -11 -12 -17.5 -14 -19.5c-3.33301 -5.33301 -10.833 -16.666 -22.5 -33.999l-41 -61l-49 -74.5l-47.5 -73c-14.667 -22.333 -26.667 -41.333 -36 -57s-14 -24.5 -14 -26.5c0 -4 1.66699 -8.33301 5 -13s7.5 -8.83398 12.5 -12.501s10.167 -6.83398 15.5 -9.50098
s10 -4 14 -4c2.66699 0 10.834 5.16699 24.501 15.5s30.667 21.833 51 34.5s43.166 24.167 68.499 34.5s51.333 15.5 78 15.5c30.667 0 53.167 -5.5 67.5 -16.5s21.5 -29.833 21.5 -56.5c0 -20.667 -8.66699 -43 -26 -67s-40 -48.5 -68 -73.5s-59.167 -49.333 -93.5 -73
s-68.333 -45.5 -102 -65.5s-65.334 -37.167 -95.001 -51.5s-53.5 -24.5 -71.5 -30.5l-5 -7l5 -3c22 4 50.333 12.5 85 25.5s71.834 29.167 111.501 48.5s79.5 41 119.5 65s76.167 49.167 108.5 75.5s58.666 53.166 78.999 80.499s30.5 53.666 30.5 78.999
c0 18.667 -5.33301 34.334 -16 47.001s-23.834 22.667 -39.501 30s-32.5 12.666 -50.5 15.999s-34.333 5 -49 5c-24.667 0 -52.334 -2.5 -83.001 -7.5s-57.667 -11.833 -81 -20.5l-1 5l40 63.5l53 82.5c18.667 28 37.167 53.833 55.5 77.5s34.166 39.834 47.499 48.501
c8 5.33301 20.667 10.666 38 15.999s37 10.666 59 15.999s45.333 10.166 70 14.499s48.5 8.16602 71.5 11.499s44.167 6 63.5 8s34.333 3 45 3c2.66699 4 4 7.66699 4 11z" />
    <glyph glyph-name="six" unicode="6" horiz-adv-x="592" 
d="M831 785c3.33301 2 4.83008 4.67383 4.49707 8.00684s-2.16602 5.66602 -5.49902 6.99902c-22 -5.33301 -52.333 -15.333 -91 -30s-80.667 -33.334 -126 -56.001s-91.5 -48.834 -138.5 -78.501s-89.833 -61.834 -128.5 -96.501
c-76.667 -67.333 -134.667 -133.5 -174 -198.5s-59 -127.5 -59 -187.5c0 -24 3.66699 -46 11 -66s17.5 -37.167 30.5 -51.5s28 -25.5 45 -33.5s35.167 -12 54.5 -12c21.333 0 44.833 4.66699 70.5 14s51.5 21.833 77.5 37.5s51.333 33.834 76 54.501
s46.5 42.834 65.5 66.501s34.167 47.834 45.5 72.501s17 48.667 17 72c0 9.33301 -3.5 19.5 -10.5 30.5s-15.667 21.167 -26 30.5s-21.333 17.166 -33 23.499s-22.167 9.5 -31.5 9.5c-13.333 0 -29.5 -3.66699 -48.5 -11s-39.5 -17.333 -61.5 -30s-44.333 -27.667 -67 -45
s-44 -35.833 -64 -55.5s-37.833 -40.334 -53.5 -62.001s-27.167 -42.834 -34.5 -63.501c1.33301 28 7.5 57.833 18.5 89.5s26.833 64.5 47.5 98.5s46.334 68.167 77.001 102.5s66.667 67.833 108 100.5c42.667 34 83.834 65.167 123.501 93.5s77 53.666 112 75.999
s66.833 41.166 95.5 56.499s53 26.666 73 33.999zM547.997 340.007c0 -18.667 -4.33105 -39.3311 -12.998 -61.998s-20.334 -45.834 -35.001 -69.501s-31.834 -46.834 -51.501 -69.501s-40.5 -42.834 -62.5 -60.501s-44.667 -31.834 -68 -42.501s-46 -16 -68 -16
c-11.333 0 -22.833 2.16699 -34.5 6.5s-21.167 14.5 -28.5 30.5c0.666992 3.33301 1 6.33301 1 9v4c0 22.667 6 45.834 18 69.501s27.667 46.5 47 68.5s41 43 65 63s48 37.333 72 52s47 26.334 69 35.001s40.333 13 55 13c9.33301 0 17.333 -2 24 -6s10 -12.333 10 -25z" />
    <glyph glyph-name="seven" unicode="7" horiz-adv-x="516" 
d="M777 724c0 2.66699 -1.50293 7 -4.50293 13s-7 11.667 -12 17s-10.333 10.166 -16 14.499s-11.5 6.5 -17.5 6.5c-43.333 0 -83.833 -1.16699 -121.5 -3.5s-73 -5 -106 -8l-91.5 -8c-28 -2.33301 -53.333 -3.5 -76 -3.5c-6 0 -10.333 -1.83301 -13 -5.5
s-4 -8.16699 -4 -13.5c0 -3.33301 1.66699 -7.5 5 -12.5s7.33301 -10 12 -15s9.5 -9.33301 14.5 -13s9.16699 -5.5 12.5 -5.5c5.33301 0 18.333 2.5 39 7.5s45.5 10.667 74.5 17s60.333 12 94 17s66.167 7.5 97.5 7.5v-4l-148.5 -155.5
c-51 -54.333 -100.833 -111.5 -149.5 -171.5c-55.333 -68 -105.666 -138 -150.999 -210s-80.333 -145.333 -105 -220c2 -3.33301 5 -5.33301 9 -6c12 25.333 26.833 53.833 44.5 85.5s37.5 64.5 59.5 98.5s45.5 68.333 70.5 103s51.167 67.667 78.5 99
c18 20.667 38 42.334 60 65.001l67.5 67.5l69 65l65.5 58c20.667 17.667 39.334 33 56.001 46s30.334 23.167 41.001 30.5c13.333 9.33301 24.333 16.5 33 21.5s13 10.167 13 15.5z" />
    <glyph glyph-name="eight" unicode="8" horiz-adv-x="578" 
d="M873 754c3.33301 4 3.66797 6.50195 1.00098 7.50195s-5.66699 2.5 -9 4.5c-12 -4.66699 -30.167 -12.334 -54.5 -23.001s-53.666 -24.667 -87.999 -42s-72.666 -38 -114.999 -62s-86.833 -51.667 -133.5 -83l-14 -10c-4.66699 12.667 -8.33398 24.334 -11.001 35.001
s-4 20.667 -4 30c0 20 4 36.833 12 50.5s17.667 24.5 29 32.5s23.166 13.667 35.499 17s23.166 5 32.499 5c19.333 0 37 -1.16699 53 -3.5s29.333 -3.5 40 -3.5s20.667 1.66699 30 5s14 11 14 23c0 4.66699 -3.33301 9 -10 13s-15.667 7.5 -27 10.5s-24.166 5.5 -38.499 7.5
s-29.5 3 -45.5 3c-24.667 0 -48 -3.33301 -70 -10s-41.333 -16.5 -58 -29.5s-30 -28.667 -40 -47s-15 -38.833 -15 -61.5c0 -19.333 2.5 -37.833 7.5 -55.5s11.167 -35.5 18.5 -53.5c-42 -31.333 -82.833 -64.666 -122.5 -99.999s-74.834 -70.333 -105.501 -105
s-55.334 -67.834 -74.001 -99.501s-28 -58.834 -28 -81.501c0 -17.333 5.5 -34.5 16.5 -51.5s25 -32 42 -45s35.5 -23.5 55.5 -31.5s38.667 -12 56 -12c32 0 66 6.5 102 19.5s69.167 31.5 99.5 55.5s55.5 52.833 75.5 86.5s30 71.167 30 112.5c0 20 -3.16699 41 -9.5 63
s-14.166 44.333 -23.499 67s-19.166 45 -29.499 67l-28.5 63c6.66699 5.33301 13 10 19 14s11.667 8 17 12c34 22.667 69.833 45.167 107.5 67.5l108 62c34.333 19 65.166 35.167 92.499 48.5s47.333 22.666 60 27.999zM486.002 252.002
c0 -32.667 -8.16699 -62.332 -24.5 -88.999s-37.333 -49.334 -63 -68.001s-54.167 -33.167 -85.5 -43.5s-62 -15.5 -92 -15.5c-26 0 -45.833 6 -59.5 18s-20.5 28.333 -20.5 49c0 25.333 8.66699 54.5 26 87.5s39.666 67 66.999 102s57.833 69.333 91.5 103
s66.834 64.167 99.501 91.5c14 -32 27.667 -66.833 41 -104.5s20 -81.167 20 -130.5z" />
    <glyph glyph-name="nine" unicode="9" horiz-adv-x="591" 
d="M729 620c0 24.667 -3.66309 46.9912 -10.9961 66.9912s-17.5 37.167 -30.5 51.5s-28 25.5 -45 33.5s-34.833 12 -53.5 12c-21.333 0 -45 -4.66699 -71 -14s-52 -21.833 -78 -37.5s-51.333 -34 -76 -55s-46.5 -43.167 -65.5 -66.5s-34.167 -47.333 -45.5 -72
s-17 -48.667 -17 -72c0 -9.33301 3.5 -19.5 10.5 -30.5s15.667 -21.167 26 -30.5s21.333 -17.166 33 -23.499s22.167 -9.5 31.5 -9.5c13.333 0 29.666 3.66699 48.999 11s40 17.333 62 30s44.333 27.667 67 45s44 35.833 64 55.5s37.667 40.334 53 62.001
s26.666 42.834 33.999 63.501c-1.33301 -28 -7.5 -58 -18.5 -90s-26.833 -64.833 -47.5 -98.5s-46.5 -67.667 -77.5 -102s-66.833 -67.833 -107.5 -100.5c-42.667 -34 -83.834 -65.167 -123.501 -93.5s-77 -53.666 -112 -75.999s-66.833 -41.166 -95.5 -56.499
s-53 -26.666 -73 -33.999c-3.33301 -2 -4.83301 -4.66699 -4.5 -8s2.5 -5.66602 6.5 -6.99902c22 4.66699 52.167 14.5 90.5 29.5s80.166 33.833 125.499 56.5s91.333 48.834 138 78.501s89.667 61.834 129 96.501c76.667 67.333 134.667 133.5 174 198.5
s59 127.167 59 186.5zM655.004 715.991c-0.666992 -2.66699 -1.00195 -5.66895 -1.00195 -9.00195v-4c0 -22.667 -6 -45.667 -18 -69s-27.667 -46.166 -47 -68.499s-41 -43.333 -65 -63s-48 -36.834 -72 -51.501s-47 -26.334 -69 -35.001s-40.333 -13 -55 -13
c-9.33301 0 -17.166 2 -23.499 6s-9.5 12.333 -9.5 25c0 18 4.33301 38.5 13 61.5s20.334 46.333 35.001 70s31.667 46.834 51 69.501s40 42.834 62 60.501s44.667 31.834 68 42.501s46 16 68 16c11.333 0 22.833 -2.16699 34.5 -6.5s21.167 -14.833 28.5 -31.5z" />
    <glyph glyph-name="colon" unicode=":" horiz-adv-x="256" 
d="M241 254c0 4 -1.66895 8.50098 -5.00195 13.501s-7.33301 9.5 -12 13.5s-9.16699 7.5 -13.5 10.5s-7.83301 4.5 -10.5 4.5s-5.66699 -1.5 -9 -4.5s-6.66602 -6.33301 -9.99902 -10s-6.16602 -7.5 -8.49902 -11.5s-3.5 -7 -3.5 -9
c0 -3.33301 0.833008 -9.66602 2.5 -18.999s3.16699 -16 4.5 -20c1.33301 -3.33301 4.5 -6.33301 9.5 -9s10.833 -4 17.5 -4c4.66699 0 9.33398 1.66699 14.001 5s8.66699 7.16602 12 11.499s6.16602 9.16602 8.49902 14.499s3.5 10 3.5 14zM119.998 29.001
c0 4 -1.66504 8.50098 -4.99805 13.501s-7.33301 9.5 -12 13.5s-9.33398 7.5 -14.001 10.5s-8.33398 4.5 -11.001 4.5s-5.66699 -1.5 -9 -4.5s-6.5 -6.33301 -9.5 -10s-5.66699 -7.5 -8 -11.5s-3.5 -7 -3.5 -9c0 -3.33301 0.833008 -9.66602 2.5 -18.999
s3.16699 -16 4.5 -20c0.666992 -3.33301 3.5 -6.33301 8.5 -9s11.167 -4 18.5 -4c4.66699 0 9.33398 1.66699 14.001 5s8.66699 7.16602 12 11.499s6.16602 9.16602 8.49902 14.499s3.5 10 3.5 14z" />
    <glyph glyph-name="semicolon" unicode=";" horiz-adv-x="259" 
d="M241 254c0 4 -1.66895 8.50098 -5.00195 13.501s-7.33301 9.5 -12 13.5s-9.16699 7.5 -13.5 10.5s-7.83301 4.5 -10.5 4.5s-5.66699 -1.5 -9 -4.5s-6.66602 -6.33301 -9.99902 -10s-6.16602 -7.5 -8.49902 -11.5s-3.5 -7 -3.5 -9
c0 -3.33301 0.833008 -9.66602 2.5 -18.999s3.16699 -16 4.5 -20c1.33301 -3.33301 4.5 -6.33301 9.5 -9s10.833 -4 17.5 -4c4.66699 0 9.33398 1.66699 14.001 5s8.66699 7.16602 12 11.499s6.16602 9.16602 8.49902 14.499s3.5 10 3.5 14zM119.998 29.001
c0 3.33301 -1.49902 7.33594 -4.49902 12.0029s-6.83301 9.33398 -11.5 14.001s-9.33398 8.5 -14.001 11.5s-8.66699 4.5 -12 4.5c-2 0 -4.83301 -1.33301 -8.5 -4s-7 -6 -10 -10s-5.66699 -8 -8 -12s-3.5 -7 -3.5 -9c0 -3.33301 1 -10.333 3 -21s3.66699 -17.667 5 -21
l-13 -35.5c-4.66699 -12.333 -10.667 -23.5 -18 -33.5c-3.33301 -5.33301 -8.16602 -10.333 -14.499 -15s-12.5 -9 -18.5 -13s-11.5 -7.83301 -16.5 -11.5s-7.83301 -6.5 -8.5 -8.5c0 -2.66699 1.16699 -4.33398 3.5 -5.00098s4.16602 -1 5.49902 -1
c14 0 28.667 6.33301 44 19s29.833 27.167 43.5 43.5s25.167 32.166 34.5 47.499s15 25.666 17 30.999l3.5 8.5c1 2.33301 1.5 5.16602 1.5 8.49902z" />
    <glyph glyph-name="less" unicode="&#x3c;" horiz-adv-x="552" 
d="M695 597l-534 -237l-18 -41l324 -234l22 49l-271 196l450 198z" />
    <glyph glyph-name="equal" unicode="=" horiz-adv-x="354" 
d="M393 333c0 3.33301 -0.166016 6.83105 -0.499023 10.498s-1.83301 6.5 -4.5 8.5c-2 1.33301 -7.83301 2.83301 -17.5 4.5s-21.167 3.33398 -34.5 5.00098s-27.833 3.16699 -43.5 4.5s-30.5 2.33301 -44.5 3s-26.333 1.33398 -37 2.00098s-18 1 -22 1
c-11.333 0 -21.166 -0.166992 -29.499 -0.5s-15.5 -2 -21.5 -5s-10.5 -8 -13.5 -15s-4.5 -17.167 -4.5 -30.5c0 -8.66699 4.33301 -13 13 -13c4 4.66699 11.667 8.16699 23 10.5s23.666 4 36.999 5s26.166 1.66699 38.499 2s21.5 0.5 27.5 0.5
c20 0 40.167 -0.833008 60.5 -2.5s40.833 -2.5 61.5 -2.5c5.33301 0 9 1.33301 11 4zM393.001 228.998c0 3.33301 -0.166016 6.83105 -0.499023 10.498s-1.83301 6.5 -4.5 8.5c-2 1.33301 -7.83301 2.83301 -17.5 4.5s-21.167 3.33398 -34.5 5.00098
s-27.833 3.16699 -43.5 4.5s-30.5 2.33301 -44.5 3s-26.333 1.33398 -37 2.00098s-18 1 -22 1c-11.333 0 -21.166 -0.166992 -29.499 -0.5s-15.5 -2 -21.5 -5s-10.5 -8 -13.5 -15s-4.5 -17.167 -4.5 -30.5c0 -8.66699 4.33301 -13 13 -13c4 4.66699 11.667 8.16699 23 10.5
s23.666 4 36.999 5s26.166 1.66699 38.499 2s21.5 0.5 27.5 0.5c20 0 40.167 -0.833008 60.5 -2.5s40.833 -2.5 61.5 -2.5c5.33301 0 9 1.33301 11 4z" />
    <glyph glyph-name="greater" unicode="&#x3e;" horiz-adv-x="564" 
d="M626 355l-324 234l-22 -49l271 -196l-450 -198l-27 -69l534 237z" />
    <glyph glyph-name="question" unicode="?" horiz-adv-x="471" 
d="M687 666c0 28.667 -10.001 49.833 -30.001 63.5s-46.333 20.5 -79 20.5c-24 0 -49.333 -3.16699 -76 -9.5s-53.167 -14.166 -79.5 -23.499s-51.333 -19.833 -75 -31.5s-44.667 -22.667 -63 -33s-32.833 -19.5 -43.5 -27.5s-16 -13.333 -16 -16
c0 -5.33301 1.5 -10.333 4.5 -15s6.5 -8.83398 10.5 -12.501s7.83301 -6.66699 11.5 -9s6.5 -3.5 8.5 -3.5c2.66699 0 10.167 4 22.5 12l45 30c17.667 12 37.667 24.833 60 38.5s45 26.5 68 38.5s45.833 22 68.5 30s43.667 12 63 12c13.333 0 26.166 -3.5 38.499 -10.5
s18.5 -19.833 18.5 -38.5c0 -28 -7 -55.333 -21 -82s-32.333 -52.5 -55 -77.5s-48.167 -49.333 -76.5 -73l-85.5 -68.5l-83.5 -63.5c-27 -20.333 -51.167 -40 -72.5 -59s-38.5 -37.333 -51.5 -55s-19.5 -34.5 -19.5 -50.5c0 -13.333 3.16699 -23.666 9.5 -30.999
s13.5 -11 21.5 -11c-0.666992 20.667 5 41.5 17 62.5s28.167 41.833 48.5 62.5s43.833 41.5 70.5 62.5l82 64.5l92 71c30.667 24 58.334 48.667 83.001 74s44.834 51.166 60.501 77.499s23.5 53.5 23.5 81.5zM199.999 28.999c0 4 -1.66504 8.50098 -4.99805 13.501
s-7.33301 9.5 -12 13.5s-9.33398 7.5 -14.001 10.5s-8.33398 4.5 -11.001 4.5s-5.66699 -1.5 -9 -4.5s-6.5 -6.33301 -9.5 -10s-5.66699 -7.5 -8 -11.5s-3.5 -7 -3.5 -9c0 -3.33301 0.833008 -9.66602 2.5 -18.999s3.16699 -16 4.5 -20
c0.666992 -3.33301 3.5 -6.33301 8.5 -9s11.167 -4 18.5 -4c4.66699 0 9.33398 1.66699 14.001 5s8.66699 7.16602 12 11.499s6.16602 9.16602 8.49902 14.499s3.5 10 3.5 14z" />
    <glyph glyph-name="at" unicode="@" horiz-adv-x="924" 
d="M914 379c0 38 -6.66504 76.501 -19.998 115.501s-34.666 74.333 -63.999 106s-67.833 57.5 -115.5 77.5s-105.834 30 -174.501 30c-71.333 0 -135.833 -12.667 -193.5 -38s-107 -59 -148 -101s-72.667 -90.167 -95 -144.5s-33.5 -110.5 -33.5 -168.5
c0 -68.667 13.167 -127.667 39.5 -177s60.666 -89.833 102.999 -121.5s90 -55 143 -70s106.167 -22.5 159.5 -22.5c42 0 79.5 3.5 112.5 10.5s62.667 15.667 89 26s49.666 21.833 69.999 34.5s38.833 25 55.5 37l-16 15c-51.333 -38 -102.5 -64.167 -153.5 -78.5
s-101.167 -21.5 -150.5 -21.5c-69.333 0 -129.166 10.333 -179.499 31s-91.666 48 -123.999 82s-56.166 72.333 -71.499 115s-23 86 -23 130c0 72.667 11.667 136.5 35 191.5s54.833 101 94.5 138s85.167 65 136.5 84s105 28.5 161 28.5
c54.667 0 103.334 -7.83301 146.001 -23.5s78.667 -37.5 108 -65.5s51.666 -61.167 66.999 -99.5s23 -79.833 23 -124.5c0 -54 -8 -99.667 -24 -137s-35.167 -67.5 -57.5 -90.5s-45.333 -39.667 -69 -50s-42.834 -15.5 -57.501 -15.5c-22.667 0 -36.5 9.16699 -41.5 27.5
s-4.16699 44.5 2.5 78.5l84 294h-64l-27 -87c-6 22 -13.333 39.333 -22 52s-18 22.5 -28 29.5s-20 11.5 -30 13.5s-19 3 -27 3c-27.333 0 -54.833 -8.16699 -82.5 -24.5s-52.834 -37.5 -75.501 -63.5s-41.167 -55.167 -55.5 -87.5s-21.5 -64.5 -21.5 -96.5
c0 -26 3.66699 -48.833 11 -68.5s17.166 -36.334 29.499 -50.001s26.5 -24 42.5 -31s32.333 -10.5 49 -10.5c28 0 54.833 9 80.5 27s49.167 44 70.5 78c2 -21.333 6.16699 -38.833 12.5 -52.5s14 -24.5 23 -32.5s18.833 -13.5 29.5 -16.5s21.667 -4.5 33 -4.5
c35.333 0 67.5 9.5 96.5 28.5s53.667 43.833 74 74.5s36 65 47 103s16.5 75.667 16.5 113zM619.002 357.001c-0.666992 -23.333 -5.16797 -50.832 -13.501 -82.499s-20.166 -61.667 -35.499 -90s-34.166 -52.333 -56.499 -72s-47.833 -29.5 -76.5 -29.5
c-14 0 -26 3.5 -36 10.5s-18 15.833 -24 26.5s-10.333 22.5 -13 35.5s-4 25.167 -4 36.5c0 10.667 1.83301 25.167 5.5 43.5s9 37.833 16 58.5s15.333 41.667 25 63s20.667 40.666 33 57.999s25.5 31.333 39.5 42s28.667 16 44 16c17.333 0 32.166 -3.5 44.499 -10.5
s22.333 -16 30 -27s13.167 -23.333 16.5 -37s5 -27.5 5 -41.5z" />
    <glyph glyph-name="A" unicode="A" horiz-adv-x="788" 
d="M1069 759c0 4 -0.833008 9.83008 -2.5 17.4971s-5.5 11.5 -11.5 11.5c-8.66699 0 -24.5 -6.16699 -47.5 -18.5s-50.333 -28.833 -82 -49.5l-102 -70l-107.5 -79l-74.5 -59l-68 -54.5l-56.5 -47l-41 -35.5c-19.333 -0.666992 -36.5 -1.83398 -51.5 -3.50098l-50.5 -5.5
c-8 -0.666992 -22.5 -2.5 -43.5 -5.5s-44.833 -6.66699 -71.5 -11s-54.5 -9.33301 -83.5 -15s-55.5 -12 -79.5 -19s-43.833 -14.667 -59.5 -23s-23.5 -16.833 -23.5 -25.5c0 -7.33301 4.5 -13.666 13.5 -18.999s17.167 -8 24.5 -8c6.66699 0 15.834 2 27.501 6
s24 8.66699 37 14l37.5 16c12 5.33301 21.667 9.33301 29 12c20.667 6.66699 43.5 13.334 68.5 20.001s49.333 12.5 73 17.5s45.667 9.16699 66 12.5s36.5 5 48.5 5c-34 -30.667 -67.5 -63.167 -100.5 -97.5s-66.167 -67.166 -99.5 -98.499l-52.5 -51.5
c-17.667 -17.667 -35.834 -34.167 -54.501 -49.5c-1.33301 -1.33301 -4.66602 -3.83301 -9.99902 -7.5s-10.833 -7.83398 -16.5 -12.501l-15 -12.5c-4.33301 -3.66699 -6.5 -6.16699 -6.5 -7.5s1.16699 -2.5 3.5 -3.5s5.16602 -1.83301 8.49902 -2.5s6.33301 -1 9 -1h7
c10.667 0 20.5 3 29.5 9s17.167 12 24.5 18c20 15.333 39.167 32.833 57.5 52.5l53.5 55.5l107.5 105.5l108.5 103.5c38 3.33301 78.5 5.16602 121.5 5.49902s82.833 -0.166992 119.5 -1.5c-6.66699 -8.66699 -17.167 -24.167 -31.5 -46.5l-48 -78.5l-54.5 -97
c-18.667 -34.667 -35.834 -68.167 -51.501 -100.5s-28.5 -62.166 -38.5 -89.499s-15 -49 -15 -65c0 -4.66699 0.5 -10.5 1.5 -17.5s2.66699 -13.833 5 -20.5s5.5 -12.334 9.5 -17.001s9.33301 -7 16 -7c4 0 7.33301 2.33301 10 7c10 22.667 23.333 48.834 40 78.501
s34.667 59.834 54 90.501c20 32.667 40 63.667 60 93s37.333 53 52 71c0 1.33301 -0.5 2.83301 -1.5 4.5s-1.83301 2.5 -2.5 2.5c-18 -12 -34.833 -26.333 -50.5 -43s-29.5 -33.667 -41.5 -51h-3c24.667 48 48 95.833 70 143.5s47.333 94.167 76 139.5
c11.333 -0.666992 22.333 -1.16699 33 -1.5s21.667 -1.16602 33 -2.49902l-10 18l-47 5l59 86.5l61 84.5l15.5 20l27 34.5l32.5 41.5l32 41l25 32.5c6.66699 9 10.334 14.5 11.001 16.5c2.66699 6.66699 4.66699 13 6 19s2 12.667 2 20zM980 700.997l-22.5 -30.5l-38.5 -53
l-47.5 -66l-49.5 -70l-44.5 -64.5c-13.667 -20 -24.5 -36.333 -32.5 -49c-34.667 2 -70.5 3.5 -107.5 4.5s-72.833 1.5 -107.5 1.5l46.5 37.5l80 63.5l97 74.5l98 71.5c31 22 58.167 40.5 81.5 55.5s39 23.167 47 24.5z" />
    <glyph glyph-name="B" unicode="B" horiz-adv-x="657" 
d="M909 626c0 20 -2.66895 39.3389 -8.00195 58.0059s-15.333 35.167 -30 49.5s-35 25.666 -61 33.999s-59.667 12.5 -101 12.5c-45.333 0 -93.333 -6.5 -144 -19.5s-101 -29.667 -151 -50s-98 -42.5 -144 -66.5s-86.5 -47.333 -121.5 -70s-63 -43 -84 -61
s-31.5 -30.667 -31.5 -38c0 -10.667 3.33301 -19.5 10 -26.5s13.667 -10.5 21 -10.5c6.66699 0 15.667 1.83301 27 5.5s23.833 8.83398 37.5 15.501l44 22.5l47.5 26.5l57 35c18.667 12 35.5 23.333 50.5 34s27.667 20 38 28s16.833 13.667 19.5 17
c-0.666992 4 -2.66699 6.33301 -6 7s-6.66602 0.666992 -9.99902 0c-4 -2 -11.167 -6.33301 -21.5 -13l-38 -23.5l-48.5 -29l-53 -30.5c-28 -16 -54 -29.667 -78 -41s-40.667 -17 -50 -17c-4.66699 0 -7 1.66699 -7 5s6.66699 9.66602 20 18.999s31.333 20.5 54 33.5
s49.334 27.167 80.001 42.5s63.667 30.833 99 46.5s72 30.834 110 45.501s75.333 27.667 112 39l-55.5 -62l-79 -90.5l-92 -108.5l-94.5 -116l-71.5 -94c-23.667 -32.667 -44.667 -63.334 -63 -92.001s-33.333 -53.834 -45 -75.501s-17.5 -36.834 -17.5 -45.501
c0 -5.33301 1.16699 -11.666 3.5 -18.999s5.5 -14.5 9.5 -21.5s8.5 -12.833 13.5 -17.5s10.167 -7 15.5 -7c4.66699 0 11.834 7.16699 21.501 21.5s19.667 30.5 30 48.5s19.666 35 27.999 51s13.5 25.667 15.5 29c0 5.33301 -2.33301 7.33301 -7 6
c-2 -1.33301 -5.5 -4.5 -10.5 -9.5l-16 -16.5l-15.5 -17c-4.66699 -5.33301 -8 -9 -10 -11l-3 2c0 2 5.5 11.167 16.5 27.5s26.333 37.666 46 63.999l69 90.5l86.5 108c36.667 44.667 72.5 86.167 107.5 124.5l92.5 100.5l64.5 69c16.333 17.333 24.5 27.333 24.5 30
c0 4.66699 -1.5 12.167 -4.5 22.5s-6.16699 18.166 -9.5 23.499c30 7.33301 58.333 13.333 85 18s51.334 7 74.001 7c16 0 31.667 -1.66699 47 -5s29 -8 41 -14s21.5 -13.5 28.5 -22.5s10.5 -18.833 10.5 -29.5c0 -23.333 -8.83301 -48.5 -26.5 -75.5
s-40.334 -54 -68.001 -81s-58.834 -52.833 -93.501 -77.5s-69 -46.667 -103 -66s-66 -34.666 -96 -45.999s-54 -17 -72 -17c-15.333 0 -31.333 -1.83301 -48 -5.5s-32 -8 -46 -13s-25.5 -10.167 -34.5 -15.5s-13.5 -9.66602 -13.5 -12.999c0 -7.33301 2.66699 -12 8 -14
s12.333 -3 21 -3c4.66699 0 10.834 1.66699 18.501 5l26.5 11c10 4 20.667 7.66699 32 11s22.666 5 33.999 5c42 0 75 -6.66699 99 -20s36 -28.333 36 -45c0 -18.667 -9.83301 -38 -29.5 -58s-44 -38.167 -73 -54.5s-60.167 -29.833 -93.5 -40.5s-63.666 -16 -90.999 -16
c-23.333 0 -39 2.83301 -47 8.5s-12 12.5 -12 20.5c0 9.33301 2.66699 18.5 8 27.5s9.66602 15.167 12.999 18.5c0 2 -0.666992 3.83301 -2 5.5s-3 2.16699 -5 1.5c-2 -2 -5.16699 -4.83301 -9.5 -8.5s-8.66602 -8 -12.999 -13s-8.16602 -10.833 -11.499 -17.5
s-5 -13.334 -5 -20.001c0 -7.33301 3 -15 9 -23s14 -15.667 24 -23s21.5 -13.333 34.5 -18s26.5 -7 40.5 -7c27.333 0 57.5 4.33301 90.5 13s64 21 93 37s53.333 35.167 73 57.5s29.5 47.166 29.5 74.499c0 29.333 -6.66699 53.5 -20 72.5s-30 32.833 -50 41.5
c26 6.66699 53.833 15.667 83.5 27s59.167 24.5 88.5 39.5s57.666 32.167 84.999 51.5s51.5 40.166 72.5 62.499s37.667 46.166 50 71.499s18.5 52 18.5 80z" />
    <glyph glyph-name="C" unicode="C" horiz-adv-x="613" 
d="M947 697c0 8.66699 -1.16895 17.8359 -3.50195 27.5029s-7 18.334 -14 26.001s-17 14 -30 19s-30.5 7.5 -52.5 7.5c-32.667 0 -69.5 -6.5 -110.5 -19.5s-84 -31.167 -129 -54.5s-90.833 -50.666 -137.5 -81.999s-92 -65.166 -136 -101.499s-85.333 -74.5 -124 -114.5
s-72.334 -80.167 -101.001 -120.5s-51.334 -80 -68.001 -119s-25 -75.833 -25 -110.5c0 -20 3.16699 -37.333 9.5 -52s14.5 -26.667 24.5 -36s21.167 -16.166 33.5 -20.499s24.833 -6.5 37.5 -6.5c30 0 61 3.83301 93 11.5s63.5 17.334 94.5 29.001s60.5 24.667 88.5 39
s53.167 28 75.5 41s40.833 24.5 55.5 34.5s24.334 17 29.001 21c2.66699 3.33301 2.83398 6.5 0.500977 9.5s-5.83301 4.5 -10.5 4.5c-4 -3.33301 -12.667 -9.5 -26 -18.5s-30.166 -19.333 -50.499 -31s-43.5 -24 -69.5 -37s-53.5 -24.833 -82.5 -35.5s-59 -19.5 -90 -26.5
s-61.5 -10.5 -91.5 -10.5c-28 0 -48.5 8.16699 -61.5 24.5s-19.5 36.5 -19.5 60.5c0 26.667 8.66699 57 26 91s40.833 69.333 70.5 106s64.334 74.167 104.001 112.5s81.834 75.166 126.501 110.499s90.334 68.666 137.001 99.999s92.167 58.666 136.5 81.999
s86 41.833 125 55.5s72.833 20.5 101.5 20.5c30 0 45 -10.333 45 -31c0 -14 -6 -29.333 -18 -46s-25.5 -32.334 -40.5 -47.001s-29.167 -27 -42.5 -37s-21.333 -15 -24 -15s-4.66699 0.5 -6 1.5s-2.66602 2.33301 -3.99902 4s-3 3 -5 4s-5 1.5 -9 1.5
c-4.66699 0 -13.667 -4.16699 -27 -12.5s-28.5 -18.833 -45.5 -31.5s-34.833 -26.834 -53.5 -42.501s-35.834 -30.834 -51.501 -45.501s-28.5 -27.834 -38.5 -39.501s-15 -19.834 -15 -24.501c0 -9.33301 3.16699 -16.833 9.5 -22.5s13.166 -8.5 20.499 -8.5
c6 0 19.333 6.5 40 19.5s44.667 29.833 72 50.5s56.166 44 86.499 70s58 52.167 83 78.5s45.833 51.5 62.5 75.5s25 44.333 25 61z" />
    <glyph glyph-name="D" unicode="D" horiz-adv-x="698" 
d="M912 624c0 22.667 -3.67285 43.6689 -11.0059 63.002s-19.166 35.833 -35.499 49.5s-37.333 24.334 -63 32.001s-56.834 11.5 -93.501 11.5c-45.333 0 -93.333 -6.5 -144 -19.5s-101 -29.667 -151 -50s-98 -42.5 -144 -66.5s-86.5 -47.333 -121.5 -70s-63 -43 -84 -61
s-31.5 -30.667 -31.5 -38c0 -10.667 3.33301 -19.5 10 -26.5s13.667 -10.5 21 -10.5c6.66699 0 15.667 1.83301 27 5.5s23.833 8.83398 37.5 15.501l44 22.5l47.5 26.5l57 35c18.667 12 35.5 23.333 50.5 34s27.667 20 38 28s16.833 13.667 19.5 17
c-0.666992 4 -2.66699 6.33301 -6 7s-6.66602 0.666992 -9.99902 0c-4 -2 -11.167 -6.33301 -21.5 -13l-38 -23.5l-48.5 -29l-53 -30.5c-28 -16 -54 -29.667 -78 -41s-40.667 -17 -50 -17c-4.66699 0 -7 1.66699 -7 5s6.66699 9.66602 20 18.999s31.333 20.5 54 33.5
s49.334 27.167 80.001 42.5s63.667 30.833 99 46.5s72 30.834 110 45.501s75.333 27.667 112 39l-55.5 -62l-79 -90.5l-92 -108.5l-94.5 -116l-71.5 -94c-23.667 -32.667 -44.667 -63.334 -63 -92.001s-33.333 -53.834 -45 -75.501s-17.5 -36.834 -17.5 -45.501
c0 -5.33301 1.16699 -11.666 3.5 -18.999s5.5 -14.5 9.5 -21.5s8.5 -12.833 13.5 -17.5s10.167 -7 15.5 -7c4.66699 0 11.834 7.16699 21.501 21.5s19.667 30.5 30 48.5s19.666 35 27.999 51s13.5 25.667 15.5 29c0 5.33301 -2.33301 7.33301 -7 6
c-2 -1.33301 -5.5 -4.5 -10.5 -9.5l-16 -16.5l-15.5 -17c-4.66699 -5.33301 -8 -9 -10 -11l-3 2c0 2 5.5 11.167 16.5 27.5s26.333 37.666 46 63.999l69 90.5l86.5 108c36.667 44.667 72.5 86.167 107.5 124.5l92.5 100.5l64.5 69c16.333 17.333 24.5 27.333 24.5 30
c0 4.66699 -1.5 12.167 -4.5 22.5s-6.16699 18.166 -9.5 23.499c30 7.33301 58.333 13.333 85 18s51.334 7 74.001 7c46 0 79 -8.83301 99 -26.5s30 -41.5 30 -71.5c0 -32.667 -10.167 -70 -30.5 -112s-47.333 -85.333 -81 -130s-72.167 -88.5 -115.5 -131.5
s-87.833 -81.5 -133.5 -115.5s-90.667 -61.333 -135 -82s-84.166 -31 -119.499 -31c-23.333 0 -39 2.83301 -47 8.5s-12 12.5 -12 20.5c0 9.33301 2.66699 18.5 8 27.5s9.66602 15.167 12.999 18.5c0 2 -0.666992 3.83301 -2 5.5s-3 2.16699 -5 1.5
c-2 -2 -5.16699 -4.83301 -9.5 -8.5s-8.66602 -8 -12.999 -13s-8.16602 -10.833 -11.499 -17.5s-5 -13.334 -5 -20.001c0 -7.33301 3 -15 9 -23s14 -15.667 24 -23s21.5 -13.333 34.5 -18s26.5 -7 40.5 -7c42.667 0 87.5 10.167 134.5 30.5s93.333 47.333 139 81
s89.167 72.334 130.5 116.001s77.833 88.667 109.5 135s56.834 92.333 75.501 138s28 87.5 28 125.5z" />
    <glyph glyph-name="E" unicode="E" horiz-adv-x="607" 
d="M918 722c0 8.66699 -4.66797 15.168 -14.001 19.501s-20 7.33301 -32 9s-24 2.5 -36 2.5h-24c-55.333 0 -110.333 -2.5 -165 -7.5s-109 -11.5 -163 -19.5l-23 4l-13 -9c-10.667 -2 -22.167 -3.83301 -34.5 -5.5s-24.833 -3.5 -37.5 -5.5s-25.167 -4.16699 -37.5 -6.5
s-23.5 -5.16602 -33.5 -8.49902c-8 -2 -12 -6.66699 -12 -14s1.66699 -12.333 5 -15s9 -4 17 -4c15.333 0 31.5 1.66699 48.5 5s33.167 6 48.5 8l-39.5 -60l-58.5 -91.5l-65.5 -104.5l-60.5 -98c-3.33301 -0.666992 -8.33301 -1.33398 -15 -2.00098
s-13.5 -1.83398 -20.5 -3.50098s-13 -3.66699 -18 -6s-7.5 -5.5 -7.5 -9.5c0 -6 1.33301 -10 4 -12s7 -3 13 -3c4 0 8.16699 0.5 12.5 1.5s8.5 1.83301 12.5 2.5c-2 -4 -6.33301 -11.667 -13 -23l-23.5 -40l-28 -49l-26.5 -48.5c-8 -15 -14.667 -28 -20 -39
s-8 -17.833 -8 -20.5c0 -5.33301 1.66699 -13.166 5 -23.499s7.66602 -20.5 12.999 -30.5s11.333 -18.667 18 -26s13 -11 19 -11c24.667 0 54.834 2.33301 90.501 7s73.5 10.667 113.5 18s80.167 16 120.5 26s78.166 20 113.499 30c2 2.66699 3 6 3 10
c0 11.333 -4.66699 19 -14 23c-14.667 -4 -33.5 -8.33301 -56.5 -13s-48.167 -9.33398 -75.5 -14.001l-84.5 -14c-29 -4.66699 -56.667 -8.83398 -83 -12.501s-50.166 -6.66699 -71.499 -9s-37.666 -3.5 -48.999 -3.5c-8.66699 0 -13 4 -13 12c0 4 3.33301 12.667 10 26
s15.167 28.833 25.5 46.5l34.5 57l36 57.5l30.5 47.5l18.5 28.5l173.5 19c58.333 6.66699 116.5 10 174.5 10h11c5.33301 0 8 0.666992 8 2c0 6.66699 -3.66699 11.834 -11 15.501s-15.833 6.33398 -25.5 8.00098s-19.167 2.5 -28.5 2.5h-20
c-43.333 0 -86.5 -1.83301 -129.5 -5.5s-85.833 -8.16699 -128.5 -13.5l71 111l71 111l39 61c14 21.333 24.667 42.666 32 63.999l99 10.5c34 3.66699 68.333 7.16699 103 10.5s69 6 103 8s66.667 3 98 3h14c6.66699 0 10 1.33301 10 4z" />
    <glyph glyph-name="F" unicode="F" horiz-adv-x="519" 
d="M700 664c0 40.667 -12.832 71.001 -38.499 91.001s-71.5 30 -137.5 30c-34.667 0 -71.5 -4.66699 -110.5 -14s-77.667 -21.333 -116 -36s-75 -30.834 -110 -48.501s-65.833 -34.667 -92.5 -51s-48 -31 -64 -44s-24 -21.833 -24 -26.5
c0 -3.33301 1.33301 -6.83301 4 -10.5s6 -7.33398 10 -11.001s8 -6.66699 12 -9s7.66699 -3.5 11 -3.5c2.66699 0 10 3.66699 22 11s24.5 15.5 37.5 24.5l36 25.5c11 8 17.167 13 18.5 15c3.33301 3.33301 4.83301 8 4.5 14s-0.5 10.667 -0.5 14c0 2 5.33301 6.66699 16 14
s25.334 15.5 44.001 24.5s40.5 18.5 65.5 28.5s51.667 19.333 80 28s57.666 15.667 87.999 21s59.833 8 88.5 8c22 0 40.833 -2.16699 56.5 -6.5s28.667 -10 39 -17s17.833 -14.667 22.5 -23s7 -16.833 7 -25.5c0 -11.333 -5.83301 -28.166 -17.5 -50.499
s-27 -48.333 -46 -78s-40.833 -62 -65.5 -97l-77 -105.5c-36.667 -2.66699 -73.334 -6.66699 -110.001 -12l-110 -16c-20.667 -2.66699 -41.334 -5 -62.001 -7s-41 -4.66699 -61 -8c-7.33301 -2 -11 -6.33301 -11 -13c0 -5.33301 1.33301 -8.83301 4 -10.5
s6.66699 -2.5 12 -2.5c15.333 0 31 1.5 47 4.5s31.667 5.16699 47 6.5c33.333 4 66.333 7.5 99 10.5l99 9.5l20 2l-79.5 -103.5l-69.5 -88l-50.5 -62.5c-13 -16 -20.167 -24.667 -21.5 -26c-6 -7.33301 -12 -12.833 -18 -16.5s-9 -9.16699 -9 -16.5
c0 -6.66699 3.66699 -14 11 -22s15.666 -12 24.999 -12c3.33301 0 9 2.66699 17 8s17.167 12.333 27.5 21l32.5 27.5c11.333 9.66699 21.5 19.167 30.5 28.5l22.5 24c6 6.66699 9 11 9 13c0 6 -1 11.667 -3 17s-3 9.66602 -3 12.999c0 2 3.83301 8.33301 11.5 19l30 40
l41 53l43.5 58l11 15l13 17c16.667 1.33301 33 2.33301 49 3s32.333 1 49 1h10c6 0 9 1 9 3c0 6.66699 -3.5 11.834 -10.5 15.501s-15.167 6.16699 -24.5 7.5s-18.666 2 -27.999 2h-20h-10l55.5 75.5c19.667 27.667 37.834 55.167 54.501 82.5s30.5 53.833 41.5 79.5
s16.5 48.167 16.5 67.5z" />
    <glyph glyph-name="G" unicode="G" horiz-adv-x="650" 
d="M832 697c0 8.66699 -1.16895 17.8418 -3.50195 27.5088s-7 18.334 -14 26.001s-17 14 -30 19s-30.5 7.5 -52.5 7.5c-43.333 0 -89.5 -10.333 -138.5 -31s-97.5 -47.834 -145.5 -81.501s-94.167 -72 -138.5 -115s-83.333 -86.667 -117 -131s-60.5 -87.666 -80.5 -129.999
s-30 -79.5 -30 -111.5c0 -20 3.16699 -37.333 9.5 -52s14.5 -26.667 24.5 -36s21.167 -16.166 33.5 -20.499s24.833 -6.5 37.5 -6.5c36 0 73.167 5.33301 111.5 16s75.333 23.667 111 39s68.667 31.5 99 48.5s55.166 31.833 74.499 44.5
c-4.66699 -10 -11.667 -23.5 -21 -40.5l-30.5 -53l-32.5 -53.5c-10.667 -17.333 -19.667 -31 -27 -41c-24 3.33301 -54 1.83301 -90 -4.5s-74.167 -16.666 -114.5 -30.999s-80.666 -31.833 -120.999 -52.5s-76.5 -43.5 -108.5 -68.5s-58.167 -52 -78.5 -81
s-30.5 -58.5 -30.5 -88.5c0 -14 2.66699 -25.833 8 -35.5s12 -17.667 20 -24s16.667 -10.833 26 -13.5s18.333 -4 27 -4c50 0 99.333 11.167 148 33.5s95.334 51.5 140.001 87.5s86 76.5 124 121.5s71.333 89.833 100 134.5c8.66699 -3.33301 15.334 -8 20.001 -14
s8.66699 -11.667 12 -17c4 -1.33301 7.66699 -0.833008 11 1.5s5 5.16602 5 8.49902c-3.33301 6.66699 -7.66602 13.667 -12.999 21s-13 13.666 -23 18.999c9.33301 13.333 19.833 29.166 31.5 47.499s23.167 37.666 34.5 57.999l33 61c10.667 20.333 20 39.166 28 56.499
c1.33301 2.66699 3.66602 5 6.99902 7s6.83301 4.33301 10.5 7s6.83398 5.66699 9.50098 9s4 7.66602 4 12.999c0 3.33301 -5 6.66602 -15 9.99902s-24.667 5 -44 5c-5.33301 0 -9.83301 -1.33301 -13.5 -4s-7.16699 -6 -10.5 -10s-6.66602 -8.33301 -9.99902 -13
s-7.33301 -8.66699 -12 -12c-8.66699 -6.66699 -26.334 -18.667 -53.001 -36s-58.167 -35 -94.5 -53s-75.166 -33.833 -116.499 -47.5s-81.333 -20.5 -120 -20.5c-28.667 0 -49.334 8.16699 -62.001 24.5s-19 36.5 -19 60.5c0 26 10.667 57.667 32 95
s49.5 76.666 84.5 117.999s75 82.333 120 123s91.5 77.334 139.5 110.001s95.333 59.167 142 79.5s89.334 30.5 128.001 30.5c30 0 45 -10.333 45 -31c0 -14 -6 -29.333 -18 -46s-25.5 -32.334 -40.5 -47.001s-29.167 -27 -42.5 -37s-21.333 -15 -24 -15
s-4.66699 0.5 -6 1.5s-2.66602 2.33301 -3.99902 4s-3 3 -5 4s-5 1.5 -9 1.5c-4.66699 0 -13.667 -4.16699 -27 -12.5s-28.5 -18.833 -45.5 -31.5s-34.833 -26.834 -53.5 -42.501s-35.834 -30.834 -51.501 -45.501s-28.5 -27.834 -38.5 -39.501s-15 -19.834 -15 -24.501
c0 -9.33301 3.16699 -16.833 9.5 -22.5s13.166 -8.5 20.499 -8.5c6 0 19.333 6.5 40 19.5s44.667 29.833 72 50.5s56.166 44 86.499 70s58 52.167 83 78.5s45.833 51.5 62.5 75.5s25 44.333 25 61zM456.998 -0.992188c-15.333 -22.667 -33.3291 -47.334 -53.9961 -74.001
s-43.334 -53.5 -68.001 -80.5s-50.834 -52.833 -78.501 -77.5s-56 -46.667 -85 -66s-57.833 -34.666 -86.5 -45.999s-56.334 -17 -83.001 -17c-22.667 0 -37.167 5.33301 -43.5 16s-9.5 22 -9.5 34c0 26 9.33301 52 28 78s43 50.833 73 74.5s63.833 45.5 101.5 65.5
s75.167 37.167 112.5 51.5s73.166 25.333 107.499 33s62.833 10.5 85.5 8.5z" />
    <glyph glyph-name="H" unicode="H" horiz-adv-x="754" 
d="M945 565c0 8 -1.66699 14.667 -5 20s-7.66602 8 -12.999 8c-3.33301 0 -10.666 -5.83301 -21.999 -17.5s-25 -27.334 -41 -47.001l-53.5 -67.5l-60.5 -80c-11.333 0.666992 -23.166 1.16699 -35.499 1.5s-25.833 0.5 -40.5 0.5c-28.667 0 -59.334 -2.16699 -92.001 -6.5
s-66 -9.83301 -100 -16.5l41.5 63.5c13.667 21.667 25.834 43.167 36.501 64.5s19.334 41.833 26.001 61.5s10 38.167 10 55.5c0 32 -7.83301 58 -23.5 78s-41.5 30 -77.5 30c-27.333 0 -57 -4.83301 -89 -14.5s-64.5 -21.667 -97.5 -36s-64.833 -30.333 -95.5 -48
s-57.834 -34.334 -81.501 -50.001s-42.667 -29.5 -57 -41.5s-21.5 -20 -21.5 -24c0 -3.33301 1.33301 -7.16602 4 -11.499s6 -8.66602 10 -12.999s8 -8 12 -11s7.66699 -4.5 11 -4.5c2.66699 0 10 3.66699 22 11s24.5 15.5 37.5 24.5l36 25.5c11 8 17.167 13 18.5 15
c3.33301 4 4.83301 9 4.5 15s-0.5 10.667 -0.5 14c0 0.666992 5 4.16699 15 10.5s23.333 13.833 40 22.5s35.5 17.834 56.5 27.501s42.833 18.667 65.5 27s44.834 15.333 66.501 21s41.5 8.5 59.5 8.5c16 0 29 -2.33301 39 -7s15 -12.667 15 -24s-4.5 -27.5 -13.5 -48.5
s-21.5 -45.167 -37.5 -72.5s-34.5 -57.166 -55.5 -89.499l-67.5 -99.5l-69.5 -17.5l-57.5 -15.5c-16.667 -4.66699 -30.334 -8.33398 -41.001 -11.001s-17 -4 -19 -4c-8 0 -14.333 0.666992 -19 2s-10.667 2 -18 2c-15.333 0 -23 -5.33301 -23 -16
c0 -5.33301 3.16699 -9.66602 9.5 -12.999s17.166 -5 32.499 -5c14.667 0 38 4.66699 70 14s69.333 19.666 112 30.999l-112.5 -154.5l-105 -138l-78.5 -101c-20.667 -26.333 -32 -40.5 -34 -42.5c-6 -7.33301 -12 -13 -18 -17s-9 -9.33301 -9 -16
c0 -7.33301 3.5 -14.833 10.5 -22.5s15.5 -11.5 25.5 -11.5c4.66699 0 14.5 5.83301 29.5 17.5s30.667 24.667 47 39s30.833 28 43.5 41s19 21.167 19 24.5c0 6 -1 11.5 -3 16.5s-3 9.5 -3 13.5c0 1.33301 3.66699 7 11 17l28.5 38l39.5 52l44 58l42.5 56l34.5 46
c9.33301 13.333 21.166 29.166 35.499 47.499l45.5 60.5c38 8.66699 76.5 16 115.5 22s77.5 9 115.5 9h21c7.33301 0 14.666 -0.333008 21.999 -1l-23 -30c-24 -32 -46.167 -63.333 -66.5 -94s-37.833 -58.834 -52.5 -84.501s-26.167 -48.167 -34.5 -67.5
s-12.5 -34 -12.5 -44c0 -9.33301 2.83301 -15.833 8.5 -19.5s11.167 -5.5 16.5 -5.5c6 0 12.333 3.83301 19 11.5s12 14.167 16 19.5c6 8.66699 14.167 19 24.5 31l31.5 36l30 32.5c9.33301 9.66699 16 16.167 20 19.5c0 7.33301 -3.66699 11 -11 11l-17.5 -14.5
c-7.66699 -6.33301 -15.5 -13.166 -23.5 -20.499l-22.5 -20.5c-7 -6.33301 -11.5 -10.5 -13.5 -12.5l-3 2c0.666992 2 3 6.5 7 13.5l15 25.5l20 32.5c7.33301 11.667 15 23.167 23 34.5l51 67.5l60 74.5c17.333 -0.666992 32.666 -1.5 45.999 -2.5s22 -2.16699 26 -3.5
c3.33301 1.33301 5.33301 3.83301 6 7.5s0 6.16699 -2 7.5c-9.33301 3.33301 -29.666 6.33301 -60.999 9l36.5 44l31.5 37.5l23.5 27.5c6.33301 7.33301 10.5 12.333 12.5 15c8.66699 9.33301 15.667 20.333 21 33s8 23 8 31z" />
    <glyph glyph-name="I" unicode="I" horiz-adv-x="363" 
d="M582 677c0 32 -7.83008 57.999 -23.4971 77.999s-41.5 30 -77.5 30c-26.667 0 -56.167 -4.83301 -88.5 -14.5s-64.833 -21.667 -97.5 -36s-64.334 -30.333 -95.001 -48s-58 -34.334 -82 -50.001s-43.167 -29.5 -57.5 -41.5s-21.5 -20 -21.5 -24
c0 -3.33301 1.33301 -7.16602 4 -11.499s6 -8.66602 10 -12.999s8 -8 12 -11s7.66699 -4.5 11 -4.5c2.66699 0 10 3.66699 22 11s24.5 15.5 37.5 24.5l36 25.5c11 8 17.167 13 18.5 15c3.33301 3.33301 4.83301 8 4.5 14s-0.5 10.667 -0.5 14c0 0.666992 5 4.16699 15 10.5
s23.333 13.833 40 22.5l56.5 28c21 10 42.833 19.167 65.5 27.5s44.834 15.333 66.501 21s41.5 8.5 59.5 8.5c16 0 29 -2.66699 39 -8s15 -16.666 15 -33.999c0 -11.333 -6.33301 -29.5 -19 -54.5s-29.334 -54 -50.001 -87s-44.334 -68.833 -71.001 -107.5l-82 -116
l-82.5 -112l-72.5 -96.5l-53 -69c-14 -17.667 -21.667 -27.167 -23 -28.5c-6 -7.33301 -12 -12.833 -18 -16.5s-9 -9.16699 -9 -16.5c0 -6.66699 3.66699 -14 11 -22s15.666 -12 24.999 -12c3.33301 0 9 2.66699 17 8s17.167 12.333 27.5 21l32.5 27.5
c11.333 9.66699 21.5 19.167 30.5 28.5l22.5 24c6 6.66699 9 11 9 13c0 6 -1 11.667 -3 17s-3 9.66602 -3 12.999c0 2 3.83301 8.33301 11.5 19l30 40l41 53l43.5 58l35.5 47l45.5 61l48 69c16 24 30.5 48 43.5 72s23.5 47.333 31.5 70s12 43.667 12 63z" />
    <glyph glyph-name="J" unicode="J" horiz-adv-x="718" 
d="M875 655c0 12.667 -1.3291 25.834 -3.99609 39.501s-7.16699 26 -13.5 37s-14.833 20.167 -25.5 27.5s-24.334 11 -41.001 11c-40.667 0 -79.834 -9.33301 -117.501 -28s-72.667 -42.167 -105 -70.5s-61.833 -59.666 -88.5 -93.999s-49.334 -67.166 -68.001 -98.499
s-33.167 -59 -43.5 -83s-15.5 -40.333 -15.5 -49c0 -4.66699 2.83301 -9.5 8.5 -14.5s11.834 -7.5 18.501 -7.5c7.33301 0 16 4.5 26 13.5s20.667 20.333 32 34s22.5 28.834 33.5 45.501s21 33 30 49s16.167 30.5 21.5 43.5s8 22.833 8 29.5s-1.16699 10.5 -3.5 11.5
s-5.16602 1.16699 -8.49902 0.5c-2 0 -4 0.166992 -6 0.5s-3 2.5 -3 6.5s3.83301 11.5 11.5 22.5s18.167 23.5 31.5 37.5s28.833 28.5 46.5 43.5s36.667 28.667 57 41s41 22.5 62 30.5s41.833 12 62.5 12c11.333 0 20.666 -3.83301 27.999 -11.5s11 -18.5 11 -32.5
c0 -18.667 -3.83301 -41.834 -11.5 -69.501s-17.834 -57.334 -30.501 -89.001s-26.834 -64.334 -42.501 -98.001s-31.334 -65.667 -47.001 -96l-45 -83.5c-14.333 -25.333 -26.5 -45.333 -36.5 -60c-92 -5.33301 -176.333 -24.5 -253 -57.5s-144 -73.167 -202 -120.5
c-32 -26.667 -60.5 -54.5 -85.5 -83.5s-46.333 -58 -64 -87s-31 -57.167 -40 -84.5s-13.5 -53 -13.5 -77c0 -14 2.5 -25.833 7.5 -35.5s11.333 -17.667 19 -24s16 -10.833 25 -13.5s17.833 -4 26.5 -4c23.333 0 49.166 5.66699 77.499 17s57.833 27 88.5 47
s62.167 43.5 94.5 70.5s64.333 56.167 96 87.5s62.5 64 92.5 98s58 67.667 84 101c16 20.667 32.167 42.834 48.5 66.501l49.5 73.5c8 -3.33301 14.333 -8 19 -14l13 -17c3.33301 -1.33301 6.83301 -0.833008 10.5 1.5s5.16699 5.16602 4.5 8.49902
c-3.33301 6.66699 -7.66602 13.667 -12.999 21s-12.666 13.666 -21.999 18.999l73.5 122c24.333 42 46.333 83 66 123s35.5 78.167 47.5 114.5s18 68.5 18 96.5zM592.004 183l-18.499 -28.499l-19.5 -29.5c-26.667 -40 -56 -79.667 -88 -119s-65 -77 -99 -113
s-68 -69.5 -102 -100.5s-66.333 -58 -97 -81s-58.834 -41 -84.501 -54s-47.167 -19.5 -64.5 -19.5c-22.667 0 -37.167 5.33301 -43.5 16s-9.5 22 -9.5 34c0 20 5.33301 42 16 66s25.5 49 44.5 75s41.5 52.5 67.5 79.5s54.667 53.167 86 78.5
c30.667 24.667 63 48.167 97 70.5s68.667 42.333 104 60s70.833 32.167 106.5 43.5s70.5 18.666 104.5 21.999z" />
    <glyph glyph-name="K" unicode="K" horiz-adv-x="697" 
d="M985 733c0 6 -1.49805 11.8291 -4.49805 17.4961s-6.66699 10.834 -11 15.501s-8.83301 8.33398 -13.5 11.001s-8.66699 4 -12 4c0 -33.333 -6.83301 -68.166 -20.5 -104.499s-32.667 -72.166 -57 -107.499s-53.666 -69 -87.999 -101s-72.166 -60.333 -113.499 -85
s-85.833 -44.167 -133.5 -58.5s-96.834 -21.5 -147.501 -21.5c-13.333 0 -24.333 1 -33 3l38 49.5l45 61l45.5 67c15 23 28.333 45.833 40 68.5s21.167 44.667 28.5 66s11 41 11 59c0 32 -7.83301 58 -23.5 78s-41.5 30 -77.5 30c-26.667 0 -56.167 -4.83301 -88.5 -14.5
s-64.833 -21.667 -97.5 -36s-64.334 -30.333 -95.001 -48s-58 -34.334 -82 -50.001s-43.167 -29.5 -57.5 -41.5s-21.5 -20 -21.5 -24c0 -3.33301 1.33301 -7.16602 4 -11.499s6 -8.66602 10 -12.999s8 -8 12 -11s7.66699 -4.5 11 -4.5c2.66699 0 10 3.66699 22 11
s24.5 15.5 37.5 24.5l36 25.5c11 8 17.167 13 18.5 15c3.33301 3.33301 4.83301 8 4.5 14s-0.5 10.667 -0.5 14c0 0.666992 5 4.16699 15 10.5s23.333 13.833 40 22.5l56.5 28c21 10 42.833 19.167 65.5 27.5s44.834 15.333 66.501 21s41.5 8.5 59.5 8.5
c16 0 29 -2.66699 39 -8s15 -16.666 15 -33.999c0 -11.333 -6.33301 -29.5 -19 -54.5s-29.334 -54 -50.001 -87s-44.334 -68.833 -71.001 -107.5l-82 -116l-82.5 -112l-72.5 -96.5l-53 -69c-14 -17.667 -21.667 -27.167 -23 -28.5c-6 -7.33301 -12 -12.833 -18 -16.5
s-9 -9.16699 -9 -16.5c0 -6.66699 3.66699 -14 11 -22s15.666 -12 24.999 -12c3.33301 0 9 2.66699 17 8s17.167 12.333 27.5 21l32.5 27.5c11.333 9.66699 21.5 19.167 30.5 28.5l22.5 24c6 6.66699 9 11 9 13c0 6 -1 11.667 -3 17s-3 9.66602 -3 12.999
c0 1.33301 2.5 5.66602 7.5 12.999s11.833 16.5 20.5 27.5l29 38l34 44.5c6.66699 -28 15.167 -57.167 25.5 -87.5s23.166 -58.166 38.499 -83.499s33.333 -46.166 54 -62.499s44 -24.5 70 -24.5c12.667 0 24.834 2.83301 36.501 8.5s22 12.334 31 20.001
s16.667 15.5 23 23.5s11.166 14.667 14.499 20c-3.33301 8 -8.66602 10.333 -15.999 7c-6.66699 -8.66699 -16.834 -18.334 -30.501 -29.001s-32.834 -16 -57.501 -16c-13.333 0 -25 4.83301 -35 14.5s-19 22 -27 37s-14.833 32 -20.5 51s-10.5 38.167 -14.5 57.5
s-7.16699 37.666 -9.5 54.999s-4.16602 31.666 -5.49902 42.999c5.33301 -1.33301 11 -2.33301 17 -3s12.333 -1 19 -1c48 0 95.333 7.16699 142 21.5s90.834 33.5 132.501 57.5s80.167 51.5 115.5 82.5s66 63.333 92 97s46.167 67.5 60.5 101.5s21.5 65.667 21.5 95z" />
    <glyph glyph-name="L" unicode="L" horiz-adv-x="1103" 
d="M1262 652c0 4.66699 -2.83008 10.498 -8.49707 17.498s-12.5 13.667 -20.5 20s-16.667 11.833 -26 16.5s-18 7 -26 7c-27.333 0 -54.333 -5.5 -81 -16.5s-52.334 -25.167 -77.001 -42.5s-48 -36.333 -70 -57s-41.667 -40.667 -59 -60
c-2.66699 -2.66699 -5.33398 -5.66699 -8.00098 -9s-5.66699 -6.66602 -9 -9.99902c-11.333 -1.33301 -22.666 -2 -33.999 -2h-33c-52.667 0 -100 6.16699 -142 18.5s-78.167 26.5 -108.5 42.5s-54.5 31.833 -72.5 47.5s-29.333 26.834 -34 33.501
c-4.66699 0 -8.5 -1.5 -11.5 -4.5s-4.16699 -6.16699 -3.5 -9.5c6.66699 -9.33301 20.167 -22.5 40.5 -39.5s46.166 -33.833 77.499 -50.5s67.833 -31.167 109.5 -43.5s86.834 -18.5 135.501 -18.5c9.33301 0 18.666 0.166992 27.999 0.5s18.666 0.833008 27.999 1.5
l-44.5 -56l-50 -64l-51 -66l-47.5 -62c-94.667 -2 -181.667 -11.5 -261 -28.5s-147.5 -39.167 -204.5 -66.5s-101.5 -58.166 -133.5 -92.499s-48 -69.5 -48 -105.5c0 -19.333 4.5 -37.666 13.5 -54.999s21.167 -32.5 36.5 -45.5s33.166 -23.333 53.499 -31
s41.5 -11.5 63.5 -11.5c42.667 0 83.5 7.83301 122.5 23.5s75.167 35.167 108.5 58.5s63.5 48.333 90.5 75s49.5 51.334 67.5 74.001l25.5 32l34 42l39 49.5l42.5 53.5c50 -2 93.5 -7 130.5 -15s68.333 -18 94 -30s46.667 -24.833 63 -38.5s29.166 -26.834 38.499 -39.501
s15.833 -23.834 19.5 -33.501s5.83398 -16.5 6.50098 -20.5c3.33301 -2.66699 7.83301 -2.5 13.5 0.5s8.5 6.5 8.5 10.5c-2 8 -7.83301 21.667 -17.5 41s-27.167 39.5 -52.5 60.5s-60.666 40.333 -105.999 58s-104.333 28.834 -177 33.501l62 77.5l57 71.5l46.5 57.5
c13.667 16.333 23.834 28.166 30.501 35.499c2.66699 3.33301 5.66699 6.5 9 9.5s6.66602 6.5 9.99902 10.5c40 6.66699 78.833 15.167 116.5 25.5s71 21.833 100 34.5s52.167 26.167 69.5 40.5s26 29.166 26 44.499zM1215 654.998c0 -8 -5.50195 -17.5 -16.502 -28.5
s-26.667 -22 -47 -33s-44.833 -21.833 -73.5 -32.5s-61 -19.667 -97 -27c16.667 14.667 35.334 30.167 56.001 46.5s41.334 31 62.001 44s40.167 23.833 58.5 32.5s33.833 13 46.5 13c7.33301 0 11 -5 11 -15zM642.001 217.998
c-4.66699 -5.33301 -9.00098 -10.667 -13.001 -16s-8 -10.333 -12 -15l-44 -56.5c-17.333 -23 -37 -47.167 -59 -72.5s-46.167 -50.833 -72.5 -76.5s-54.166 -48.667 -83.499 -69s-59.833 -37 -91.5 -50s-64.5 -19.5 -98.5 -19.5c-40 0 -70.167 10 -90.5 30
s-30.5 43 -30.5 69c0 30.667 16.167 61.5 48.5 92.5s75.833 59.5 130.5 85.5s118 47.833 190 65.5s147.333 28.5 226 32.5z" />
    <glyph glyph-name="M" unicode="M" horiz-adv-x="1230" 
d="M1261 167c0.666992 6.66699 -3.33203 10.6621 -11.999 11.9951c-3.33301 -2 -9.16602 -6 -17.499 -12l-29.5 -20.5l-35.5 -24l-35 -23l-27.5 -17.5c-7.33301 -4.66699 -11.666 -7 -12.999 -7c-4 0 -6.33301 0.833008 -7 2.5s-1 4.16699 -1 7.5
c0 1.33301 2.5 6.66602 7.5 15.999l18.5 35l24.5 47c9 17.333 17.167 34.5 24.5 51.5s13.5 33.167 18.5 48.5s7.5 28.333 7.5 39c0 18.667 -4.16699 35.167 -12.5 49.5s-24.166 21.5 -47.499 21.5c-10 0 -22.167 -2.33301 -36.5 -7s-30.333 -11.167 -48 -19.5
s-36.667 -18.333 -57 -30l-62.5 -37.5c23.333 40 42.5 79.667 57.5 119s22.5 76.666 22.5 111.999c0 28.667 -7.33301 52.334 -22 71.001s-38.334 28 -71.001 28c-21.333 0 -44.5 -3.5 -69.5 -10.5s-51.5 -16.833 -79.5 -29.5c26.667 44 47.834 84.5 63.501 121.5
s23.5 68.167 23.5 93.5c0 49.333 -16.167 85.166 -48.5 107.499s-74.5 33.5 -126.5 33.5c-42 0 -87.5 -7.16699 -136.5 -21.5s-97.833 -32.333 -146.5 -54s-95.834 -45.5 -141.501 -71.5s-85.834 -50.667 -120.501 -74s-62.5 -43.666 -83.5 -60.999
s-31.5 -28.666 -31.5 -33.999c0 -7.33301 3.16699 -11.833 9.5 -13.5s12.166 -2.5 17.499 -2.5c6.66699 0 17.334 3.5 32.001 10.5s31 15.667 49 26s36.667 21.666 56 33.999l53 34.5c16 10.667 29.167 19.834 39.5 27.501s15.5 12.167 15.5 13.5
c0 2.66699 -1.33301 4.66699 -4 6s-4 3.66602 -4 6.99902c0 1.33301 6.5 6.16602 19.5 14.499s30 18.166 51 29.499s45.333 23.333 73 36s56.167 24.5 85.5 35.5s58.5 20 87.5 27s55.5 10.5 79.5 10.5c50 0 85.833 -9 107.5 -27s32.5 -39.667 32.5 -65
c0 -19.333 -3.5 -40.166 -10.5 -62.499s-16.833 -46 -29.5 -71s-27.834 -50.833 -45.501 -77.5s-36.834 -53.667 -57.501 -81c-42 -24.667 -84.5 -52.667 -127.5 -84s-84.5 -64.166 -124.5 -98.499s-77.667 -69.333 -113 -105s-66.166 -69.834 -92.499 -102.501
s-47.166 -63 -62.499 -91s-23 -51.667 -23 -71c0 -8 3 -14.5 9 -19.5s13.333 -7.5 22 -7.5c16 0 37.167 8.16699 63.5 24.5s55.833 38.5 88.5 66.5s67.334 60.667 104.001 98s73.167 77 109.5 119s71.833 85.5 106.5 130.5s66.334 88.833 95.001 131.5
c38 21.333 74.667 38.166 110 50.499s67.666 18.5 96.999 18.5c14.667 0 25.334 -4.33301 32.001 -13s10 -20 10 -34c0 -16.667 -5.83301 -38.5 -17.5 -65.5s-26.667 -56.5 -45 -88.5s-38.833 -65.167 -61.5 -99.5l-68 -99.5c-26.667 -20 -51.834 -40 -75.501 -60
s-44.334 -38.5 -62.001 -55.5s-31.667 -32.167 -42 -45.5s-15.5 -23.666 -15.5 -30.999c0 -8 6.16699 -15.333 18.5 -22s26.166 -10 41.499 -10c4.66699 0 15.667 7.33301 33 22s37.5 34.334 60.5 59.001s47.833 53.334 74.5 86.001s52 67.334 76 104.001
c24.667 16.667 49.167 32.334 73.5 47.001s46.833 27.5 67.5 38.5s38.834 19.667 54.501 26s27.834 9.5 36.501 9.5c8 0 13.333 -2 16 -6s4 -8.66699 4 -14c0 -11.333 -4 -25.666 -12 -42.999s-18 -36.166 -30 -56.499s-25 -41.166 -39 -62.499l-39 -60.5
c-12 -19 -22 -36.333 -30 -52s-12 -28.167 -12 -37.5c0 -14 4.33301 -24.333 13 -31s17.667 -10 27 -10c7.33301 0 18.166 4 32.499 12s30.166 17.833 47.499 29.5s35.166 24.667 53.499 39l50.5 40.5l39.5 33c11 9.33301 17.5 15 19.5 17zM597.001 453.995
c-43.333 -50.667 -87.833 -99.668 -133.5 -147.001s-87.834 -89.166 -126.501 -125.499s-71 -65.5 -97 -87.5s-41 -33 -45 -33c-3.33301 0 -4.66602 0.166992 -3.99902 0.5s1 2.16602 1 5.49902c0 6 5.16699 16.5 15.5 31.5s24.833 32.833 43.5 53.5s40.667 43.5 66 68.5
s53 50.833 83 77.5s61.667 53.334 95 80.001s67.333 52 102 76z" />
    <glyph glyph-name="N" unicode="N" horiz-adv-x="960" 
d="M1011 530c0 28.667 -7.33008 52.334 -21.9971 71.001s-38.667 28 -72 28c-20.667 0 -43.667 -3.5 -69 -10.5s-52 -16.833 -80 -29.5c27.333 44 48.833 84.5 64.5 121.5s23.5 68.167 23.5 93.5c0 49.333 -16.167 85.166 -48.5 107.499s-74.833 33.5 -127.5 33.5
c-42 0 -87.333 -7.16699 -136 -21.5s-97.5 -32.333 -146.5 -54s-96.167 -45.5 -141.5 -71.5s-85.333 -50.667 -120 -74s-62.5 -43.666 -83.5 -60.999s-31.5 -28.666 -31.5 -33.999c0 -7.33301 3.16699 -11.833 9.5 -13.5s11.833 -2.5 16.5 -2.5
c6.66699 0 17.334 3.5 32.001 10.5s31 15.667 49 26s36.667 21.666 56 33.999l53 34.5c16 10.667 29.167 19.834 39.5 27.501s15.5 12.167 15.5 13.5c0 2.66699 -1.33301 4.66699 -4 6s-4 3.66602 -4 6.99902c0 1.33301 6.5 6.16602 19.5 14.499s30.167 18.166 51.5 29.499
s45.666 23.333 72.999 36s55.666 24.5 84.999 35.5s58.5 20 87.5 27s55.5 10.5 79.5 10.5c50.667 0 86.834 -9 108.501 -27s32.5 -39.667 32.5 -65c0 -19.333 -3.5 -40.166 -10.5 -62.499s-16.833 -46 -29.5 -71s-27.834 -50.833 -45.501 -77.5s-36.834 -53.667 -57.501 -81
c-42 -24.667 -84.5 -52.667 -127.5 -84s-84.667 -64.166 -125 -98.499s-78.166 -69.333 -113.499 -105s-66.166 -69.834 -92.499 -102.501s-47.166 -63 -62.499 -91s-23 -51.667 -23 -71c0 -8 3.16699 -14.5 9.5 -19.5s13.5 -7.5 21.5 -7.5c16 0 37.333 8.16699 64 24.5
s56.167 38.5 88.5 66.5s66.833 60.667 103.5 98s73.334 77 110.001 119s72.167 85.5 106.5 130.5s65.833 88.833 94.5 131.5c38.667 21.333 75.5 38.166 110.5 50.499s67.5 18.5 97.5 18.5c15.333 0 26.166 -5 32.499 -15s9.5 -20.667 9.5 -32c0 -29.333 -7 -60.5 -21 -93.5
s-31.333 -66.167 -52 -99.5s-43.167 -66.333 -67.5 -99l-67.5 -92c-20.667 -28.667 -38 -54.5 -52 -77.5s-21 -41.5 -21 -55.5s5.16699 -24.333 15.5 -31s20.166 -10 29.499 -10c7.33301 0 18.166 4 32.499 12s30.166 17.833 47.499 29.5s35.166 24.667 53.499 39l51 40.5
l40 33c11 9.33301 17.5 15 19.5 17c0 6.66699 -4 10.667 -12 12l-31.5 -22l-51.5 -35l-49.5 -32.5c-15 -9.66699 -23.5 -14.5 -25.5 -14.5c-10 0 -15 3.33301 -15 10c0 4 5.16699 13.5 15.5 28.5l38 56l49.5 76.5c18 28.667 34.5 58.834 49.5 90.501s27.667 64 38 97
s15.5 65.167 15.5 96.5zM608.003 454c-28.667 -34 -58.168 -67.166 -88.501 -99.499l-89 -92.5l-83 -80.5l-70 -63.5c-20.333 -18 -36.833 -32 -49.5 -42s-20.334 -15 -23.001 -15c-3.33301 0 -4.5 0.166992 -3.5 0.5s1.5 2.16602 1.5 5.49902c0 9.33301 11.333 28 34 56
s52.834 60.5 90.501 97.5s80.834 76.167 129.501 117.5s99 80 151 116z" />
    <glyph glyph-name="O" unicode="O" horiz-adv-x="534" 
d="M715 644c0 48 -12.9932 84.168 -38.9932 108.501s-63 36.5 -111 36.5c-34.667 0 -70 -5.66699 -106 -17s-70.833 -26 -104.5 -44s-65 -38.5 -94 -61.5s-54.167 -45.833 -75.5 -68.5c-1.33301 -1.33301 -4 -4.16602 -8 -8.49902l-12.5 -14
c-4.33301 -5 -8.16602 -10 -11.499 -15s-5 -8.5 -5 -10.5c0 -8.66699 2.66699 -15.834 8 -21.501s12.666 -8.5 21.999 -8.5c2 0 7.16699 2.66699 15.5 8s18 12 29 20s22.5 16.833 34.5 26.5l33.5 27c10.333 8.33301 18.833 15.666 25.5 21.999s10 10.5 10 12.5
c0 8 -1.66699 12.667 -5 14s-5 4.66602 -5 9.99902c0 6 7 15.167 21 27.5s32.667 24.5 56 36.5s50.166 22.5 80.499 31.5s62.166 13.5 95.499 13.5c69.333 0 104 -34.333 104 -103c0 -33.333 -8.5 -72.333 -25.5 -117s-39.5 -91.167 -67.5 -139.5s-60.333 -96 -97 -143
s-75 -89.167 -115 -126.5s-80 -67.5 -120 -90.5s-77.667 -34.5 -113 -34.5c-34 0 -61 10 -81 30s-30 45.333 -30 76c0 25.333 4.66699 52.833 14 82.5s22.166 59.834 38.499 90.501s35.666 60.834 57.999 90.501s46.166 57.5 71.499 83.5s51.666 49 78.999 69
s54.666 35.667 81.999 47c0 3.33301 -1 7.66602 -3 12.999s-4.66699 8 -8 8c-0.666992 0 -2.33398 -0.666992 -5.00098 -2c-31.333 -12.667 -62 -30.167 -92 -52.5s-58.333 -47.5 -85 -75.5s-51.167 -58 -73.5 -90s-41.666 -64.333 -57.999 -97s-29.166 -64.5 -38.499 -95.5
s-14 -59.5 -14 -85.5c0 -20 3.33301 -38.167 10 -54.5s16.334 -30.333 29.001 -42s27.5 -20.667 44.5 -27s36.167 -9.5 57.5 -9.5c44 0 89 10.333 135 31s90.667 48.167 134 82.5s84.166 74.166 122.499 119.499s71.666 92.833 99.999 142.5s50.833 99.834 67.5 150.501
s25 98.667 25 144z" />
    <glyph glyph-name="P" unicode="P" horiz-adv-x="643" 
d="M910 641c0 20 -3.83594 38.332 -11.5029 54.999s-19.5 31.334 -35.5 44.001s-36.667 22.5 -62 29.5s-56 10.5 -92 10.5c-45.333 0 -93.333 -6.5 -144 -19.5s-101 -29.667 -151 -50s-98 -42.5 -144 -66.5s-86.5 -47.333 -121.5 -70s-63 -43 -84 -61
s-31.5 -30.667 -31.5 -38c0 -10.667 3.33301 -19.5 10 -26.5s13.667 -10.5 21 -10.5c6.66699 0 15.667 1.83301 27 5.5s23.833 8.83398 37.5 15.501l44 22.5l47.5 26.5l57 35c18.667 12 35.5 23.333 50.5 34s27.667 20 38 28s16.833 13.667 19.5 17
c-0.666992 4 -2.66699 6.33301 -6 7s-6.66602 0.666992 -9.99902 0c-4 -2 -11.167 -6.33301 -21.5 -13l-38 -23.5l-48.5 -29l-53 -30.5c-28 -16 -54 -29.667 -78 -41s-40.667 -17 -50 -17c-4.66699 0 -7 1.66699 -7 5s6.66699 9.66602 20 18.999s31.333 20.5 54 33.5
s49.334 27.167 80.001 42.5s63.667 30.833 99 46.5s72 30.834 110 45.501s75.333 27.667 112 39l-55.5 -62l-79 -90.5l-92 -108.5l-94.5 -116l-71.5 -94c-23.667 -32.667 -44.667 -63.334 -63 -92.001s-33.333 -53.834 -45 -75.501s-17.5 -36.834 -17.5 -45.501
c0 -5.33301 1.16699 -11.666 3.5 -18.999s5.5 -14.5 9.5 -21.5s8.5 -12.833 13.5 -17.5s10.167 -7 15.5 -7c4.66699 0 11.834 7.16699 21.501 21.5s19.667 30.5 30 48.5s19.666 35 27.999 51s13.5 25.667 15.5 29c0 5.33301 -2.33301 7.33301 -7 6
c-2 -1.33301 -5.5 -4.5 -10.5 -9.5l-16 -16.5l-15.5 -17c-4.66699 -5.33301 -8 -9 -10 -11l-3 2c0 2 5.5 11.167 16.5 27.5s26.333 37.666 46 63.999l69 90.5l86.5 108c36.667 44.667 72.5 86.167 107.5 124.5l92.5 100.5l64.5 69c16.333 17.333 24.5 27.333 24.5 30
c0 4.66699 -1.5 12.167 -4.5 22.5s-6.16699 18.166 -9.5 23.499c30 7.33301 58.333 13.333 85 18s51.334 7 74.001 7c45.333 0 77.666 -7 96.999 -21s29 -32.333 29 -55c0 -20 -6.33301 -42.333 -19 -67s-30 -49.834 -52 -75.501s-47.5 -50.667 -76.5 -75
s-59.833 -46 -92.5 -65s-66.334 -34.167 -101.001 -45.5s-68 -17 -100 -17c-23.333 0 -40 2.83301 -50 8.5s-15 12.5 -15 20.5c0 9.33301 2.83301 18.5 8.5 27.5s10.167 15.167 13.5 18.5c-0.666992 2 -1.66699 3.83301 -3 5.5s-2.66602 2.16699 -3.99902 1.5
c-2.66699 -2 -6.16699 -4.83301 -10.5 -8.5s-8.66602 -8 -12.999 -13s-8 -10.833 -11 -17.5s-4.5 -13.334 -4.5 -20.001c0 -10 3 -19.333 9 -28s13.833 -16.167 23.5 -22.5s21 -11.166 34 -14.499s26.5 -5 40.5 -5c39.333 0 77.833 5.5 115.5 16.5s73.167 25.833 106.5 44.5
s64 40.334 92 65.001s52 50.334 72 77.001s35.667 53.834 47 81.501s17 53.834 17 78.501z" />
    <glyph glyph-name="Q" unicode="Q" horiz-adv-x="550" 
d="M715 644c0 27.333 -3.49805 50.666 -10.498 69.999s-16.167 35 -27.5 47s-24.5 20.833 -39.5 26.5s-30.833 8.5 -47.5 8.5c-35.333 0 -72 -8.16699 -110 -24.5s-75.5 -37.833 -112.5 -64.5s-72.167 -56.667 -105.5 -90s-62.5 -66.666 -87.5 -99.999s-45 -65.333 -60 -96
s-22.5 -56.334 -22.5 -77.001c0 -3.33301 1.5 -6.66602 4.5 -9.99902s6.5 -6.16602 10.5 -8.49902s8.16699 -4.33301 12.5 -6s8.16602 -2.5 11.499 -2.5s9.16602 5.33301 17.499 16s16.833 22.667 25.5 36s16.334 26 23.001 38s10 19.333 10 22c0 4 -0.5 7.16699 -1.5 9.5
s-2 4.16602 -3 5.49902l-3 4c-1 1.33301 -1.5 3.33301 -1.5 6c0 11.333 5.83301 26.833 17.5 46.5s27.5 41.167 47.5 64.5s43 47.166 69 71.499s53.167 46.333 81.5 66s57 35.667 86 48s56.5 18.5 82.5 18.5c11.333 0 22.5 -1.83301 33.5 -5.5s20.667 -9.66699 29 -18
s15.166 -19 20.499 -32s8 -28.833 8 -47.5c0 -25.333 -5 -54.166 -15 -86.499s-23.833 -66.666 -41.5 -102.999s-38.667 -73.166 -63 -110.499s-50.333 -73.5 -78 -108.5s-56.834 -67.833 -87.501 -98.5s-61.334 -57 -92.001 -79c-33.333 13.333 -66 24 -98 32
s-62 12 -90 12c-36.667 0 -63.334 -6 -80.001 -18s-25 -26 -25 -42c0 -9.33301 2.83301 -18.833 8.5 -28.5s14 -18.334 25 -26.001s24.5 -13.834 40.5 -18.501s34 -7 54 -7c31.333 0 62.833 5 94.5 15s63.5 24 95.5 42c30.667 -14 60.834 -29.333 90.501 -46
s57.5 -33.834 83.5 -51.501s49.5 -35.167 70.5 -52.5s38.5 -33 52.5 -47c0 0.666992 1.5 1.33398 4.5 2.00098s6.16699 1.5 9.5 2.5s6.5 2.16699 9.5 3.5s4.5 3.66602 4.5 6.99902c0 4.66699 -3 10 -9 16c-9.33301 10 -23.666 22.333 -42.999 37
s-41.666 30.334 -66.999 47.001s-53.333 33.5 -84 50.5s-62.334 33.167 -95.001 48.5c32.667 20.667 64.334 45 95.001 73s59.667 58.333 87 91s52.333 66.667 75 102s42.167 71.333 58.5 108s29 73 38 109s13.5 70.333 13.5 103zM270.002 63
c-23.333 -15.333 -46.332 -27.167 -68.999 -35.5s-44.667 -12.5 -66 -12.5c-26 0 -47.833 5 -65.5 15s-26.5 21 -26.5 33c0 7.33301 5.16699 15 15.5 23s28.166 12 53.499 12c23.333 0 48.5 -3.16699 75.5 -9.5s54.5 -14.833 82.5 -25.5z" />
    <glyph glyph-name="R" unicode="R" horiz-adv-x="617" 
d="M915 641c0 20 -3.83496 38.3311 -11.502 54.998s-19.5 31.334 -35.5 44.001s-36.667 22.5 -62 29.5s-56 10.5 -92 10.5c-45.333 0 -93.333 -6.5 -144 -19.5s-101 -29.667 -151 -50s-98 -42.5 -144 -66.5s-86.5 -47.333 -121.5 -70s-63 -43 -84 -61
s-31.5 -30.667 -31.5 -38c0 -10.667 3.33301 -19.5 10 -26.5s13.667 -10.5 21 -10.5c6.66699 0 15.667 1.83301 27 5.5s23.833 8.83398 37.5 15.501l44 22.5l47.5 26.5l57 35c18.667 12 35.5 23.333 50.5 34s27.667 20 38 28s16.833 13.667 19.5 17
c-0.666992 4 -2.66699 6.33301 -6 7s-6.66602 0.666992 -9.99902 0c-4 -2 -11.167 -6.33301 -21.5 -13l-38 -23.5l-48.5 -29l-53 -30.5c-28 -16 -54 -29.667 -78 -41s-40.667 -17 -50 -17c-4.66699 0 -7 1.66699 -7 5s6.66699 9.66602 20 18.999s31.333 20.5 54 33.5
s49.334 27.167 80.001 42.5s63.667 30.833 99 46.5s71.833 30.834 109.5 45.501s75.167 27.667 112.5 39l-55.5 -62l-79 -90.5l-92 -108.5l-94.5 -116l-71.5 -94c-23.667 -32.667 -44.667 -63.334 -63 -92.001s-33.333 -53.834 -45 -75.501s-17.5 -36.834 -17.5 -45.501
c0 -5.33301 1.16699 -11.666 3.5 -18.999s5.5 -14.5 9.5 -21.5s8.5 -12.833 13.5 -17.5s10.167 -7 15.5 -7c4.66699 0 11.834 7.16699 21.501 21.5s19.667 30.5 30 48.5s19.666 35 27.999 51s13.5 25.667 15.5 29c0 5.33301 -2.33301 7.33301 -7 6
c-2 -1.33301 -5.5 -4.5 -10.5 -9.5l-16 -16.5l-15.5 -17c-4.66699 -5.33301 -8 -9 -10 -11l-3 2c0 1.33301 3.66699 7.5 11 18.5s17.666 25.667 30.999 44l47.5 64.5l60.5 79c6 -28 14.167 -58.167 24.5 -90.5s23.333 -62.333 39 -90s34.167 -50.667 55.5 -69
s46 -27.5 74 -27.5c12.667 0 24.834 2.83301 36.501 8.5s22 12.334 31 20.001s16.667 15.5 23 23.5s11.166 14.667 14.499 20c-3.33301 8 -8.66602 10.333 -15.999 7c-6.66699 -8.66699 -17 -18.334 -31 -29.001s-33 -16 -57 -16c-13.333 0 -25.166 4.83301 -35.499 14.5
s-19.5 22 -27.5 37s-14.833 32 -20.5 51s-10.5 38.167 -14.5 57.5s-7.16699 37.666 -9.5 54.999s-4.16602 31.666 -5.49902 42.999c6 -1.33301 12 -2.33301 18 -3s12 -1 18 -1c43.333 0 86.666 5.5 129.999 16.5s85 25.833 125 44.5s77.167 40.334 111.5 65.001
s64.166 50.334 89.499 77.001s45.333 53.834 60 81.501s22 53.834 22 78.501zM887.998 669.998c0 -20 -8.16602 -42.8301 -24.499 -68.4971s-38.333 -51.834 -66 -78.501s-59.667 -52.834 -96 -78.501s-74.5 -48.5 -114.5 -68.5s-80.833 -36.167 -122.5 -48.5
s-81.167 -18.5 -118.5 -18.5c-10.667 0 -19.834 0.666992 -27.501 2s-14.167 3 -19.5 5l29 35l108 124.5l92.5 100.5l64.5 69c16 17.333 24 27.333 24 30c0 4.66699 -1.5 12.167 -4.5 22.5s-6.16699 18.166 -9.5 23.499c30 7.33301 58.333 13.333 85 18s51.334 7 74.001 7
c45.333 0 77.666 -7 96.999 -21s29 -32.333 29 -55z" />
    <glyph glyph-name="S" unicode="S" horiz-adv-x="670" 
d="M1027 708c0 19.333 -9.16406 35.6768 -27.4971 49.0098s-46.5 20 -84.5 20c-39.333 0 -82.166 -4.33301 -128.499 -13s-92.833 -20.667 -139.5 -36s-91.5 -33.5 -134.5 -54.5s-81.167 -44 -114.5 -69s-60 -51.333 -80 -79s-30 -55.834 -30 -84.501
c0 -23.333 7.66699 -48.166 23 -74.499s32.166 -53.333 50.499 -81s35.166 -55 50.499 -82s23 -52.5 23 -76.5c0 -25.333 -6.5 -47.5 -19.5 -66.5s-30 -35 -51 -48s-44.333 -22.833 -70 -29.5s-50.834 -10 -75.501 -10c-23.333 0 -45.666 2 -66.999 6s-40 9.66699 -56 17
s-28.667 16.166 -38 26.499s-14 21.5 -14 33.5s4.33301 24.333 13 37s19 24.667 31 36s24.333 21.666 37 30.999s23 16.666 31 21.999c-1.33301 9.33301 -7.33301 12.666 -18 9.99902c-8 -4 -19 -10.833 -33 -20.5s-27.833 -21 -41.5 -34s-25.5 -26.833 -35.5 -41.5
s-15 -28.667 -15 -42c0 -15.333 4.5 -30.5 13.5 -45.5s22.5 -28.167 40.5 -39.5s40.167 -20.5 66.5 -27.5s56.833 -10.5 91.5 -10.5c38.667 0 74.167 4.33301 106.5 13s60.166 20 83.499 34s41.5 29.667 54.5 47s19.5 34.666 19.5 51.999c0 20.667 -4 41.667 -12 63
s-18 42.5 -30 63.5s-24.833 42 -38.5 63l-38.5 61c-12 19.667 -22 38.667 -30 57s-12 35.5 -12 51.5c0 17.333 11.167 36.666 33.5 57.999s51.5 43 87.5 65s76.5 43.5 121.5 64.5s90 39.667 135 56s87.833 29.5 128.5 39.5s74.667 15 102 15c24 0 40.167 -2.83301 48.5 -8.5
s12.5 -13.167 12.5 -22.5c0 -14 -6.16699 -29.333 -18.5 -46s-26 -32.334 -41 -47.001s-29.167 -27 -42.5 -37s-21.333 -15 -24 -15s-4.66699 0.5 -6 1.5s-2.66602 2.33301 -3.99902 4s-3 3 -5 4s-5 1.5 -9 1.5c-4.66699 0 -13.5 -4.16699 -26.5 -12.5
s-28 -18.833 -45 -31.5s-34.833 -26.834 -53.5 -42.501s-35.834 -30.834 -51.501 -45.501s-28.5 -27.834 -38.5 -39.501s-15 -19.834 -15 -24.501c0 -9.33301 3.16699 -16.833 9.5 -22.5s13.166 -8.5 20.499 -8.5c6 0 19.667 6.66699 41 20s46 30.833 74 52.5
s57.667 46 89 73s60 54 86 81s47.5 52.833 64.5 77.5s25.5 45.334 25.5 62.001z" />
    <glyph glyph-name="T" unicode="T" horiz-adv-x="857" 
d="M1308 730c0 7.33301 -1.33594 14.4961 -4.00293 21.4961s-7.66699 13.167 -15 18.5c-4 2.66699 -10.5 5.33398 -19.5 8.00098s-21.5 5 -37.5 7s-36.167 3.5 -60.5 4.5s-53.5 1.5 -87.5 1.5c-36 0 -73.167 -1.16699 -111.5 -3.5s-77.5 -5.5 -117.5 -9.5
c0.666992 1.33301 1 3 1 5c0 7.33301 -1.5 13.333 -4.5 18s-9.16699 7 -18.5 7c-5.33301 0 -12.666 -3.5 -21.999 -10.5s-20.333 -16.833 -33 -29.5c-56 -7.33301 -110.167 -15.166 -162.5 -23.499s-99.5 -16.333 -141.5 -24s-77.167 -14.334 -105.5 -20.001
s-46.5 -9.5 -54.5 -11.5l-1 4l12.5 6.5l22.5 12c8 4.33301 15.167 8.5 21.5 12.5s9.5 7 9.5 9c0 8.66699 -4.66699 13 -14 13c-1.33301 0 -10.333 -2.66699 -27 -8l-61 -20.5c-24 -8.33301 -49.833 -17.833 -77.5 -28.5l-77 -31c-23.667 -10 -43.334 -19.167 -59.001 -27.5
s-23.5 -14.833 -23.5 -19.5c0 -5.33301 3 -9.83301 9 -13.5s13.667 -5.5 23 -5.5c2 0 12.333 2 31 6l74 15.5l108 22.5l134 27l151 28c52.667 9.33301 105.667 18 159 26l-65 -76.5l-68 -83.5l-64.5 -82l-53.5 -70l-56 -74l-63.5 -87l-63 -89l-55 -81
c-16.333 -24.667 -29.333 -45.5 -39 -62.5s-14.5 -28.167 -14.5 -33.5c0 -15.333 2.83301 -28.5 8.5 -39.5s14.5 -16.5 26.5 -16.5c6 0 10.833 1.83301 14.5 5.5s6.83398 8.16699 9.50098 13.5s5 10.833 7 16.5s4.33301 10.167 7 13.5c1.33301 2 6.5 8 15.5 18l32 35.5
l40 43.5l40 43.5l32.5 35.5c9.33301 10 15 16.333 17 19c0.666992 3.33301 -0.166016 6 -2.49902 8s-4.83301 3 -7.5 3c-2 -2 -7.66699 -6.5 -17 -13.5l-30 -23l-30 -24c-9.33301 -7.66699 -15.333 -12.5 -18 -14.5l-4 2c2 2.66699 10 14.167 24 34.5l53.5 75l71 96.5
l75.5 99c24 30.667 49.333 61.334 76 92.001l77.5 88.5l69.5 79.5c21.333 24.667 38.666 46 51.999 64c54.667 6.66699 107.5 12.167 158.5 16.5s98.5 6.5 142.5 6.5c18 0 35.333 -0.166992 52 -0.5s31.334 -1.16602 44.001 -2.49902s22.834 -3.16602 30.501 -5.49902
s11.5 -5.5 11.5 -9.5c0 -6 -6.66699 -11.667 -20 -17s-28 -10.5 -44 -15.5s-30.667 -9.33301 -44 -13s-20 -6.5 -20 -8.5c0 -4 2.16699 -6.83301 6.5 -8.5s9.16602 -2.5 14.499 -2.5c2.66699 0 11.834 1.5 27.501 4.5s32.5 7.16699 50.5 12.5s34.333 11.5 49 18.5
s22 14.167 22 21.5z" />
    <glyph glyph-name="U" unicode="U" horiz-adv-x="813" 
d="M1015 611c-1.33301 10.667 -8.83887 18.001 -22.5059 22.001s-28.5 4.33301 -44.5 1c-12 -16 -23.667 -33.333 -35 -52l-38 -64l-49 -83.5l-67 -110.5l-22 -36.5l-22 -38.5c-14 -17.333 -31 -36.5 -51 -57.5l-64.5 -64.5c-23 -22 -47 -43.333 -72 -64
s-49.5 -39.167 -73.5 -55.5s-46.667 -29.333 -68 -39s-40 -14.5 -56 -14.5c-23.333 0 -41.166 6.5 -53.499 19.5s-18.5 30.833 -18.5 53.5c0 27.333 5.16699 55.5 15.5 84.5s24.166 58.5 41.499 88.5s37 60 59 90s45 59.667 69 89l71.5 88
c23.667 28.667 45.5 56.667 65.5 84s37.167 53.666 51.5 78.999s24.166 49.333 29.499 72c0.666992 2 1 5.66699 1 11c0 20 -8 36 -24 48s-33.333 18 -52 18c-20 0 -42.833 -3.83301 -68.5 -11.5s-53 -18 -82 -31s-58.833 -28 -89.5 -45s-60.667 -34.833 -90 -53.5
c-31.333 -20 -61.166 -40.333 -89.499 -61s-53.166 -40 -74.499 -58s-38.333 -33.833 -51 -47.5s-19 -23.834 -19 -30.501s2.16699 -12.834 6.5 -18.501s10.166 -8.5 17.499 -8.5c3.33301 0 11.333 3.66699 24 11s27.334 16.5 44.001 27.5l53 36.5l51.5 38
c15.667 12 28.667 22.5 39 31.5s15.5 14.833 15.5 17.5c0 6 -2.33301 10.5 -7 13.5s-7 6.16699 -7 9.5c0 4 6.5 10.667 19.5 20s29.833 19.833 50.5 31.5s43.834 23.834 69.501 36.501s50.834 24.167 75.501 34.5s47.834 18.833 69.501 25.5s38.834 10 51.501 10
c6.66699 0 12.167 -1.66699 16.5 -5s6.5 -8.66602 6.5 -15.999c0 -16 -6.66699 -35 -20 -57s-30.5 -46.5 -51.5 -73.5s-44.833 -55.833 -71.5 -86.5l-80 -96c-23.333 -29.333 -45.833 -59 -67.5 -89s-40.667 -60.333 -57 -91s-29.5 -61.167 -39.5 -91.5
s-15 -60.166 -15 -89.499c0 -18 2.16699 -34.667 6.5 -50s11 -28.666 20 -39.999s20.5 -20.333 34.5 -27s30.667 -10 50 -10c20.667 0 44.167 5.83301 70.5 17.5s54 27.167 83 46.5s58.833 42 89.5 68s61 53.333 91 82c-18.667 -36.667 -33.667 -68.834 -45 -96.501
s-16.333 -46.834 -15 -57.501c0.666992 -5.33301 2.5 -11.333 5.5 -18s6.83301 -13.167 11.5 -19.5s9.83398 -11.5 15.501 -15.5s11.167 -5.66699 16.5 -5c4.66699 0.666992 11 8.66699 19 24s16 32.5 24 51.5s15.167 36.833 21.5 53.5s10.5 26.667 12.5 30
c-1.33301 5.33301 -4 7.33301 -8 6c-2 -2 -5.16699 -5.83301 -9.5 -11.5l-13.5 -18c-4.66699 -6.33301 -9 -12.5 -13 -18.5s-7 -10 -9 -12l-4 1c0 2 4.66699 11.833 14 29.5l38 69.5l57 98.5l73 117.5l78.5 120.5l50.5 75.5c12.667 18.667 21.5 32.167 26.5 40.5
s7.5 13.833 7.5 16.5z" />
    <glyph glyph-name="V" unicode="V" horiz-adv-x="696" 
d="M1480 841c-12 23.333 -30.165 42.3408 -54.498 57.0078s-49.833 22 -76.5 22c-27.333 0 -58.333 -7 -93 -21s-71.5 -33 -110.5 -57s-79.833 -52.333 -122.5 -85s-85.667 -67.334 -129 -104.001l-115.5 -101.5l-112.5 -103.5l-105.5 -100l-94 -91l-78 -75.5l-56.5 -54.5
l-11 3c2.66699 4 10.167 16.167 22.5 36.5l44 73l54 91l54.5 89.5l49.5 79.5c16.333 25.667 30.833 50.167 43.5 73.5s23 45.833 31 67.5s12 42.167 12 61.5c0 10 -2.5 19.667 -7.5 29s-11.833 17.5 -20.5 24.5s-18.334 12.667 -29.001 17s-22 6.5 -34 6.5
c-30.667 0 -64.167 -7.83301 -100.5 -23.5s-72.833 -35.5 -109.5 -59.5s-72.334 -50 -107.001 -78s-65.167 -54.667 -91.5 -80s-47.5 -47 -63.5 -65s-24 -28.667 -24 -32c0 -6 3.33301 -12 10 -18s13 -9 19 -9c2 0 8.33301 3.5 19 10.5s23.167 15.833 37.5 26.5l46 35.5
l45 37c13.667 11.667 25 22 34 31s13.5 14.833 13.5 17.5c0 8 -3.16699 13.667 -9.5 17s-9.5 6.66602 -9.5 9.99902s9.83301 12.333 29.5 27s48.834 33.667 87.501 57c19.333 11.333 39 21.666 59 30.999s38.667 17.166 56 23.499s32.5 11.166 45.5 14.499s22.167 5 27.5 5
c18.667 0 28 -10.333 28 -31c0 -14.667 -6 -35 -18 -61s-27.167 -54.5 -45.5 -85.5l-60 -97l-61.5 -96.5l-44.5 -70l-49.5 -80l-49.5 -81l-43.5 -72.5c-12.667 -21.667 -22.834 -39.834 -30.501 -54.501s-11.5 -23.334 -11.5 -26.001
c0 -8.66699 3.83301 -15.834 11.5 -21.501s14.167 -8.5 19.5 -8.5c2 0 7.33301 3.5 16 10.5l32.5 27.5l43.5 38.5l48 43.5l46 42l38 34c20.667 18 48.167 43.667 82.5 77l116 111.5l138.5 130l150 133.5l120.5 98.5c40.333 31.667 79.5 59.5 117.5 83.5
s74.167 43.167 108.5 57.5s65.833 21.5 94.5 21.5c35.333 0 63.666 -9 84.999 -27c13.333 -11.333 22 -22 26 -32c5.33301 4 9.83301 7 13.5 9s4.83398 5.33301 3.50098 10z" />
    <glyph glyph-name="W" unicode="W" horiz-adv-x="1106" 
d="M1186 420c0 25.333 -5.33105 48.5039 -15.998 69.5039s-24.5 39 -41.5 54s-36.167 26.667 -57.5 35s-43 12.5 -65 12.5c-7.33301 0 -15.5 -1.16699 -24.5 -3.5s-15.833 -4.5 -20.5 -6.5c0 -2.66699 0.333008 -6.16699 1 -10.5s2.66699 -7.16602 6 -8.49902
c8.66699 4.66699 22.334 7 41.001 7c14 0 29 -3.5 45 -10.5s31 -17.333 45 -31s25.5 -30.667 34.5 -51s13.5 -43.833 13.5 -70.5c0 -34.667 -7.83301 -70 -23.5 -106s-36.167 -70.667 -61.5 -104s-53.666 -64.666 -84.999 -93.999s-63 -55 -95 -77s-62.5 -39.333 -91.5 -52
s-53.5 -19 -73.5 -19c-30 0 -52.333 9.83301 -67 29.5s-22 42.834 -22 69.501c0 27.333 3.16699 56 9.5 86s14.5 59.5 24.5 88.5s20.5 56.833 31.5 83.5s21.5 50.5 31.5 71.5l24.5 52.5c6.33301 14 9.5 22.667 9.5 26c0 11.333 -5 20.666 -15 27.999s-19 11 -27 11
c-4 0 -13.333 -6.66699 -28 -20s-31.5 -29.5 -50.5 -48.5l-60 -61l-56.5 -56.5l-58 -54.5l-64 -58l-54.5 -48.5c-15.667 -14 -25.5 -22.667 -29.5 -26l-11 3c2.66699 4 10.167 16.167 22.5 36.5l44 73l54 91l54.5 89.5l49.5 79.5c16.333 25.667 30.833 50.167 43.5 73.5
s23 45.833 31 67.5s12 42.167 12 61.5c0 10 -2.5 19.667 -7.5 29s-11.833 17.5 -20.5 24.5s-18.334 12.667 -29.001 17s-22 6.5 -34 6.5c-30.667 0 -64.167 -7.83301 -100.5 -23.5s-72.833 -35.5 -109.5 -59.5s-72.334 -50 -107.001 -78s-65.167 -54.667 -91.5 -80
s-47.5 -47 -63.5 -65s-24 -28.667 -24 -32c0 -6 3.33301 -12 10 -18s13 -9 19 -9c2 0 8.33301 3.5 19 10.5s23.167 15.833 37.5 26.5l46 35.5l45 37c13.667 11.667 25 22 34 31s13.5 14.833 13.5 17.5c0 8 -3.16699 13.667 -9.5 17s-9.5 6.66602 -9.5 9.99902
s9.83301 12.333 29.5 27s48.834 33.667 87.501 57c19.333 11.333 39 21.666 59 30.999s38.667 17.166 56 23.499s32.5 11.166 45.5 14.499s22.167 5 27.5 5c18.667 0 28 -10.333 28 -31c0 -14.667 -6 -35 -18 -61s-27.167 -54.5 -45.5 -85.5l-60 -97l-61.5 -96.5l-44.5 -70
l-49.5 -80l-49.5 -81l-43.5 -72.5c-12.667 -21.667 -22.834 -39.834 -30.501 -54.501s-11.5 -23.334 -11.5 -26.001c0 -8.66699 3.83301 -15.834 11.5 -21.501s14.167 -8.5 19.5 -8.5c2 0 7.5 3.33301 16.5 10s20.167 15.5 33.5 26.5l44 37l48.5 41.5l47 40.5l38.5 34.5
c10.667 9.33301 23.667 21.333 39 36l48.5 47.5l51 51l46 46.5l34.5 35c9.33301 9.33301 14.666 15 15.999 17l5 -3c-1.33301 -2.66699 -6 -13.5 -14 -32.5s-16.667 -42 -26 -69s-17.833 -56 -25.5 -87s-11.5 -59.833 -11.5 -86.5c0 -54 12.667 -97.833 38 -131.5
s60 -50.5 104 -50.5c21.333 0 47.666 6 78.999 18s64.5 28.833 99.5 50.5s69.667 47.5 104 77.5s65.333 63 93 99s50.167 74.333 67.5 115s26 82.334 26 125.001z" />
    <glyph glyph-name="X" unicode="X" horiz-adv-x="721" 
d="M1132 644c-12 23.333 -30.168 42.3418 -54.501 57.0088s-49.5 22 -75.5 22c-22.667 0 -49.5 -6.33301 -80.5 -19s-65 -29.834 -102 -51.501s-76.167 -47.167 -117.5 -76.5l-128 -94c27.333 41.333 50 80.333 68 117s27 71 27 103c0 10 -2.5 19.667 -7.5 29
s-11.667 17.5 -20 24.5s-18 12.667 -29 17s-22.167 6.5 -33.5 6.5c-30.667 0 -64.334 -7.83301 -101.001 -23.5s-73.334 -35.5 -110.001 -59.5s-72.167 -50 -106.5 -78s-64.833 -54.667 -91.5 -80s-48 -47 -64 -65s-24 -28.667 -24 -32c0 -6 3.33301 -12 10 -18
s13.334 -9 20.001 -9c2 0 8.16699 3.5 18.5 10.5s22.666 15.833 36.999 26.5l46 35.5l45 37c13.667 11.667 25 22 34 31s13.5 14.833 13.5 17.5c0 8 -3.16699 13.667 -9.5 17s-9.5 6.66602 -9.5 9.99902s9.83301 12.333 29.5 27s48.834 33.667 87.501 57
c19.333 11.333 39 21.666 59 30.999s38.667 17.166 56 23.499s32.5 11.166 45.5 14.499s22.167 5 27.5 5c18.667 0 28 -10.333 28 -31c0 -14.667 -5.83301 -35 -17.5 -61s-26.5 -54.833 -44.5 -86.5s-37.833 -64.167 -59.5 -97.5l-63.5 -95l-22 -33l-142 -117l-132 -109.5
l-114.5 -92.5c-35 -27.333 -64.833 -49 -89.5 -65c1.33301 -3.33301 2.66602 -6.16602 3.99902 -8.49902s3.33301 -4 6 -5s6.5 -0.833008 11.5 0.5s11.833 4.33301 20.5 9c22 12 46.667 27.5 74 46.5s56.333 40.5 87 64.5l96.5 77.5l103.5 86.5
c-17.333 -28.667 -31.666 -56.667 -42.999 -84s-17 -52.666 -17 -75.999c0 -31.333 7.83301 -57 23.5 -77s41.5 -30 77.5 -30c26.667 0 56.167 4.66699 88.5 14s65 21.333 98 36s64.833 30.667 95.5 48s57.834 34 81.501 50s42.667 30 57 42s21.5 19.667 21.5 23
c0 6 -2.16699 10.5 -6.5 13.5s-9.5 4.5 -15.5 4.5c-10 -9.33301 -24.167 -20.833 -42.5 -34.5s-39.333 -27.834 -63 -42.501s-49.334 -29.334 -77.001 -44.001s-56 -27.834 -85 -39.501s-58 -21.167 -87 -28.5s-56.167 -11 -81.5 -11c-15.333 0 -28.166 2.66699 -38.499 8
s-15.5 16.666 -15.5 33.999c0 10.667 5.5 27.167 16.5 49.5s25.667 48.333 44 78l63 97.5l73.5 109l144.5 115c47.667 36.667 93 69 136 97s83.167 50.333 120.5 67s70 25 98 25c17.333 0 33.333 -2.33301 48 -7s26.667 -11.334 36 -20.001
c14.667 -12.667 23.334 -23.334 26.001 -32.001c6 4 10.833 7 14.5 9s4.5 5.33301 2.5 10z" />
    <glyph glyph-name="Y" unicode="Y" horiz-adv-x="792" 
d="M989 618c1.33301 3.33301 1 6.50098 -1 9.50098s-5 5.16699 -9 6.5c-8.66699 0 -22 -5 -40 -15s-39 -23.167 -63 -39.5s-50.5 -35.333 -79.5 -57l-88.5 -68l-90 -71.5l-84 -67l-125 -97.5l-128 -95c-40.667 -29 -76.834 -53 -108.501 -72s-53.834 -28.5 -66.501 -28.5
c-4 0 -6.66699 0.833008 -8 2.5s-2 3.16699 -2 4.5c0 10.667 6.5 25.834 19.5 45.501s30 42.834 51 69.501s45 55.667 72 87l82.5 97l82.5 100c27 33.333 51 65.333 72 96s38 59 51 85s19.5 48.333 19.5 67c0 13.333 -1 26 -3 38s-5.5 22.667 -10.5 32
s-12.167 16.666 -21.5 21.999s-21 8 -35 8c-22 0 -47.167 -6 -75.5 -18s-55.666 -26 -81.999 -42s-50 -31.833 -71 -47.5s-35.5 -26.834 -43.5 -33.501c-4 -3.33301 -8.16699 -3.33301 -12.5 0s-8.83301 5 -13.5 5c-1.33301 0 -5.5 -3.66699 -12.5 -11
s-15.333 -16.666 -25 -27.999l-30.5 -37l-29.5 -37.5c-9 -11.667 -16.5 -21.834 -22.5 -30.501s-9 -13.667 -9 -15c0 -5.33301 3.33301 -10.5 10 -15.5s11.667 -7.5 15 -7.5c2 0 9.66699 7.16699 23 21.5l48 50.5l59.5 60c21 20.667 40.167 37.334 57.5 50.001
c16.667 12.667 35.334 25.5 56.001 38.5s41.5 24.833 62.5 35.5s41.167 19.167 60.5 25.5s36.666 9.5 51.999 9.5c6.66699 0 12.667 -1.5 18 -4.5s8 -7.83301 8 -14.5c0 -23.333 -11.333 -52.5 -34 -87.5s-51 -73.167 -85 -114.5l-110 -129.5l-110 -131.5
c-34 -42.667 -62.333 -82.667 -85 -120s-34 -69 -34 -95c0 -18 5 -32.167 15 -42.5s21.333 -15.5 34 -15.5s29 4.83301 49 14.5s42.333 22.5 67 38.5s50.834 34.333 78.501 55l84 64.5l83 67l74.5 62.5l71 57.5l83 64l86 64l81 57.5c-8 -21.333 -18.667 -46 -32 -74
l-43.5 -87c-15.667 -30 -32.334 -59.833 -50.001 -89.5l-51.5 -83.5c-46.667 -3.33301 -95.167 -13.833 -145.5 -31.5s-99.833 -40.5 -148.5 -68.5s-95 -59.333 -139 -94s-82.667 -70.334 -116 -107.001s-59.833 -73.167 -79.5 -109.5s-29.5 -69.5 -29.5 -99.5
c0 -14 2.5 -25.833 7.5 -35.5s11.333 -17.667 19 -24s16 -10.833 25 -13.5s17.833 -4 26.5 -4c23.333 0 49.166 5.66699 77.499 17s57.833 27 88.5 47s62.167 43.5 94.5 70.5s64.333 56.167 96 87.5s62.5 64 92.5 98s58 67.667 84 101c16 20.667 32.167 42.834 48.5 66.501
l49.5 73.5c8 -3.33301 14.333 -8 19 -14l13 -17c3.33301 -1.33301 6.83301 -0.833008 10.5 1.5s5.16699 5.16602 4.5 8.49902c-3.33301 6.66699 -7.66602 13.667 -12.999 21s-12.666 13.666 -21.999 18.999c24.667 39.333 48.5 79.333 71.5 120s43.667 79.167 62 115.5
s33.833 69 46.5 98s21 52.167 25 69.5c18 10.667 28.333 16 31 16zM675 183.001l-18.498 -28.5l-19.5 -29.5c-26.667 -40 -56 -79.667 -88 -119s-65 -77 -99 -113s-68 -69.5 -102 -100.5s-66.333 -58 -97 -81s-58.834 -41 -84.501 -54s-47.167 -19.5 -64.5 -19.5
c-22.667 0 -37.167 5.33301 -43.5 16s-9.5 22 -9.5 34c0 26 9.16699 55.667 27.5 89s43 67.5 74 102.5s67.167 69.667 108.5 104s85.166 65.5 131.499 93.5s94 51.5 143 70.5s96.167 30.833 141.5 35.5z" />
    <glyph glyph-name="Z" unicode="Z" horiz-adv-x="797" 
d="M1050 715c0 1.33301 -1.66797 2.50098 -5.00098 3.50098s-7.33301 1.66699 -12 2l-14.5 1c-5 0.333008 -9.16699 0.5 -12.5 0.5c7.33301 5.33301 14.5 12.5 21.5 21.5s10.5 16.167 10.5 21.5c0 9.33301 -3 14 -9 14c-4.66699 0 -11.667 -2.33301 -21 -7
s-19 -10.167 -29 -16.5l-28 -18.5l-19 -13c-12.667 0 -30 0.333008 -52 1s-46.333 1.33398 -73 2.00098s-54.834 1.5 -84.501 2.5s-58.834 1.83301 -87.501 2.5s-56 1 -82 1h-66v5c4 0.666992 10.333 2.33398 19 5.00098l26.5 8.5c9 3 17 6.33301 24 10s10.5 7.5 10.5 11.5
c0 6.66699 -3.33301 10 -10 10c-7.33301 0 -21.5 -1.5 -42.5 -4.5s-44.833 -7 -71.5 -12s-54.667 -10.667 -84 -17s-56.166 -13 -80.499 -20s-44.5 -13.833 -60.5 -20.5s-24 -13 -24 -19c0 -7.33301 3.16699 -12.5 9.5 -15.5s12.166 -4.5 17.499 -4.5
c38.667 0 77.167 2 115.5 6s76.833 7.33301 115.5 10c74 4.66699 149.333 8.5 226 11.5s152.334 4.83301 227.001 5.5l-71 -50l-104.5 -76.5l-126 -94.5l-135.5 -105l-141.5 -114.5l-123.5 -104.5c-36.667 -32 -67 -59.667 -91 -83s-38.667 -40.333 -44 -51
c-2.66699 -4.66699 -4.66699 -9.33398 -6 -14.001s-2 -11.667 -2 -21c0 -7.33301 2 -13.333 6 -18s9.66699 -7 17 -7c6 0 14.833 1.83301 26.5 5.5s23.834 7.83398 36.501 12.501l36.5 14c11.667 4.66699 21.167 8 28.5 10c50 16.667 100.333 28.167 151 34.5
s102.334 9.5 155.001 9.5c39.333 0 78.5 -1.5 117.5 -4.5s77.833 -7.16699 116.5 -12.5c2 1.33301 4.16699 3.16602 6.5 5.49902s3.5 4.83301 3.5 7.5c0 3.33301 -1.16699 5.83301 -3.5 7.5s-4.83301 3.16699 -7.5 4.5c-26 8 -58.5 14.833 -97.5 20.5s-80.5 8.5 -124.5 8.5
c-34 0 -68.5 -1.33301 -103.5 -4s-68.667 -6.33398 -101 -11.001s-62.666 -10.334 -90.999 -17.001s-52.5 -14 -72.5 -22l93 85.5l104.5 91l105.5 89l97 80.5l205.5 163l212.5 156c4.66699 -1.33301 9.16699 -1.33301 13.5 0s8.83301 2 13.5 2
c9.33301 0 19.166 1.5 29.499 4.5s15.5 6.5 15.5 10.5z" />
    <glyph glyph-name="bracketleft" unicode="[" horiz-adv-x="500" 
d="M619 664h-56.999c-16 0 -28.333 -3 -37 -9s-16.667 -18 -24 -36l-278 -693c-12.667 -31.333 -5.33398 -47 21.999 -47h59l-12 -29h-174l339 843h174z" />
    <glyph glyph-name="backslash" unicode="\" horiz-adv-x="548" 
d="M491 -29l-387 824h-46l387 -824h46z" />
    <glyph glyph-name="bracketright" unicode="]" horiz-adv-x="500" 
d="M203 -150h-174.001l12 29h57c16 0 28.333 3 37 9s16.667 18 24 36l278 693c12.667 31.333 5.33398 47 -21.999 47h-59l12 29h174z" />
    <glyph glyph-name="asciicircum" unicode="^" horiz-adv-x="665" 
d="M632 522l-258 277h-80l-258 -277h65l232 220l231 -220h68z" />
    <glyph glyph-name="underscore" unicode="_" horiz-adv-x="490" 
d="M-42 -89v46h490v-46h-490z" />
    <glyph glyph-name="grave" unicode="`" horiz-adv-x="232" 
d="M168 653c1.33301 -4 0.333984 -6.33594 -2.99902 -7.00293c-3.33301 -1.33301 -6.33301 -1 -9 1c-4 12.667 -11 23.334 -21 32.001s-20.833 15.834 -32.5 21.501s-22.667 10 -33 13l-22.5 6.5c0 2.66699 0.833008 6 2.5 10s3.66699 8 6 12s4.83301 7.5 7.5 10.5
s5.33398 4.83301 8.00098 5.5l7 3.5c3.33301 1.66699 6.66602 0.833984 9.99902 -2.49902c6 -8 13 -16.167 21 -24.5l23.5 -25.5c7.66699 -8.66699 14.667 -17.667 21 -27s11.166 -19 14.499 -29z" />
    <glyph glyph-name="a" unicode="a" horiz-adv-x="358" 
d="M471 215c3.33301 7.33301 3.83301 12.667 1.5 16s-4.5 5 -6.5 5c-2.66699 -3.33301 -7 -8.33301 -13 -15s-13.333 -14.334 -22 -23.001l-28 -28.5l-30 -30.5c-18.667 -17.333 -36.334 -32.666 -53.001 -45.999s-28.667 -20 -36 -20c-5.33301 0 -8.83301 2 -10.5 6
s-2.5 8.66699 -2.5 14c0 6.66699 1.33301 14.334 4 23.001s5.66699 17.5 9 26.5s6.33301 17.667 9 26s4 15.5 4 21.5c0 9.33301 -2.5 16 -7.5 20s-11.5 6 -19.5 6c-3.33301 0 -8.33301 -1.66699 -15 -5c4 6.66699 8.33301 14.334 13 23.001s8.83398 17.167 12.501 25.5
s6.66699 16 9 23s3.5 12.5 3.5 16.5c0 15.333 -4.5 26.666 -13.5 33.999s-20.167 11 -33.5 11c-16 0 -33.333 -5.5 -52 -16.5s-37.167 -25.333 -55.5 -43s-36 -37.667 -53 -60s-32 -45.166 -45 -68.499s-23.5 -46 -31.5 -68s-12 -41.333 -12 -58c0 -10 2.16699 -19 6.5 -27
s9.83301 -12 16.5 -12c4.66699 0 12 3.5 22 10.5s21 15.333 33 25s24.167 20 36.5 31l31.5 28.5l28.5 25.5l29 25l23 19.5c6.33301 5.33301 9.83301 8 10.5 8c1.33301 0 2.5 -0.666992 3.5 -2s1.16699 -3 0.5 -5c-1.33301 -2.66699 -3.16602 -10.334 -5.49902 -23.001
s-3.5 -23.334 -3.5 -32.001c0 -17.333 2.66699 -32 8 -44s14 -18 26 -18c8 0 17.333 2.83301 28 8.5s21.167 12.5 31.5 20.5s20.333 16.333 30 25s18.167 16 25.5 22c6.66699 6 15 14.167 25 24.5l29.5 31l25.5 28c7.33301 8.33301 11.666 13.5 12.999 15.5zM272 300.001
c0 -2.66699 -2.33301 -8.33594 -7 -17.0029l-15.5 -27.5l-16.5 -27c-5.33301 -8.33301 -8.66602 -13.166 -9.99902 -14.499c-2.66699 -3.33301 -5.33398 -6.16602 -8.00098 -8.49902s-4 -4.16602 -4 -5.49902s1.66699 -3 5 -5s7.33301 -3.66699 12 -5l-32 -29l-35 -32
l-38 -33.5c-14 -12.333 -27.5 -23.666 -40.5 -33.999s-24.333 -19 -34 -26s-15.5 -10.5 -17.5 -10.5s-3 3.33301 -3 10c0 10.667 5.33301 26 16 46s25.667 42.667 45 68c14.667 19.333 30.667 38.666 48 57.999s34.333 36.5 51 51.5s31.667 27.167 45 36.5s23.333 14 30 14
c6 0 9 -3 9 -9z" />
    <glyph glyph-name="b" unicode="b" horiz-adv-x="311" 
d="M670 745c0 13.333 -2.66699 23.834 -8 31.501s-13.666 11.5 -24.999 11.5c-18 0 -41.167 -8.33301 -69.5 -25s-59.166 -39.167 -92.499 -67.5s-68.5 -61.166 -105.5 -98.499s-73.333 -76.5 -109 -117.5s-69.5 -82.833 -101.5 -125.5s-60.333 -83.334 -85 -122.001
s-44.167 -74 -58.5 -106s-21.5 -58.333 -21.5 -79c0 -22 7.16699 -38.667 21.5 -50s32.166 -17 53.499 -17c20.667 0 42 6 64 18s43.167 27 63.5 45s38.833 37.5 55.5 58.5s30 40.167 40 57.5c4.66699 0.666992 9 1.5 13 2.5s7 1.5 9 1.5
c8 1.33301 9.66699 4.66602 5 9.99902c-1.33301 1.33301 -2.83301 4.33301 -4.5 9l-5.5 15c0 1.33301 0.166992 2.5 0.5 3.5s0.5 2.16699 0.5 3.5c0 9.33301 -2 16.666 -6 21.999s-12.333 8 -25 8c-9.33301 0 -15.833 -3.5 -19.5 -10.5s-5.5 -16.167 -5.5 -27.5
c0 -8.66699 1.16699 -14.5 3.5 -17.5s4.16602 -5.16699 5.49902 -6.5c0 -5.33301 -3.5 -13.166 -10.5 -23.499s-16 -21.833 -27 -34.5s-23.5 -25.667 -37.5 -39s-28.167 -25.333 -42.5 -36s-28.333 -19.5 -42 -26.5s-25.5 -10.5 -35.5 -10.5
c-7.33301 0 -13.166 2.5 -17.499 7.5s-6.5 12.167 -6.5 21.5c0 8 2.66699 20 8 36s11.666 32.333 18.999 49s14.833 32.167 22.5 46.5s13.5 24.5 17.5 30.5c19.333 8 42.5 20.167 69.5 36.5s55.667 35.5 86 57.5s61.833 46.167 94.5 72.5s64.334 53.5 95.001 81.5
c29.333 26.667 57 54 83 82s48.667 55.167 68 81.5s34.666 51.5 45.999 75.5s17 45.667 17 65zM640 718.001c0 -11.333 -5.66699 -25.998 -17 -43.998s-26.666 -38.333 -45.999 -61s-41.5 -46.834 -66.5 -72.501s-51.5 -51.5 -79.5 -77.5l-88.5 -79l-84 -69.5
c-26.333 -21 -50.166 -38.833 -71.499 -53.5s-38 -24.667 -50 -30c27.333 39.333 56.666 78.666 87.999 117.999l89 110c10 12 23.667 27.333 41 46l56 58.5l62.5 61.5c21.667 20.667 42.167 39.167 61.5 55.5s36.666 29.666 51.999 39.999s27 15.5 35 15.5
c6 0 10.5 -1.16699 13.5 -3.5s4.5 -7.16602 4.5 -14.499z" />
    <glyph glyph-name="c" unicode="c" horiz-adv-x="260" 
d="M375 217c3.33301 5.33301 4.16699 10.832 2.5 16.499s-5.5 8.5 -11.5 8.5c-9.33301 -12.667 -24.333 -30 -45 -52s-43 -44.333 -67 -67c-14 -12.667 -28.167 -24.834 -42.5 -36.501s-28.166 -22 -41.499 -31s-25.833 -16.167 -37.5 -21.5s-21.834 -8 -30.501 -8
c-10.667 0 -19.167 3.83301 -25.5 11.5s-9.5 18.167 -9.5 31.5c0 24.667 6 49.834 18 75.501s26.5 49.167 43.5 70.5s34.333 38.833 52 52.5s32.5 20.5 44.5 20.5c5.33301 0 8 -1.66699 8 -5v-12c0 -4 -0.666992 -8.33301 -2 -13s-2 -8.66699 -2 -12c0 -4.66699 1 -7 3 -7
c5.33301 0 12 3 20 9s12 15.667 12 29c0 4 -1.83301 9.5 -5.5 16.5s-8.16699 13.833 -13.5 20.5s-11.166 12.334 -17.499 17.001s-12.166 7 -17.499 7c-13.333 0 -30.833 -7.5 -52.5 -22.5s-43.167 -34.667 -64.5 -59s-39.666 -51.833 -54.999 -82.5
s-23 -61.334 -23 -92.001c0 -27.333 7.66699 -48.166 23 -62.499s35 -21.5 59 -21.5c11.333 0 23.666 2.83301 36.999 8.5s27.333 13.167 42 22.5s29.5 20.333 44.5 33l44.5 39c23.333 21.333 44.666 42.5 63.999 63.5s34.666 38.5 45.999 52.5z" />
    <glyph glyph-name="d" unicode="d" horiz-adv-x="404" 
d="M732 646c0 35.333 -18.3291 53 -54.9961 53c-24.667 0 -49.667 -6.66699 -75 -20s-50.333 -31.5 -75 -54.5s-48.667 -50.167 -72 -81.5s-45 -65 -65 -101s-38.167 -73.5 -54.5 -112.5s-29.5 -77.833 -39.5 -116.5l-90.5 -76c-29 -23.333 -55.333 -43.5 -79 -60.5
s-44 -30.5 -61 -40.5s-29.167 -15 -36.5 -15c-3.33301 0 -5 3 -5 9c0 9.33301 4.66699 22.5 14 39.5s21.333 35.5 36 55.5s31 40.167 49 60.5s35.667 38.833 53 55.5s33.166 30.334 47.499 41.001s25.5 16 33.5 16s12.333 -1.83301 13 -5.5s1 -7.16699 1 -10.5
c0 -2.66699 1.5 -4.5 4.5 -5.5s6.16699 -1.5 9.5 -1.5s7 0.5 11 1.5s6 4.83301 6 11.5c0 15.333 -5.33301 27.5 -16 36.5s-23.334 13.5 -38.001 13.5s-31.334 -5.5 -50.001 -16.5s-37.667 -25.333 -57 -43s-38.166 -37.834 -56.499 -60.501s-34.833 -45.834 -49.5 -69.501
s-26.334 -46.667 -35.001 -69s-13 -42.166 -13 -59.499c0 -13.333 2.5 -22.666 7.5 -27.999s9.83301 -8 14.5 -8c9.33301 0 23.166 4.66699 41.499 14s39.666 22.166 63.999 38.499s51.166 35.833 80.499 58.5l91 73c-5.33301 -24 -9.33301 -47.333 -12 -70
s-4 -44.667 -4 -66c0 -46.667 6.5 -82.167 19.5 -106.5s29.833 -36.5 50.5 -36.5c7.33301 0 14.333 1.5 21 4.5s12.334 6.83301 17.001 11.5c1.33301 2.66699 1.5 5.33398 0.5 8.00098s-3.16699 3.66699 -6.5 3c-3.33301 -2.66699 -6.5 -4.83398 -9.5 -6.50098
s-8.16699 -2.5 -15.5 -2.5c-13.333 0 -23.166 10.333 -29.499 31s-9.5 47 -9.5 79s2.83301 64.5 8.5 97.5s14.167 66.5 25.5 100.5l141.5 128c46.333 44 88 85.833 125 125.5s66.833 75.167 89.5 106.5s34 55 34 71zM705.004 644c0 -14 -10.1699 -34.334 -30.5029 -61.001
s-46.666 -57.167 -78.999 -91.5s-69.166 -71 -110.499 -110l-126 -114.5c18.667 50 41.334 98.333 68.001 145s54.667 88.334 84 125.001s59 66 89 88s57.667 33 83 33c7.33301 0 13 -1.5 17 -4.5s5.66699 -6.16699 5 -9.5z" />
    <glyph glyph-name="e" unicode="e" horiz-adv-x="280" 
d="M395 217c3.33301 5.33301 4.16602 10.8291 2.49902 16.4961s-5.5 8.5 -11.5 8.5c-11.333 -15.333 -28.166 -34.666 -50.499 -57.999s-46.5 -46.333 -72.5 -69c-14 -12 -28.167 -23.333 -42.5 -34s-28.5 -20.167 -42.5 -28.5s-27.5 -14.833 -40.5 -19.5
s-24.833 -7 -35.5 -7s-19.167 3.83301 -25.5 11.5s-9.5 18.167 -9.5 31.5c0 12 2.33301 25 7 39s10.667 28 18 42c15.333 4 34.166 10.667 56.499 20s43.666 20 63.999 32s37.833 24.5 52.5 37.5s22 25.5 22 37.5c0 10.667 -4.33301 18.334 -13 23.001s-16 9 -22 13
s-12.167 9.16699 -18.5 15.5s-14.166 9.5 -23.499 9.5c-13.333 0 -30.833 -7.5 -52.5 -22.5s-43.167 -34.667 -64.5 -59s-39.666 -51.833 -54.999 -82.5s-23 -61.334 -23 -92.001c0 -27.333 7.66699 -48.166 23 -62.499s35 -21.5 59 -21.5c14 0 28.833 2.83301 44.5 8.5
s31.5 13.334 47.5 23.001s32 20.834 48 33.501l47 39c30 26.667 54 50.167 72 70.5zM250 270.996c0 -3.33301 -4.50293 -8.66602 -13.5029 -15.999s-20 -15 -33 -23s-27.167 -15.5 -42.5 -22.5s-29.333 -11.833 -42 -14.5c8.66699 12.667 17.834 24.667 27.501 36
s19.334 21.166 29.001 29.499s18.834 15 27.501 20s16 7.5 22 7.5c10.667 0 17.5 -1.66699 20.5 -5s4.5 -7.33301 4.5 -12z" />
    <glyph glyph-name="f" unicode="f" horiz-adv-x="247" 
d="M553 619c2 8.66699 -1.66797 14.334 -11.001 17.001c-5.33301 -2 -10.166 -4.16699 -14.499 -6.5l-13.5 -7.5c0.666992 6.66699 0.666992 15 0 25s-2.5 19.667 -5.5 29s-7.33301 17.333 -13 24s-13.167 10 -22.5 10c-15.333 0 -30.833 -5 -46.5 -15
s-31.5 -23.5 -47.5 -40.5s-31.667 -36.667 -47 -59s-30.333 -45.5 -45 -69.5c-14 -23.333 -27.167 -46.5 -39.5 -69.5l-34.5 -65c-10.667 -20.333 -20 -39 -28 -56l-21 -43.5c-9.33301 -0.666992 -19.666 -1.66699 -30.999 -3s-22.5 -3 -33.5 -5s-21.667 -4.16699 -32 -6.5
s-19.5 -4.5 -27.5 -6.5c-3.33301 -0.666992 -6.5 -2 -9.5 -4s-4.5 -4.66699 -4.5 -8s1.16699 -6.5 3.5 -9.5s5.16602 -4.16699 8.49902 -3.5c6.66699 2 14.834 4 24.501 6s19.667 3.83301 30 5.5s20.333 3 30 4s18.5 1.5 26.5 1.5
c-3.33301 -7.33301 -8.66602 -18.5 -15.999 -33.5l-25.5 -52.5l-32.5 -66l-38 -73l-57.5 -105c-19.667 -34.667 -38.834 -65.834 -57.501 -93.501s-36.167 -50.167 -52.5 -67.5s-29.833 -26 -40.5 -26c-6.66699 0 -12 2 -16 6s-7 8.66699 -9 14s-3.33301 11.166 -4 17.499
s-1 11.833 -1 16.5c0 22.667 4.33301 46.167 13 70.5s19 45.833 31 64.5c-1.33301 6 -4 9 -8 9c-6.66699 0 -13.5 -5.66699 -20.5 -17s-13.5 -24.5 -19.5 -39.5s-11.167 -29.5 -15.5 -43.5s-6.5 -23.667 -6.5 -29v-12c0 -8.66699 0.833008 -17.667 2.5 -27
s4.83398 -17.666 9.50098 -24.999s10.5 -13.5 17.5 -18.5s15.833 -7.5 26.5 -7.5c17.333 0 35.333 7.16699 54 21.5s36.667 31.5 54 51.5s33.166 40.5 47.499 61.5s25.5 38.167 33.5 51.5c34 57.333 67.167 116.166 99.5 176.499l95.5 179.5l110 -11
c3.33301 -0.666992 6.5 0.5 9.5 3.5s4.5 6.16699 4.5 9.5c0 2.66699 -1.66699 4 -5 4c-2.66699 0 -4.66699 0.333008 -6 1c-4 0.666992 -10 1.83398 -18 3.50098s-16.833 3.33398 -26.5 5.00098s-19.5 3.16699 -29.5 4.5s-19 2 -27 2l60 116.5l59 116.5
c4 8 11.333 21.333 22 40s22.5 37.334 35.5 56.001s26.333 35.167 40 49.5s25.5 21.5 35.5 21.5c7.33301 0 12 -2.33301 14 -7s3 -10 3 -16c0 -6.66699 -1.33301 -13.834 -4 -21.501s-5.83398 -15 -9.50098 -22l-9.5 -18.5c-2.66699 -5.33301 -4 -9 -4 -11
c0 -3.33301 3 -8.83301 9 -16.5s10.667 -11.5 14 -11.5c2 0 4.66699 3.5 8 10.5l6 12.5c6 5.33301 13.667 11.666 23 18.999s18 11.333 26 12z" />
    <glyph glyph-name="g" unicode="g" horiz-adv-x="300" 
d="M309 264c0 16 -4.33398 23.9941 -13.001 23.9941c-0.666992 0 -2.83398 0.5 -6.50098 1.5s-7.16699 1.5 -10.5 1.5s-6.33301 -0.333008 -9 -1s-4.66699 -2.66699 -6 -6c-5.33301 -11.333 -13.833 -25.5 -25.5 -42.5s-25 -35.167 -40 -54.5s-30.833 -38.666 -47.5 -57.999
s-33 -36.666 -49 -51.999s-30.5 -27.833 -43.5 -37.5s-23.5 -14.5 -31.5 -14.5c-2 0 -3 3.33301 -3 10s2.33301 15.667 7 27s11 23.833 19 37.5s17.5 28 28.5 43s22.833 30.167 35.5 45.5c13.333 16.667 27.333 32.667 42 48s28.834 28.833 42.501 40.5s26.834 21 39.501 28
s23.667 10.5 33 10.5c14 0 25 -6.33301 33 -19c1.33301 5.33301 2 9.33301 2 12c0 12 -4.83301 21 -14.5 27s-21.167 9 -34.5 9c-18.667 0 -38 -5.5 -58 -16.5s-39.833 -25.333 -59.5 -43s-38.334 -37.667 -56.001 -60s-33.167 -45.166 -46.5 -68.499s-24 -46 -32 -68
s-12 -41.333 -12 -58c0 -10 2.16699 -19 6.5 -27s10.166 -12 17.499 -12c10 0 23.667 6.16699 41 18.5s36 28.333 56 48s40.333 41.334 61 65.001s39.667 46.834 57 69.501c-4.66699 -13.333 -11.5 -29.833 -20.5 -49.5s-18.667 -39.667 -29 -60s-20.5 -39.333 -30.5 -57
s-18 -30.834 -24 -39.501c-34 -7.33301 -69.833 -17.166 -107.5 -29.499s-76 -27 -115 -44s-77.667 -35.667 -116 -56s-75.166 -41.833 -110.499 -64.5c-37.333 -24 -72 -49 -104 -75s-59.833 -52 -83.5 -78s-42.334 -51.833 -56.001 -77.5s-20.5 -50.167 -20.5 -73.5
c0 -18.667 6.33301 -33 19 -43s26.667 -15 42 -15c30 0 64 7.33301 102 22s78.167 34.834 120.5 60.501s85.833 56 130.5 91s88.334 72.833 131.001 113.5c42 40 81.833 81.167 119.5 123.5s71.834 85.166 102.501 128.499c4 0.666992 7.83301 1.16699 11.5 1.5
s7.16699 0.5 10.5 0.5s7.16602 -0.166992 11.499 -0.5s8.5 -0.5 12.5 -0.5c10.667 0 16 2.66699 16 8c0 9.33301 -4.66699 14 -14 14c-3.33301 0 -8.16602 -0.166992 -14.499 -0.5s-12.5 -0.833008 -18.5 -1.5c16.667 25.333 32 50.833 46 76.5s25.833 50.334 35.5 74.001
s17.167 46.167 22.5 67.5s8 40 8 56zM113.999 -39.0059c-14.667 -20.667 -37.001 -47.501 -67.001 -80.501s-64.5 -68.333 -103.5 -106s-80.333 -75.667 -124 -114s-86.5 -72.833 -128.5 -103.5s-81.333 -55.667 -118 -75s-67.334 -29 -92.001 -29
c-11.333 0 -20.166 3.83301 -26.499 11.5s-9.5 16.834 -9.5 27.501c0 20 6.33301 41.5 19 64.5s30.167 46.5 52.5 70.5s48.5 48 78.5 72s62.333 47.333 97 70c34 22.667 69.667 44.167 107 64.5s74.333 38.833 111 55.5s72.334 31.167 107.001 43.5s67 21.833 97 28.5z" />
    <glyph glyph-name="h" unicode="h" horiz-adv-x="480" 
d="M670 745c0 13.333 -2.66211 23.8291 -7.99512 31.4961s-14 11.5 -26 11.5c-27.333 0 -57.833 -10.5 -91.5 -31.5s-68.834 -48.833 -105.501 -83.5s-73.834 -74.334 -111.501 -119.001s-74 -90.5 -109 -137.5s-67.833 -93.833 -98.5 -140.5s-57.334 -89 -80.001 -127
s-40.667 -70.167 -54 -96.5s-20 -42.833 -20 -49.5c0 -7.33301 1.83301 -12.666 5.5 -15.999s8.16699 -5 13.5 -5c4 0 12.5 5.5 25.5 16.5l47 41.5l60.5 55c22 20 44.333 39 67 57c28 22.667 55 41.834 81 57.501s48.667 23.5 68 23.5
c11.333 0 19.666 -3.83301 24.999 -11.5s8 -16.167 8 -25.5c0 -8 -0.333008 -18 -1 -30s-1.16699 -25.167 -1.5 -39.5s-0.833008 -29.333 -1.5 -45s-1 -30.834 -1 -45.501c0 -17.333 5.16699 -30.166 15.5 -38.499s20.5 -12.5 30.5 -12.5c9.33301 0 19.166 3 29.499 9
s20 12.833 29 20.5s16.833 15 23.5 22l13 13.5c1.33301 4.66699 0 8.33398 -4 11.001c-2 -2 -5.33301 -5 -10 -9s-9.83398 -8 -15.501 -12s-11.5 -7.5 -17.5 -10.5s-11.667 -4.5 -17 -4.5c-6.66699 0 -11.334 4.83301 -14.001 14.5s-4.16699 21.834 -4.5 36.501
s-0.166016 30.667 0.500977 48s1 33.333 1 48c0 30 -7.33301 52.333 -22 67s-34.667 22 -60 22c-23.333 0 -49.166 -7.66699 -77.499 -23s-56.5 -33.666 -84.5 -54.999c-20 -15.333 -39.333 -31.333 -58 -48s-35.167 -32 -49.5 -46l-35 -35l-15.5 -16l-2 3
c8.66699 17.333 21 39 37 65l56 87c19.333 8 42.5 20.167 69.5 36.5s55.667 35.5 86 57.5s61.833 46.167 94.5 72.5s64.334 53.5 95.001 81.5c29.333 26.667 57 54 83 82s48.667 55.167 68 81.5s34.666 51.5 45.999 75.5s17 45.667 17 65zM640.005 717.996
c0 -11.333 -5.66699 -25.998 -17 -43.998s-26.666 -38.333 -45.999 -61s-41.5 -46.834 -66.5 -72.501s-51.5 -51.5 -79.5 -77.5l-88.5 -79l-84 -69.5c-26.333 -21 -50.166 -38.833 -71.499 -53.5s-38 -24.667 -50 -30c27.333 39.333 56.666 78.666 87.999 117.999l89 110
c10 12 23.5 27.333 40.5 46s35.667 38.167 56 58.5l63 61.5c21.667 20.667 42.167 39.167 61.5 55.5s36.666 29.666 51.999 39.999s27 15.5 35 15.5c6 0 10.5 -1.16699 13.5 -3.5s4.5 -7.16602 4.5 -14.499z" />
    <glyph glyph-name="i" unicode="i" horiz-adv-x="175" 
d="M245 365c0 3.33301 -0.672852 8.49902 -2.00586 15.499s-2.66602 12.167 -3.99902 15.5c-1.33301 6.66699 -8.33301 10 -21 10c-7.33301 0 -14.166 -4.16699 -20.499 -12.5s-9.5 -15.833 -9.5 -22.5c0 -3.33301 1.33301 -6.83301 4 -10.5s5.83398 -7.16699 9.50098 -10.5
s7.33398 -6.16602 11.001 -8.49902s6.5 -3.5 8.5 -3.5s4.33301 1.16699 7 3.5s5.33398 5 8.00098 8s4.83398 6 6.50098 9s2.5 5.16699 2.5 6.5zM214.994 116.999c0.666992 4 0.00585938 6.99609 -1.99414 8.99609s-4 3 -6 3c-6 -5.33301 -15.167 -12.166 -27.5 -20.499
l-38.5 -25.5c-14.667 -8.66699 -28.834 -16.167 -42.501 -22.5s-24.834 -9.5 -33.501 -9.5c-4 0 -7 1.5 -9 4.5s-3 5.83301 -3 8.5c0 8 4.83301 19 14.5 33s19.5 27.333 29.5 40c4.66699 6 10.334 12.5 17.001 19.5l19 20l16 17.5c4.66699 5.33301 8 9 10 11
c3.33301 4.66699 6 12.334 8 23.001s3 18.667 3 24c0 4.66699 -2.66699 9.16699 -8 13.5s-12 6.5 -20 6.5c-6 0 -11.833 -1.66699 -17.5 -5s-10.834 -7.5 -15.501 -12.5s-8.5 -10.167 -11.5 -15.5s-4.5 -9.66602 -4.5 -12.999c0 -6.66699 -3.33301 -14 -10 -22
c-1.33301 -2 -5.83301 -8.16699 -13.5 -18.5s-15.834 -22.666 -24.501 -36.999s-16.334 -29.5 -23.001 -45.5s-10 -30.333 -10 -43c0 -14.667 3.66699 -24.667 11 -30s16 -8 26 -8c15.333 0 31.166 4.16699 47.499 12.5s30.166 15.833 41.499 22.5
c5.33301 3.33301 12 8 20 14l23.5 18l21 17c6.33301 5.33301 10.5 9 12.5 11z" />
    <glyph glyph-name="j" unicode="j" horiz-adv-x="145" 
d="M202 414c0 3.33301 -0.672852 8.5 -2.00586 15.5s-2.66602 12.167 -3.99902 15.5c-1.33301 7.33301 -8.33301 11 -21 11c-7.33301 0 -14.166 -4.33301 -20.499 -13s-9.5 -16.334 -9.5 -23.001c0 -3.33301 1.33301 -6.83301 4 -10.5s5.83398 -7.16699 9.50098 -10.5
s7.33398 -6.16602 11.001 -8.49902s6.5 -3.5 8.5 -3.5s4.33301 1.16699 7 3.5s5.33398 5 8.00098 8s4.83398 6 6.50098 9s2.5 5.16699 2.5 6.5zM148.994 264c0 16 -4.33398 23.998 -13.001 23.998c-9.33301 0 -17.333 -3 -24 -9s-12.5 -13.667 -17.5 -23
s-9.16699 -19.666 -12.5 -30.999l-10 -33c-4 -13.333 -10.5 -30 -19.5 -50s-18.833 -40 -29.5 -60l-31 -56.5c-10 -17.667 -18 -30.834 -24 -39.501c-31.333 -6.66699 -68 -17.5 -110 -32.5s-85.5 -33.167 -130.5 -54.5s-89.167 -45.333 -132.5 -72
s-82.166 -54.5 -116.499 -83.5s-62.166 -58.833 -83.499 -89.5s-32 -61 -32 -91c0 -18.667 6.33301 -33 19 -43s26.667 -15 42 -15c35.333 0 72 7.5 110 22.5s75.667 35.167 113 60.5s74.166 54 110.499 86s70.833 65.333 103.5 100s62.667 68.834 90 102.501
s51 64.5 71 92.5c3.33301 0.666992 7 1.16699 11 1.5s7.66699 0.5 11 0.5s7.16602 -0.166992 11.499 -0.5s8.5 -0.5 12.5 -0.5c10.667 0 16 2.66699 16 8c0 9.33301 -4.66699 14 -14 14c-3.33301 0 -8.16602 -0.166992 -14.499 -0.5s-12.5 -0.833008 -18.5 -1.5
c16.667 25.333 32 50.833 46 76.5s25.833 50.334 35.5 74.001s17.167 46.167 22.5 67.5s8 40 8 56zM-46.0068 -39.002c-14.667 -20.667 -34.3359 -45.668 -59.0029 -75.001s-52.5 -60 -83.5 -92s-63.667 -64 -98 -96s-68.5 -60.5 -102.5 -85.5s-66.667 -45.333 -98 -61
s-59.333 -23.5 -84 -23.5c-11.333 0 -20.166 4 -26.499 12s-9.5 17 -9.5 27c0 22.667 10 47.334 30 74.001s46.167 53.5 78.5 80.5s68.833 53.667 109.5 80s81.834 50.333 123.501 72s81.834 40.167 120.501 55.5s71.667 26 99 32z" />
    <glyph glyph-name="k" unicode="k" horiz-adv-x="366" 
d="M668 732c0 5.33301 -1.66602 11 -4.99902 17s-7.5 11.667 -12.5 17s-10.333 9.66602 -16 12.999s-11.167 5 -16.5 5c-22.667 0 -47.167 -7 -73.5 -21s-53.5 -32.833 -81.5 -56.5s-56.5 -51.167 -85.5 -82.5s-57.333 -64.333 -85 -99s-54.334 -69.834 -80.001 -105.501
l-71.5 -103l-59 -91l-42 -68.5c-3.33301 -5.33301 -9.16602 -15.333 -17.499 -30l-25.5 -46.5c-8.66699 -16.333 -16.334 -31.833 -23.001 -46.5s-10 -25 -10 -31c0 -5.33301 1.66699 -10.166 5 -14.499s8 -6.5 14 -6.5c13.333 24.667 27.5 48.834 42.5 72.501l45.5 70.5
c12 0 24.667 0.666992 38 2s27 3 41 5c8.66699 -3.33301 15 -7 19 -11c12 -11.333 21.167 -24.666 27.5 -39.999l19 -44.5c6.33301 -14.333 14.166 -26.5 23.499 -36.5s22.666 -15 39.999 -15c10 0 19.667 2.33301 29 7s18 10.334 26 17.001s15.5 13.834 22.5 21.501
s13.167 14.167 18.5 19.5v5c0 2 -1.66699 4 -5 6l-12 -11.5c-4.66699 -4.33301 -9.66699 -8.33301 -15 -12s-10.833 -6.66699 -16.5 -9s-10.834 -3.5 -15.501 -3.5c-20.667 0 -36.834 4.5 -48.501 13.5s-21.5 19.5 -29.5 31.5s-15 24 -21 36s-14 21.333 -24 28
c-3.33301 0.666992 -5.66602 2 -6.99902 4c24.667 4.66699 48.834 10.667 72.501 18s44.834 15.5 63.501 24.5s33.667 18.5 45 28.5s17 20.333 17 31c0 6 -1.5 13.333 -4.5 22s-7.16699 17 -12.5 25s-11.666 14.667 -18.999 20s-15 8 -23 8
c-14 0 -30.833 -4.33301 -50.5 -13s-39.167 -19 -58.5 -31s-37 -24.167 -53 -36.5s-27 -21.833 -33 -28.5l44 62.5l45 61.5c50 21.333 99.5 44.666 148.5 69.999s94.833 55.666 137.5 90.999c16.667 13.333 34.667 29.166 54 47.499s37.5 38 54.5 59
s31.167 42.833 42.5 65.5s17 45.667 17 69zM638.001 718c0 -16.667 -5.33301 -34.6699 -16 -54.0029s-23.667 -38.166 -39 -56.499s-31.5 -35.5 -48.5 -51.5s-31.5 -29 -43.5 -39c-38 -32 -78.167 -60 -120.5 -84s-86.166 -45.667 -131.499 -65
c7.33301 10.667 17 23.834 29 39.501l40.5 51l48.5 58l53 60.5l58.5 60c19.667 19.333 38.667 36.333 57 51s35.666 26.334 51.999 35.001s30.5 13 42.5 13s18 -6 18 -18zM339.001 232.997c0 -8 -9.66797 -16.5 -29.001 -25.5s-42.166 -17.5 -68.499 -25.5
s-53.333 -14.667 -81 -20s-49.5 -8 -65.5 -8c6.66699 4.66699 19.667 12.834 39 24.501s40.5 23.667 63.5 36s45 23.166 66 32.499s36.167 14 45.5 14c20 0 30 -9.33301 30 -28zM115 141.997c-6 0 -10.332 0.166992 -12.999 0.5s-1.33398 0.5 3.99902 0.5
c3.33301 0 6.33301 -0.333008 9 -1z" />
    <glyph glyph-name="l" unicode="l" horiz-adv-x="195" 
d="M596 729c0 10.667 -3.33008 20.332 -9.99707 28.999s-16.667 13 -30 13c-29.333 0 -61.333 -12.167 -96 -36.5s-69.834 -56.166 -105.501 -95.499s-70.834 -83.5 -105.501 -132.5s-66.334 -98.5 -95.001 -148.5s-53.334 -97.667 -74.001 -143
s-35.334 -83.666 -44.001 -114.999c-4 -15.333 -6 -30.333 -6 -45s3.5 -28.167 10.5 -40.5s20.167 -18.5 39.5 -18.5c24 0 44.667 8 62 24c0 0.666992 0.166992 1.5 0.5 2.5s0.5 2.16699 0.5 3.5s-0.166992 2.66602 -0.5 3.99902s-1.83301 1.66602 -4.5 0.999023
c-10.667 -9.33301 -24 -14 -40 -14c-13.333 0 -22.333 3.5 -27 10.5s-7 15.167 -7 24.5c0 10 2.33301 22.833 7 38.5s10.167 31.667 16.5 48s12.833 32 19.5 47s12.334 27.167 17.001 36.5l50 42.5l71.5 60l83 72.5l85.5 80c24.667 24 48 47.833 70 71.5
s41.333 46.334 58 68.001s29.834 42.167 39.501 61.5s14.5 36.333 14.5 51zM559.003 696.998c0 -6 -4.5 -15.999 -13.5 -29.999s-21 -30.167 -36 -48.5s-32.5 -38.333 -52.5 -60s-41 -42.834 -63 -63.501l-73 -69l-70 -63l-59 -51l-39 -33c7.33301 14 17.333 31.167 30 51.5
s27.167 42 43.5 65l53 71.5l58.5 73c20 24 40 46.667 60 68s39.167 40 57.5 56s35.5 28.667 51.5 38s29.667 14 41 14c5.33301 0 8.5 -1.83301 9.5 -5.5s1.5 -8.16699 1.5 -13.5z" />
    <glyph glyph-name="m" unicode="m" horiz-adv-x="568" 
d="M549 191c0 17.333 -3.00293 30.002 -9.00293 38.002s-16.333 12 -31 12c-16.667 0 -34.667 -5.66699 -54 -17s-37.833 -24.5 -55.5 -39.5s-33 -29.5 -46 -43.5s-21.5 -23.667 -25.5 -29c3.33301 5.33301 8.66602 14.333 15.999 27s14.5 26.167 21.5 40.5
s13.167 28 18.5 41s8 23.167 8 30.5c0 14 -5.5 24.667 -16.5 32s-22.167 11 -33.5 11c-17.333 0 -37.166 -5.66699 -59.499 -17s-45.166 -25.333 -68.499 -42s-46.166 -34.334 -68.499 -53.001l-60.5 -50l23.5 34.5l22.5 34l16.5 26c4.33301 7 6.5 11.167 6.5 12.5
c0 4 -4.66699 7.33301 -14 10s-18 4 -26 4c-3.33301 0 -9 -5.16699 -17 -15.5s-17.333 -23.166 -28 -38.499l-33.5 -50.5c-11.667 -18.333 -22.167 -35.833 -31.5 -52.5l-23.5 -42.5c-6.33301 -11.667 -9.5 -18.834 -9.5 -21.501s1.66699 -5.66699 5 -9
s7.16602 -6.5 11.499 -9.5s8.33301 -5.5 12 -7.5s6.16699 -3 7.5 -3s8.33301 6.66699 21 20l48 49.5l65 64c24 23 47.833 44.333 71.5 64s46 36.167 67 49.5s38.167 20 51.5 20c9.33301 0 14 -4.66699 14 -14c0 -4 -2.33301 -11.167 -7 -21.5s-10.667 -22.5 -18 -36.5
s-15.5 -28.833 -24.5 -44.5l-26 -46l-23 -41c-7 -12.333 -11.833 -21.833 -14.5 -28.5c-2 -4 -1.16699 -8.66699 2.5 -14s8.16699 -10 13.5 -14s10.666 -6.83301 15.999 -8.5s9 -0.833984 11 2.49902c10 18 23.5 37.667 40.5 59s35.167 42 54.5 62
c22.667 23.333 44.334 43.333 65.001 60s36 25 46 25c6.66699 0 10 -4.66699 10 -14c0 -13.333 -2.33301 -28.166 -7 -44.499s-10 -32.666 -16 -48.999s-11.333 -32.5 -16 -48.5s-7 -30 -7 -42c0 -23.333 6.66699 -35 20 -35c4.66699 0 11.334 1.66699 20.001 5
s17.167 7.16602 25.5 11.499s15.5 9 21.5 14s9 9.5 9 13.5c0 2 -0.333008 4.16699 -1 6.5s-2 3.5 -4 3.5c-2.66699 0 -6.16699 -1.83301 -10.5 -5.5s-7.5 -5.5 -9.5 -5.5s-3 2 -3 6c0 0.666992 1.83301 7.5 5.5 20.5l12.5 46c4.66699 17.667 8.83398 35.667 12.501 54
s5.5 33.166 5.5 44.499z" />
    <glyph glyph-name="n" unicode="n" horiz-adv-x="408" 
d="M419 251c0 14 -5.5 24.6738 -16.5 32.0068s-22.167 11 -33.5 11c-21.333 0 -45.166 -5.66699 -71.499 -17s-53 -25.333 -80 -42s-53 -34.334 -78 -53.001s-46.5 -35.334 -64.5 -50.001l21.5 32l19 29l13.5 21c3.33301 5.33301 5 8.66602 5 9.99902c0 4 -2 8.5 -6 13.5
s-8.66699 7.5 -14 7.5c-3.33301 0 -9.16602 -4 -17.499 -12s-17.833 -18.167 -28.5 -30.5l-34 -40.5l-33 -41.5c-10 -13 -18.167 -24.167 -24.5 -33.5s-9.5 -15.333 -9.5 -18s1.66699 -5.66699 5 -9s7.16602 -6.5 11.499 -9.5s8.33301 -5.5 12 -7.5s6.16699 -3 7.5 -3
c0.666992 0 5.16699 3.5 13.5 10.5l33.5 27l47.5 38c17.667 14.333 36.5 28.833 56.5 43.5l57 41c19.333 13.333 38 25.166 56 35.499s34.833 18.666 50.5 24.999s29.167 9.5 40.5 9.5c9.33301 0 14 -4.66699 14 -14c0 -4 -2.66699 -11.667 -8 -23l-19.5 -40l-25 -49.5
c-9 -17.667 -17.333 -34.834 -25 -51.501s-14.167 -32.167 -19.5 -46.5s-8 -25.5 -8 -33.5c0 -10.667 3.66699 -20.334 11 -29.001s13 -13 17 -13s10 2.33301 18 7s16.167 10 24.5 16s15.5 11.667 21.5 17s9 9 9 11s-0.333008 4.16699 -1 6.5s-2.33398 3.5 -5.00098 3.5
c-4 0 -9 -1.83301 -15 -5.5s-10.667 -5.5 -14 -5.5s-5 2 -5 6c0 0.666992 2.16699 5.5 6.5 14.5l17 34.5c7 14 14.333 29.667 22 47l22 50.5c7 16.333 12.667 31.5 17 45.5s6.5 25 6.5 33z" />
    <glyph glyph-name="o" unicode="o" 
d="M330 208c-1.33301 1.33301 -2.83008 4.50098 -4.49707 9.50098s-3.5 10.167 -5.5 15.5v6c0 22 -5 37.833 -15 47.5s-21.333 14.5 -34 14.5c-8.66699 0 -18.334 -1.33301 -29.001 -4s-18.334 -4 -23.001 -4c-2 0 -3.83301 1.16699 -5.5 3.5l-5.5 8c-2 3 -4 5.66699 -6 8
s-4.66699 3.5 -8 3.5c-9.33301 0 -20.333 -4 -33 -12s-26 -18.667 -40 -32s-27.833 -28.333 -41.5 -45s-26.167 -33.667 -37.5 -51s-20.333 -34.333 -27 -51s-10 -31.334 -10 -44.001c0 -22 7.16699 -38.5 21.5 -49.5s32.166 -16.5 53.499 -16.5
c20.667 0 42 6.16699 64 18.5s43.167 27.5 63.5 45.5s38.833 37.5 55.5 58.5s30 40.167 40 57.5c4.66699 0.666992 9 1.5 13 2.5s7 1.5 9 1.5c8 0 9.66699 3 5 9zM284.003 270.001c0 -1.33301 -3.16602 -5.33398 -9.49902 -12.001s-9.5 -15.667 -9.5 -27
c0 -8.66699 1.16699 -14.334 3.5 -17.001s4.16602 -4.66699 5.49902 -6c0 -5.33301 -3.5 -13.166 -10.5 -23.499s-16.333 -21.833 -28 -34.5s-24.667 -25.667 -39 -39s-28.666 -25.333 -42.999 -36s-28 -19.5 -41 -26.5s-24.167 -10.5 -33.5 -10.5
c-18.667 0 -28 9.33301 -28 28c0 10.667 3.5 23.334 10.5 38.001s16.5 29.667 28.5 45s25.667 30.5 41 45.5s31.166 28.333 47.499 40s32.833 21.167 49.5 28.5s32 11 46 11c6.66699 0 10 -1.33301 10 -4z" />
    <glyph glyph-name="p" unicode="p" horiz-adv-x="357" 
d="M347 207c0 52.667 -27.6689 78.999 -83.002 78.999c-1.33301 0 -2.33301 -0.166992 -3 -0.5s-1.66699 -0.5 -3 -0.5c17.333 29.333 31 53.5 41 72.5s15 30.5 15 34.5s-2.33301 6 -7 6c-6.66699 0 -13 -2.83301 -19 -8.5s-11.667 -11.834 -17 -18.501l-24 -33.5l-46 -66.5
c-32 -13.333 -65.167 -34.666 -99.5 -63.999s-67.833 -63.166 -100.5 -101.499s-63.667 -79.5 -93 -123.5s-55.166 -87.167 -77.499 -129.5s-40 -82.166 -53 -119.499s-19.5 -68.666 -19.5 -93.999c0 -14.667 3 -27.334 9 -38.001s12.333 -16 19 -16
c5.33301 0 17.833 12.667 37.5 38s43 57.333 70 96l86 126.5l85.5 129.5c8.66699 -1.33301 18.334 -2 29.001 -2h28c20 0 41.833 4.16699 65.5 12.5s45.834 17.666 66.501 27.999s38.5 20.333 53.5 30s23.833 15.834 26.5 18.501c5.33301 4 8 8 8 12s-1.66699 6 -5 6
c-2 0 -4.33301 -1 -7 -3c-3.33301 -2 -8 -4.16699 -14 -6.5l-19 -7.5c-6.66699 -2.66699 -13 -5.33398 -19 -8.00098s-10.333 -4.66699 -13 -6l-2 6c3.33301 2 9.66602 8.5 18.999 19.5s18.833 24.167 28.5 39.5s18.167 31.333 25.5 48s11 31.667 11 45zM308.998 213.999
c0 -22 -4.66992 -42.999 -14.0029 -62.999s-20.166 -38 -32.499 -54s-24.666 -29.333 -36.999 -40s-21.833 -18 -28.5 -22c-4.66699 -2.66699 -11.667 -5.5 -21 -8.5s-19.333 -5.83301 -30 -8.5s-21.5 -5 -32.5 -7l-28.5 -5c2 3.33301 3.83301 6.16602 5.5 8.49902
s3.5 5.16602 5.5 8.49902l79 125l71 116c2.66699 0.666992 6.66699 1 12 1c14.667 0 26.834 -4.16699 36.501 -12.5s14.5 -21.166 14.5 -38.499zM178.995 239l-73 -110.502l-76 -118.5l-52.5 -83.5l-53.5 -85.5l-50 -79.5l-42.5 -66l-30 -45.5
c-7.66699 -11.333 -11.834 -17 -12.501 -17c-3.33301 0 -5.16602 2.33301 -5.49902 7s-0.5 10 -0.5 16c0 17.333 5.66699 41.333 17 72s27 64.834 47 102.501s43 77 69 118s53.667 80.167 83 117.5s59.5 71.333 90.5 102s60.833 54.334 89.5 71.001z" />
    <glyph glyph-name="q" unicode="q" horiz-adv-x="258" 
d="M306 264c0 16 -4.34277 23.9961 -13.0098 23.9961c-1.33301 0 -3.83301 0.5 -7.5 1.5s-6.83398 1.5 -9.50098 1.5c-3.33301 0 -6.33301 -0.333008 -9 -1s-4.66699 -2.66699 -6 -6c-6 -11.333 -14.833 -25.5 -26.5 -42.5s-25 -35.167 -40 -54.5
s-30.833 -38.666 -47.5 -57.999s-32.834 -36.666 -48.501 -51.999s-30.167 -27.833 -43.5 -37.5s-23.666 -14.5 -30.999 -14.5c-2 0 -3 3.33301 -3 10s2.33301 15.667 7 27s11 23.833 19 37.5s17.5 28 28.5 43s22.833 30.167 35.5 45.5c13.333 16.667 27.333 32.667 42 48
s28.834 28.833 42.501 40.5s26.667 21 39 28s23.166 10.5 32.499 10.5c14.667 0 25.667 -6.33301 33 -19c1.33301 2 2 4 2 6v6c0 12 -4.66699 21 -14 27s-20.666 9 -33.999 9c-18.667 0 -38 -5.5 -58 -16.5s-39.833 -25.333 -59.5 -43s-38.334 -37.667 -56.001 -60
s-33.167 -45.166 -46.5 -68.499s-24 -46 -32 -68s-12 -41.333 -12 -58c0 -10 2.16699 -19 6.5 -27s9.83301 -12 16.5 -12c10 0 23.833 6.16699 41.5 18.5s36.5 28.333 56.5 48s40.333 41.334 61 65.001s39.334 46.834 56.001 69.501
c-10.667 -22.667 -24.667 -49.5 -42 -80.5l-54 -99.5l-46.5 -95.5c-15 -32.333 -27 -63.333 -36 -93s-14.167 -57.167 -15.5 -82.5s3.33398 -46.333 14.001 -63c6 -9.33301 13 -15.666 21 -18.999s16.333 -5 25 -5s17.5 1.66699 26.5 5s17.167 7.66602 24.5 12.999l9 7
c4.66699 2.66699 11.834 9.5 21.501 20.5s19.334 23 29.001 36s17.334 25.5 23.001 37.5s6.83398 20.667 3.50098 26c-1.33301 2 -3.16602 3.16699 -5.49902 3.5s-4.16602 -0.166992 -5.49902 -1.5c-9.33301 -20 -22.166 -40.167 -38.499 -60.5
s-34.166 -36.166 -53.499 -47.499c-4 -2.66699 -8.83301 -5.33398 -14.5 -8.00098s-11.5 -4.66699 -17.5 -6s-11.667 -1.33301 -17 0s-9.66602 4.66602 -12.999 9.99902c-8 12.667 -9.83301 30 -5.5 52s12.333 47.167 24 75.5s26.167 58.5 43.5 90.5l54 97l45.5 79.5
c15 26.333 28.333 50.833 40 73.5s21 43.167 28 61.5s10.5 33.5 10.5 45.5z" />
    <glyph glyph-name="r" unicode="r" horiz-adv-x="278" 
d="M341 143c2 3.33301 3.16504 7.16992 3.49805 11.5029s-1.16699 6.5 -4.5 6.5l-12.5 -12.5l-23 -22l-29 -27c-10.333 -9.66699 -20.5 -18.5 -30.5 -26.5c-19.333 -15.333 -37.166 -27 -53.499 -35s-28.5 -12 -36.5 -12s-12 4.66699 -12 14c0 6 5.5 15.5 16.5 28.5l36 42.5
c13 15.333 25 30.666 36 45.999s16.5 28 16.5 38c0 18 -6.33301 30.833 -19 38.5s-28.334 11.5 -47.001 11.5c-11.333 0 -20.833 0.333008 -28.5 1s-11.5 2.66699 -11.5 6c0 1.33301 3.66699 6.33301 11 15l25 29c10.667 11.333 19.5 22.333 26.5 33s10.5 17.667 10.5 21
c0 11.333 -10.333 17 -31 17c-10.667 0 -22.667 -4.66699 -36 -14s-26 -20.166 -38 -32.499s-22.167 -25 -30.5 -38s-12.5 -23.167 -12.5 -30.5c0 -11.333 4.66699 -20 14 -26s21.333 -9 36 -9c13.333 0 25.5 0.666992 36.5 2s20.833 2 29.5 2c10.667 0 16 -2.33301 16 -7
c0 -6.66699 -5.5 -16.834 -16.5 -30.501l-36 -45c-13 -16.333 -25 -32.833 -36 -49.5s-16.5 -31.334 -16.5 -44.001c0 -15.333 4.83301 -26.833 14.5 -34.5s20.167 -11.5 31.5 -11.5c18 0 37.333 5.83301 58 17.5s40.334 25.5 59.001 41.5
c24.667 20.667 44.334 39.167 59.001 55.5s23 26.166 25 29.499z" />
    <glyph glyph-name="s" unicode="s" horiz-adv-x="223" 
d="M281 278c0 4.66699 -2.83301 10.499 -8.5 17.499s-12.5 13.833 -20.5 20.5s-16.167 12.334 -24.5 17.001s-14.833 7 -19.5 7c-19.333 0 -37.666 -3.5 -54.999 -10.5s-32.5 -16.667 -45.5 -29s-23.333 -27 -31 -44s-11.5 -35.167 -11.5 -54.5
c0 -16 2.83301 -29.667 8.5 -41s12 -21.833 19 -31.5s13.333 -19 19 -28s8.5 -18.833 8.5 -29.5c0 -16.667 -6.83301 -31.667 -20.5 -45s-28.834 -20 -45.501 -20c-10 0 -18.167 2 -24.5 6s-11.166 6 -14.499 6c-4 0 -7.33301 -1.33301 -10 -4
c2.66699 -10.667 9.5 -18.5 20.5 -23.5s21.167 -7.5 30.5 -7.5c12.667 0 25.667 2.5 39 7.5s25.5 12 36.5 21s20 19.333 27 31s10.5 24.5 10.5 38.5c0 11.333 -2.33301 22 -7 32s-9.83398 20 -15.501 30s-10.834 20 -15.501 30s-7 20.667 -7 32c0 12 2.5 23.5 7.5 34.5
s11.833 20.667 20.5 29s18.667 15.166 30 20.499s23.333 8 36 8c12 0 20.833 -1.66699 26.5 -5s9.83398 -7 12.501 -11s4.66699 -7.66699 6 -11s4 -5 8 -5c3.33301 0 5.83301 1.33301 7.5 4s2.5 5.33398 2.5 8.00098z" />
    <glyph glyph-name="t" unicode="t" horiz-adv-x="202" 
d="M437 614c0 3.33301 -1.67676 6.49902 -5.00977 9.49902s-7.16602 5.5 -11.499 7.5s-9 3.66699 -14 5s-9.16699 2 -12.5 2c-2.66699 0 -8.66699 -5.16699 -18 -15.5l-34.5 -40l-45 -56l-49 -63.5l-46 -61.5c-14.333 -19.667 -26.166 -36.5 -35.499 -50.5
c-2.66699 -3.33301 -5.16699 -6.83301 -7.5 -10.5s-5.16602 -7.5 -8.49902 -11.5c-16 0 -28.667 -0.166992 -38 -0.5s-16.166 -0.666016 -20.499 -0.999023s-7.5 -0.5 -9.5 -0.5h-4c-4 0 -7.66699 -1 -11 -3s-5 -4.66699 -5 -8s2.33301 -4.66602 7 -3.99902
s9.33398 1 14.001 1h3h7c3.33301 0 8.5 -0.166992 15.5 -0.5s17.167 -0.5 30.5 -0.5c-14.667 -22 -29.834 -46 -45.501 -72s-30 -52.833 -43 -80.5s-23.833 -55.334 -32.5 -83.001s-13 -53.834 -13 -78.501c0 -21.333 5.33301 -38 16 -50s24.334 -18 41.001 -18
c10.667 0 21.334 1.83301 32.001 5.5s20.334 8 29.001 13s16.334 10 23.001 15l15 11.5c1.33301 2.66699 1.33301 5.33398 0 8.00098s-3.33301 4.66699 -6 6c-3.33301 -2.66699 -8.16602 -6.33398 -14.499 -11.001s-13.666 -9.16699 -21.999 -13.5
s-17.166 -8.16602 -26.499 -11.499s-18.666 -5 -27.999 -5s-17.333 4 -24 12s-10 19 -10 33c0 20.667 6 44.667 18 72s26.667 55.5 44 84.5s36.166 57.667 56.499 86l56.5 76.5h28c1.33301 0 2 -0.666992 2 -2s-0.166992 -2.66602 -0.5 -3.99902
s-0.5 -2.66602 -0.5 -3.99902c0 -2.66699 0.5 -4.33398 1.5 -5.00098s3.83301 -1 8.5 -1c2.66699 0 8.16699 0.5 16.5 1.5s16.666 2.5 24.999 4.5s15.833 4.5 22.5 7.5s10 6.5 10 10.5c0 2.66699 -2 5.16699 -6 7.5s-8.66699 3.5 -14 3.5h-27
c-14.667 0 -32.667 -0.333008 -54 -1l67.5 90.5l61 77.5l46 55.5c12.333 14.333 19.833 23.166 22.5 26.499l15.5 16c5 5.33301 7.5 11.333 7.5 18z" />
    <glyph glyph-name="u" unicode="u" horiz-adv-x="378" 
d="M357 59c0 1.33301 -1.33105 2 -3.99805 2c-4.66699 0 -11.334 0.833008 -20.001 2.5s-13 6.5 -13 14.5c0 16 3 30.667 9 44s9 28 9 44c0 10.667 -3 21.334 -9 32.001s-13.333 16 -22 16c-2 0 -4.33301 -1.16699 -7 -3.5l-10 -8.5
c-9.33301 -10 -21.166 -23.5 -35.499 -40.5s-30.166 -33.833 -47.499 -50.5c-11.333 -10.667 -22.5 -20.5 -33.5 -29.5s-21.333 -16.833 -31 -23.5s-18.334 -12 -26.001 -16s-13.5 -6 -17.5 -6c-5.33301 0 -8.83301 2.5 -10.5 7.5s-2.5 9.83301 -2.5 14.5
c0 9.33301 3.33301 22.5 10 39.5s14.5 34.5 23.5 52.5s18 35 27 51s16.167 27.667 21.5 35c0.666992 0.666992 1 2.33398 1 5.00098c0 5.33301 -3 12.166 -9 20.499s-11.333 12.5 -16 12.5c-5.33301 0 -11.333 -2.83301 -18 -8.5s-13.5 -13.167 -20.5 -22.5
s-14.167 -20.333 -21.5 -33s-14.333 -26 -21 -40c-11.333 -25.333 -21.166 -50.833 -29.499 -76.5s-12.5 -46.167 -12.5 -61.5c0 -5.33301 1.66699 -10.5 5 -15.5s7.66602 -9.5 12.999 -13.5s11.166 -7.33301 17.499 -10s12.166 -4 17.499 -4
c7.33301 0 17.333 3.66699 30 11s26.167 16.666 40.5 27.999s29 23.833 44 37.5l41 38l31 30l14.5 14.5l2 -2c-2.66699 -4.66699 -6.16699 -13 -10.5 -25s-6.5 -27.667 -6.5 -47c0 -18 4.33301 -33.833 13 -47.5s18.667 -20.5 30 -20.5c4 0 8.33301 2 13 6
s9.33398 8.5 14.001 13.5s8.66699 10 12 15s5.66602 8.16699 6.99902 9.5c5.33301 5.33301 8 8.33301 8 9z" />
    <glyph glyph-name="v" unicode="v" horiz-adv-x="269" 
d="M306 232c-0.666992 4.66699 -1.32617 10.1699 -1.99316 16.5029s-1 12.166 -1 17.499s-2 10.5 -6 15.5s-9.66699 7.5 -17 7.5c-9.33301 0 -15.5 -2.66699 -18.5 -8s-4.5 -9.66602 -4.5 -12.999c0 -13.333 -3.83301 -28.166 -11.5 -44.499s-21.167 -38.833 -40.5 -67.5
c-10 -14.667 -20.333 -28.167 -31 -40.5s-20.834 -23 -30.501 -32s-18.5 -16 -26.5 -21s-14.333 -7.5 -19 -7.5s-8.33398 1.66699 -11.001 5s-4 9.66602 -4 18.999c0 8 3.66699 21.333 11 40l23.5 58l23.5 55.5c7.33301 17 11 27.833 11 32.5s-0.833008 10 -2.5 16
s-3.83398 11.667 -6.50098 17s-5.66699 9.66602 -9 12.999s-6.66602 5 -9.99902 5c-8.66699 0 -18.334 -9.66699 -29.001 -29s-20.834 -41.666 -30.501 -66.999s-17.834 -50 -24.501 -74s-10 -41 -10 -51s1.83301 -19.833 5.5 -29.5s8.5 -18.5 14.5 -26.5
s12.667 -14.5 20 -19.5s14.666 -7.5 21.999 -7.5c10.667 0 22.167 4.66699 34.5 14s24.166 20.5 35.499 33.5s21.833 26 31.5 39s17.167 23.5 22.5 31.5l15.5 26l16 26.5l13 21.5c3.66699 6 5.83398 9.66699 6.50098 11c1.33301 2 5.66602 3.16699 12.999 3.5
s13.333 1.16602 18 2.49902c4 1.33301 6.5 2.66602 7.5 3.99902s1.16699 3.66602 0.5 6.99902z" />
    <glyph glyph-name="w" unicode="w" horiz-adv-x="474" 
d="M479 196c0 11.333 -1.99805 20.835 -5.99805 28.502s-8.66699 14 -14 19s-10.833 8.66699 -16.5 11s-10.167 3.5 -13.5 3.5c-2 -0.666992 -3.83301 -2.5 -5.5 -5.5s-1.83398 -5.83301 -0.500977 -8.5c9.33301 -2.66699 17.5 -7.66699 24.5 -15s10.5 -17 10.5 -29
s-5.33301 -27.5 -16 -46.5s-23.667 -37.333 -39 -55s-31.666 -32.834 -48.999 -45.501s-32.333 -19 -45 -19c-9.33301 0 -15 4.16699 -17 12.5s-3 18.166 -3 29.499c0 5.33301 1 13.5 3 24.5s4.33301 23 7 36s5 25.667 7 38s3 22.5 3 30.5
c0 7.33301 -3.5 15.666 -10.5 24.999s-16.833 14 -29.5 14c-8 0 -20.333 -5.5 -37 -16.5s-34.167 -23.5 -52.5 -37.5s-35.333 -27.833 -51 -41.5s-26.167 -23.167 -31.5 -28.5l-5 4c1.33301 2.66699 5.16602 11 11.499 25s12.833 29.167 19.5 45.5l18 45.5
c5.33301 14 8 22.667 8 26c0 4 -3.16699 8.16699 -9.5 12.5s-11.166 6.5 -14.499 6.5c-6 0 -12.833 -5 -20.5 -15s-15.834 -22.833 -24.501 -38.5s-17.167 -32.667 -25.5 -51l-23 -52c-7 -16.333 -12.5 -30.833 -16.5 -43.5s-6 -20.667 -6 -24
c0 -5.33301 1.33301 -10.333 4 -15s5.83398 -8.66699 9.50098 -12s7.33398 -6.16602 11.001 -8.49902s6.5 -3.5 8.5 -3.5c1.33301 0 6.16602 4.5 14.499 13.5l29.5 32.5l35.5 39c12.333 13.333 23.166 24.333 32.499 33s19.666 17.5 30.999 26.5l32 25
c10 7.66699 18.667 14 26 19s11.333 7.5 12 7.5c2 0 3.66699 -0.666992 5 -2s2 -2.66602 2 -3.99902c0 -0.666992 -1.66699 -6.5 -5 -17.5s-6.83301 -24 -10.5 -39s-7.16699 -30.5 -10.5 -46.5s-5 -29 -5 -39c0 -10.667 2.16699 -21 6.5 -31s10 -19 17 -27
s14.667 -14.333 23 -19s16.5 -7 24.5 -7c6.66699 0 15.667 3.16699 27 9.5s23.5 14.833 36.5 25.5s26.167 23.167 39.5 37.5s25.5 29.166 36.5 44.499s20 31 27 47s10.5 31.333 10.5 46z" />
    <glyph glyph-name="x" unicode="x" horiz-adv-x="248" 
d="M345 192c-1.33301 3.33301 -3.00098 6.16211 -5.00098 8.49512s-4.66699 3.5 -8 3.5l-27.5 -47c-11 -18.667 -23.5 -36.667 -37.5 -54s-29 -32.166 -45 -44.499s-32.333 -18.5 -49 -18.5c-11.333 0 -20.666 3.83301 -27.999 11.5s-11 17.167 -11 28.5
s0.666992 22.333 2 33s3 21.667 5 33c26 32 52.667 62.833 80 92.5l84 88.5c2 2 3.83301 4 5.5 6s2.5 4.66699 2.5 8c0 4.66699 -1.83301 8.16699 -5.5 10.5s-7.5 3.5 -11.5 3.5c-6.66699 0 -17 -6.66699 -31 -20s-28.5 -28.666 -43.5 -45.999l-41.5 -50l-26 -33
c2 11.333 3.66699 22.833 5 34.5s2 23.167 2 34.5c0 16 -4.66699 30.5 -14 43.5s-22.666 19.5 -39.999 19.5c-8.66699 0 -15.167 -3.66699 -19.5 -11s-6.5 -14.666 -6.5 -21.999c0 -4.66699 1 -9 3 -13s3 -8.33301 3 -13c0 -17.333 -1 -34.833 -3 -52.5s-3 -35.167 -3 -52.5
v-28c0 -8.66699 0.666992 -17.667 2 -27c-2 -2.66699 -6.83301 -8.5 -14.5 -17.5l-27 -32l-32.5 -39l-31.5 -38.5l-24 -30.5c-6.33301 -8.33301 -9.5 -13.166 -9.5 -14.499c0 -3.33301 1.16699 -5.5 3.5 -6.5s4.83301 -1.5 7.5 -1.5c4.66699 0 8.16699 0.833008 10.5 2.5
s4.83301 4.16699 7.5 7.5l58.5 67l57.5 68c5.33301 -21.333 14.666 -38.833 27.999 -52.5s32 -20.5 56 -20.5c17.333 0 35 6.66699 53 20s35 29.5 51 48.5s30 38.833 42 59.5s20.667 38.334 26 53.001z" />
    <glyph glyph-name="y" unicode="y" horiz-adv-x="334" 
d="M332 264c0 16 -4.33398 24.0039 -13.001 24.0039c-3.33301 0 -14.333 -10 -33 -30s-47.334 -45 -86.001 -75l-34 -26l-38 -29c-12.667 -9.33301 -24.167 -17.333 -34.5 -24s-18.166 -10 -23.499 -10c-4.66699 0 -7.33398 1.16699 -8.00098 3.5s-1 4.83301 -1 7.5
c0 1.33301 3.83301 8 11.5 20l25 39.5l25 40c7.66699 12.333 11.5 19.5 11.5 21.5c0 3.33301 -2.66699 7.83301 -8 13.5s-10.333 8.5 -15 8.5c-3.33301 0 -10.5 -6.33301 -21.5 -19s-22.5 -27.334 -34.5 -44.001s-22.667 -33.167 -32 -49.5s-14 -28.166 -14 -35.499
c0 -14.667 4.33301 -26.167 13 -34.5s17.667 -12.5 27 -12.5c6 0 14.833 3.16699 26.5 9.5s24.667 14.166 39 23.499s28.833 19.5 43.5 30.5l41 31.5l31.5 25.5c8.33301 7 13.166 11.167 14.499 12.5c3.33301 2.66699 5.66602 1.66699 6.99902 -3
c-6.66699 -17.333 -14.167 -34.833 -22.5 -52.5s-17.166 -35.5 -26.499 -53.5c-53.333 -16 -109.333 -37.333 -168 -64s-116.334 -56.834 -173.001 -90.501s-110.5 -69.334 -161.5 -107.001s-96 -75.667 -135 -114s-70 -75.833 -93 -112.5s-34.5 -70.334 -34.5 -101.001
c0 -18.667 6.33301 -33 19 -43s26.667 -15 42 -15c34.667 0 73.834 9 117.501 27s89.167 42.5 136.5 73.5s95.333 67 144 108s95.334 84.667 140.001 131s86.334 94 125.001 143s71.334 96.5 98.001 142.5c11.333 -0.666992 20 -2.16699 26 -4.5s10.5 -5 13.5 -8
s5.33301 -5.66699 7 -8s3.5 -3.5 5.5 -3.5c8.66699 0 13 5.33301 13 16c0 10 -5 17.5 -15 22.5s-22.333 8.16699 -37 9.5c18.667 34.667 33.167 67.667 43.5 99s15.5 60 15.5 86zM188.999 52.0039c-28.667 -49.333 -60.834 -97.5 -96.501 -144.5
s-72.167 -89.833 -109.5 -128.5c-18 -18.667 -39.667 -39.5 -65 -62.5l-81 -71c-28.667 -24.333 -58.5 -48 -89.5 -71s-61.333 -43.5 -91 -61.5s-57.667 -32.5 -84 -43.5s-49.166 -16.5 -68.499 -16.5c-11.333 0 -20.166 3.83301 -26.499 11.5s-9.5 16.834 -9.5 27.501
c0 26.667 10.833 57 32.5 91s50.667 69 87 105s78.666 72.333 126.999 109s99.333 71.167 153 103.5s108 61.666 163 87.999s107.833 47.5 158.5 63.5z" />
    <glyph glyph-name="z" unicode="z" horiz-adv-x="298" 
d="M328 294c0 13.333 -4.32227 24.0029 -12.9893 32.0029s-21.334 12 -38.001 12c-12.667 0 -30.167 -4.66699 -52.5 -14s-44.5 -20.5 -66.5 -33.5s-41 -26.167 -57 -39.5s-24 -24 -24 -32c0 -14.667 3.33301 -24.834 10 -30.501s11.667 -6.83398 15 -3.50098
c7.33301 8 18.166 18.667 32.499 32s29.833 26.166 46.5 38.499s33.167 23.166 49.5 32.499s30.166 14 41.499 14c9.33301 0 15.666 -2 18.999 -6s5 -9.66699 5 -17c0 -21.333 -5.5 -43 -16.5 -65s-23.5 -42.333 -37.5 -61s-27.5 -34.5 -40.5 -47.5
s-21.167 -20.833 -24.5 -23.5c-6 1.33301 -14 2.5 -24 3.5s-19 1.5 -27 1.5c-34.667 0 -58.334 -3.66699 -71.001 -11s-19 -16.333 -19 -27c0 -9.33301 4.16699 -16.5 12.5 -21.5s18.166 -7.5 29.499 -7.5c19.333 0 36.666 3 51.999 9s26.666 11.667 33.999 17
c4.66699 -4 7 -11 7 -21c0 -19.333 -2.33301 -36.166 -7 -50.499s-8.33398 -24.5 -11.001 -30.5c-30 -1.33301 -65.833 -7.66602 -107.5 -18.999s-84.667 -26.166 -129 -44.499s-88.333 -39.833 -132 -64.5s-82.834 -50.834 -117.501 -78.501s-62.667 -56.334 -84 -86.001
s-32 -59.167 -32 -88.5c0 -18.667 6.33301 -33 19 -43s26.667 -15 42 -15c36 0 73.667 6.16699 113 18.5s78.666 29 117.999 50s77.666 45.5 114.999 73.5s72 57.5 104 88.5s60.333 62.833 85 95.5s44.334 64.334 59.001 95.001h8c4 0 8.16699 -0.166992 12.5 -0.5
s8.5 -0.5 12.5 -0.5c10 0 15 2.66699 15 8c0 8.66699 -4.33301 13 -13 13h-11c-4.66699 0 -9.66699 -0.333008 -15 -1c10.667 28.667 16 53.667 16 75c0 10 -2.66699 19.833 -8 29.5s-13 17.167 -23 22.5c3.33301 2 11.833 9.66699 25.5 23s28.167 30.333 43.5 51
s29 43.667 41 69s18 51.666 18 78.999zM145.011 58.0029c-7.33301 -4.66699 -16 -8.50098 -26 -11.501s-19.5 -4.83301 -28.5 -5.5s-16.667 -0.166992 -23 1.5s-9.5 4.83398 -9.5 9.50098c0 5.33301 3.5 9 10.5 11s14.167 3 21.5 3c8 0 17.333 -0.666992 28 -2
s19.667 -3.33301 27 -6zM144.011 -76.998c-14 -29.333 -32.834 -59.501 -56.501 -90.501s-50.334 -61.167 -80.001 -90.5s-61.334 -57 -95.001 -83s-67.667 -48.667 -102 -68s-68 -34.666 -101 -45.999s-63.833 -17 -92.5 -17c-11.333 0 -20.166 4 -26.499 12
s-9.5 17 -9.5 27c0 21.333 9 44.5 27 69.5s41.833 50.167 71.5 75.5s63.834 49.833 102.501 73.5s78.834 45.167 120.501 64.5s83.5 35.5 125.5 48.5s80.667 21.167 116 24.5z" />
    <glyph glyph-name="braceleft" unicode="{" horiz-adv-x="500" 
d="M669 740c-23.333 -0.666992 -47.3301 -2.49609 -71.9971 -5.49609s-47.667 -9.16699 -69 -18.5c-24.667 -10.667 -45.334 -26.167 -62.001 -46.5s-31.5 -42.833 -44.5 -67.5s-24.667 -50.334 -35 -77.001s-21.5 -52 -33.5 -76s-25.667 -45.333 -41 -64
s-34 -32.667 -56 -42c-15.333 -6 -31.333 -10 -48 -12s-33.334 -4.33301 -50.001 -7l-12 -27c8.66699 -1.33301 18.834 -3 30.501 -5s22.834 -5.33301 33.501 -10s19.5 -10.667 26.5 -18s10.5 -17 10.5 -29c0 -17.333 -5.16699 -37.833 -15.5 -61.5
s-21.833 -48.5 -34.5 -74.5s-24.167 -51.833 -34.5 -77.5s-15.5 -49.167 -15.5 -70.5c0 -18 5 -31.667 15 -41s22.167 -16 36.5 -20s29.666 -6.16699 45.999 -6.5s30.833 -0.5 43.5 -0.5l10 23c-8 0 -17.167 0.333008 -27.5 1s-20.333 2.5 -30 5.5s-17.834 7.5 -24.501 13.5
s-10 14.333 -10 25c0 15.333 5 34.833 15 58.5l33 74.5c12 26 23 52.167 33 78.5s15 50.166 15 71.499c0 13.333 -2.66699 24.333 -8 33s-12.333 15.834 -21 21.501s-18.5 10.167 -29.5 13.5s-21.833 6.33301 -32.5 9c16.667 3.33301 32.834 7.16602 48.501 11.499
s31.167 10.166 46.5 17.499c26 12 47.667 27.5 65 46.5s32.333 39.667 45 62s23.5 45.666 32.5 69.999s18.5 47.5 28.5 69.5s21 42.167 33 60.5s27 32.833 45 43.5c15.333 9.33301 32.166 15.5 50.499 18.5s36.166 5.16699 53.499 6.5z" />
    <glyph glyph-name="bar" unicode="|" horiz-adv-x="380" 
d="M267 -14v809h-53v-809h53z" />
    <glyph glyph-name="braceright" unicode="}" horiz-adv-x="500" 
d="M606 672c0 16.667 -5.16992 29.4971 -15.5029 38.4971s-22.833 15.667 -37.5 20s-30 7 -46 8s-30 1.5 -42 1.5l-11 -23c8 -0.666992 17.333 -1.5 28 -2.5s20.5 -3.16699 29.5 -6.5s16.667 -8.16602 23 -14.499s9.5 -15.166 9.5 -26.499
c0 -16 -5.16699 -36.167 -15.5 -60.5s-21.666 -49.5 -33.999 -75.5s-23.666 -51.333 -33.999 -76s-15.5 -46 -15.5 -64c0 -12.667 3 -23.5 9 -32.5s13.833 -16.5 23.5 -22.5s20.167 -11 31.5 -15s22 -7.33301 32 -10c-17.333 -3.33301 -34.166 -7.16602 -50.499 -11.499
s-32.166 -10.166 -47.499 -17.499c-24.667 -12 -45.5 -28 -62.5 -48s-32 -42 -45 -66s-24.667 -48.667 -35 -74s-20.833 -49.333 -31.5 -72s-22.5 -42.834 -35.5 -60.501s-28.167 -30.5 -45.5 -38.5c-14.667 -6.66699 -30.167 -11 -46.5 -13s-32.5 -3.33301 -48.5 -4
l-10 -23c52.667 0 94.667 5.83301 126 17.5s57.166 29 77.499 52s38 51.5 53 85.5l52.5 118c11.333 26 23 47.5 35 64.5s25.667 30.5 41 40.5s33 17.667 53 23s44 9.66602 72 12.999l12 27c-9.33301 1.33301 -19.833 2.66602 -31.5 3.99902s-22.5 3.83301 -32.5 7.5
s-18.333 9 -25 16s-10 17.167 -10 30.5c0 20.667 5.16699 43.334 15.5 68.001s21.833 49.834 34.5 75.501s24.167 51 34.5 76s15.5 48.5 15.5 70.5z" />
    <glyph glyph-name="asciitilde" unicode="~" horiz-adv-x="647" 
d="M625 752l-25.001 16.0029c-17.333 -24.667 -35.833 -42.334 -55.5 -53.001s-41.834 -16 -66.501 -16c-24 0 -47.333 3.16699 -70 9.5s-45.5 13.166 -68.5 20.499s-46 14.166 -69 20.499s-46.5 9.5 -70.5 9.5c-35.333 0 -65.5 -8.83301 -90.5 -26.5
s-49.833 -47.167 -74.5 -88.5l27 -15c34 51.333 75.667 77 125 77c22.667 0 45.667 -3.16699 69 -9.5s47 -13.333 71 -21s47.833 -14.667 71.5 -21s47.167 -9.5 70.5 -9.5c22 0 41.667 3.33301 59 10s32.333 15.167 45 25.5s23.334 21.833 32.001 34.5s15.334 25 20.001 37z
" />
    <glyph glyph-name="exclamdown" unicode="&#xa1;" horiz-adv-x="300" 
d="M413 720c0 3.33301 -0.833008 9.66797 -2.5 19.001s-3.16699 15.666 -4.5 18.999c-0.666992 4 -3.5 7.33301 -8.5 10s-10.833 4 -17.5 4c-10 0 -18.833 -5.5 -26.5 -16.5s-11.5 -20.5 -11.5 -28.5c0 -4 1.66699 -8.5 5 -13.5s7.16602 -9.5 11.499 -13.5
s8.83301 -7.5 13.5 -10.5s8.33398 -4.5 11.001 -4.5s5.66699 1.5 9 4.5s6.5 6.33301 9.5 10s5.66699 7.5 8 11.5s3.5 7 3.5 9zM360 634.002c0 5.33301 -0.833008 10.333 -2.5 15s-5.5 7 -11.5 7c-1.33301 0 -2.5 -0.166992 -3.5 -0.5s-2.16699 -0.5 -3.5 -0.5
c-9.33301 -26 -21.833 -53.667 -37.5 -83s-32.667 -58.5 -51 -87.5l-55.5 -84.5l-51 -75l-82.5 -117l-75.5 -98.5l-55.5 -68l-21.5 -25.5v-7c0 -0.666992 0.833008 -2.33398 2.5 -5.00098s4.16699 -5.5 7.5 -8.5s7 -5.66699 11 -8s8.66699 -3.5 14 -3.5
c3.33301 0 11.833 8.33301 25.5 25s29.5 37.834 47.5 63.501l58 84l59 87.5l48.5 73.5c13.667 21 22.5 34.833 26.5 41.5l19.5 30.5l30 49.5l34.5 58.5c12 20.333 23 39.833 33 58.5s18.167 35 24.5 49s9.5 23.667 9.5 29z" />
    <glyph glyph-name="cent" unicode="&#xa2;" horiz-adv-x="545" 
d="M723 590c0 6 -0.833008 12.3291 -2.5 18.9961s-4.83398 12.667 -9.50098 18s-11.667 9.66602 -21 12.999s-21.333 5 -36 5c-10.667 0 -21.334 -1 -32.001 -3l51.5 61.5c13.667 16.333 20.5 24.833 20.5 25.5c1.33301 3.33301 3.33301 9.33301 6 18s4 14.334 4 17.001
c0 2 0.166992 4 0.5 6s-0.166992 3 -1.5 3c-2.66699 0 -8 -3.83301 -16 -11.5s-18 -18 -30 -31l-40.5 -45.5l-47.5 -56c-31.333 -10.667 -64.666 -26 -99.999 -46s-70.333 -42.667 -105 -68s-67.834 -53 -99.501 -83s-59.667 -60.333 -84 -91s-43.666 -61.167 -57.999 -91.5
s-21.5 -58.5 -21.5 -84.5c0 -20.667 4.5 -37 13.5 -49s19.833 -20.333 32.5 -25c-15.333 -22 -27.5 -41.5 -36.5 -58.5s-13.5 -29.5 -13.5 -37.5c0 -3.33301 0.666992 -6.33301 2 -9s4 -4 8 -4h4c10 18 21 35.5 33 52.5l36 51.5c30 0.666992 60.833 6 92.5 16
s61 21.333 88 34s49.833 24.667 68.5 36s30.334 19 35.001 23c3.33301 4 3.33301 8.66699 0 14s-6.66602 8 -9.99902 8c-3.33301 -3.33301 -13.666 -10.333 -30.999 -21s-38.333 -21.834 -63 -33.501s-51.334 -22.5 -80.001 -32.5s-56 -16 -82 -18l102.5 140.5l106.5 136.5
c2.66699 2.66699 9.33398 10.334 20.001 23.001l39 46l51 60l55 65c42 19.333 77.333 29 106 29c9.33301 0 16.166 -1.66699 20.499 -5s6.5 -7.66602 6.5 -12.999c0 -8.66699 -4 -18.5 -12 -29.5s-16.833 -21.167 -26.5 -30.5s-18.667 -17.333 -27 -24
s-13.166 -10 -14.499 -10s-2.66602 0.666992 -3.99902 2l-1 1c-2.66699 2.66699 -6.33398 4 -11.001 4c-3.33301 0 -9.5 -2.66699 -18.5 -8s-19.167 -12.333 -30.5 -21l-36 -28.5c-12.667 -10.333 -24.334 -20.5 -35.001 -30.5s-19.334 -19 -26.001 -27s-10 -13.667 -10 -17
c0 -7.33301 2.5 -13 7.5 -17s10.167 -6 15.5 -6c4 0 13 4.33301 27 13s30.167 19.834 48.5 33.501s37.5 29.334 57.5 47.001s38.5 35.334 55.5 53.001s31 34.5 42 50.5s16.5 29.667 16.5 41zM502 547.996l-53.0029 -65.499l-47 -58l-35.5 -45
c-9.66699 -12.333 -16.5 -20.833 -20.5 -25.5l-30 -37l-46.5 -59l-54 -70.5c-19 -25 -36.5 -49.167 -52.5 -72.5c-10.667 3.33301 -18.5 9.5 -23.5 18.5s-7.5 19.833 -7.5 32.5c0 24.667 11.333 54 34 88s51.834 68.667 87.501 104s75.334 69.666 119.001 102.999
s86.834 62.333 129.501 87z" />
    <glyph glyph-name="sterling" unicode="&#xa3;" horiz-adv-x="514" 
d="M603 707c0 12 -2.33301 23.1709 -7 33.5039s-14 15.5 -28 15.5c-19.333 0 -40 -8 -62 -24s-44.5 -36.833 -67.5 -62.5s-45.667 -54.334 -68 -86.001s-43.166 -63 -62.499 -94l-53 -86.5l-38 -64c-4.66699 0 -14.667 -0.833008 -30 -2.5s-31.166 -4 -47.499 -7
s-31 -6.5 -44 -10.5s-19.5 -8.66699 -19.5 -14c0 -9.33301 4 -14 12 -14c3.33301 0 7.66602 0.833008 12.999 2.5s9.66602 3.16699 12.999 4.5c13.333 2.66699 26.5 5 39.5 7s26.167 3 39.5 3h6l-59.5 -100.5l-59.5 -100.5c-3.33301 0 -7.5 -0.333008 -12.5 -1
s-9.66699 -1.66699 -14 -3s-8.16602 -3.5 -11.499 -6.5s-5 -6.83301 -5 -11.5c0 -5.33301 1 -10.333 3 -15s6.33301 -7 13 -7l-6 -9c1.33301 -3.33301 3 -6.5 5 -9.5s4.66699 -4.5 8 -4.5c6 0 11.333 3.16699 16 9.5s8.66699 11.5 12 15.5
c30 1.33301 59.833 3.16602 89.5 5.49902s59.5 3.5 89.5 3.5c23.333 0 47 -1.33301 71 -4s47.667 -4 71 -4c2 0 5 0.5 9 1.5s6 3.16699 6 6.5c0 4 -2 7 -6 9s-7.66699 3.66699 -11 5c-16.667 6 -37.5 10.5 -62.5 13.5s-50.833 5.33301 -77.5 7s-53 2.5 -79 2.5
c-25.333 0 -47 -0.333008 -65 -1l73 99c24 33.333 47 67.666 69 102.999l108 -11c3.33301 -0.666992 6.66602 0.666016 9.99902 3.99902s5 6.66602 5 9.99902c0 2 -4.66699 4.33301 -14 7s-20.166 5 -32.499 7s-24.5 3.66699 -36.5 5s-20.333 2 -25 2l30 50.5l47.5 79.5
l57 91.5c20.333 31.667 40.166 60.5 59.499 86.5s37.5 47.333 54.5 64s30.833 25 41.5 25c8.66699 0 13 -5.33301 13 -16c0 -7.33301 -1.83301 -15.166 -5.5 -23.499s-7.5 -16.333 -11.5 -24s-7.83301 -14.334 -11.5 -20.001s-5.5 -9.5 -5.5 -11.5s0.833008 -4.5 2.5 -7.5
l5.5 -9.5c2 -3.33301 4.16699 -6.16602 6.5 -8.49902s4.5 -3.5 6.5 -3.5c4 0 8 4.5 12 13.5s7.5 19.167 10.5 30.5s5.5 22.333 7.5 33s3 17.667 3 21z" />
    <glyph glyph-name="currency" unicode="&#xa4;" horiz-adv-x="603" 
d="M722 590c0 6 -0.833008 12.332 -2.5 18.999s-4.83398 12.667 -9.50098 18s-11.667 9.66602 -21 12.999s-21.333 5 -36 5c-24.667 0 -52.667 -5.5 -84 -16.5s-64.166 -25.833 -98.499 -44.5s-69 -40.667 -104 -66s-67.833 -52.333 -98.5 -81
c-18.667 0 -35.334 -0.5 -50.001 -1.5s-28.5 -2 -41.5 -3s-26 -2.5 -39 -4.5s-27.167 -4 -42.5 -6c-4 -1.33301 -7.83301 -3.33301 -11.5 -6s-5.5 -6.33398 -5.5 -11.001s1.16699 -8.83398 3.5 -12.501s6.16602 -4.83398 11.499 -3.50098c14.667 2 27.5 3.83301 38.5 5.5
s21.667 3 32 4s20.833 1.83301 31.5 2.5s23.667 1.33398 39 2.00098c-22.667 -22.667 -42.334 -45.334 -59.001 -68.001c-15.333 -0.666992 -28.166 -1.33398 -38.499 -2.00098s-20 -1.66699 -29 -3l-26.5 -4l-31 -5c-4.66699 -0.666992 -8.83398 -2.5 -12.501 -5.5
s-5.5 -6.83301 -5.5 -11.5s1.33301 -8.66699 4 -12s6.33398 -4.66602 11.001 -3.99902c12 1.33301 21.833 2.66602 29.5 3.99902s15 2.5 22 3.5l22 3c7.66699 1 17.5 1.83301 29.5 2.5c-15.333 -24 -27.5 -47.5 -36.5 -70.5s-13.5 -44.833 -13.5 -65.5
c0 -14 2.16699 -26 6.5 -36s9.83301 -18.167 16.5 -24.5s14.334 -11 23.001 -14s17.334 -4.5 26.001 -4.5c30 0 61.167 5 93.5 15s62.333 21.333 90 34s51.334 24.834 71.001 36.501s31.834 19.5 36.501 23.5c3.33301 4 3.33301 8.66699 0 14s-6.66602 8 -9.99902 8
c-4 -3.33301 -15.333 -10.666 -34 -21.999s-41.167 -23.166 -67.5 -35.499s-54.5 -23.333 -84.5 -33s-58 -14.5 -84 -14.5c-18 0 -31.167 5 -39.5 15s-12.5 23 -12.5 39c0 18.667 6.5 39.834 19.5 63.501s30.167 48.167 51.5 73.5c34 1.33301 65.5 1.66602 94.5 0.999023
s54.167 -1.66699 75.5 -3c4.66699 -0.666992 8.83398 0.666016 12.501 3.99902s5.5 7.33301 5.5 12c0 4 -2 7 -6 9s-6.66699 3 -8 3c-18.667 2.66699 -40.5 4.5 -65.5 5.5s-51.5 1.5 -79.5 1.5c22 22.667 46 45.667 72 69c45.333 0 83.666 -1 114.999 -3
c4 -0.666992 7.83301 0.666016 11.5 3.99902s5.5 7.33301 5.5 12c0 4 -1.83301 6.83301 -5.5 8.5s-6.5 2.83398 -8.5 3.50098c-22 2.66699 -49 4.66699 -81 6c30 24 60.667 46.667 92 68s62 40 92 56s58.167 28.667 84.5 38s49.166 14 68.499 14
c9.33301 0 16.166 -1.66699 20.499 -5s6.5 -7.66602 6.5 -12.999c0 -8.66699 -4 -18.5 -12 -29.5s-16.833 -21.167 -26.5 -30.5s-18.667 -17.333 -27 -24s-13.166 -10 -14.499 -10s-2.66602 0.666992 -3.99902 2l-1 1c-2.66699 2.66699 -6.33398 4 -11.001 4
c-3.33301 0 -9.5 -2.66699 -18.5 -8s-19.167 -12.333 -30.5 -21l-36 -28.5c-12.667 -10.333 -24.334 -20.5 -35.001 -30.5s-19.334 -19 -26.001 -27s-10 -13.667 -10 -17c0 -7.33301 2.33301 -13 7 -17s10 -6 16 -6c4 0 13 4.33301 27 13s30.167 19.834 48.5 33.501
s37.5 29.334 57.5 47.001s38.5 35.334 55.5 53.001s31 34.5 42 50.5s16.5 29.667 16.5 41z" />
    <glyph glyph-name="section" unicode="&#xa7;" horiz-adv-x="550" 
d="M613 143c2 3.33301 3.16992 7.16895 3.50293 11.502s-1.16699 6.5 -4.5 6.5l-12.5 -12.5l-23 -22l-29 -27c-10.333 -9.66699 -20.5 -18.5 -30.5 -26.5c-19.333 -15.333 -37.166 -27 -53.499 -35s-28.5 -12 -36.5 -12s-12 4.66699 -12 14c0 6 5.5 15.5 16.5 28.5l36 42.5
c13 15.333 25 30.666 36 45.999s16.5 28 16.5 38c0 18 -6.33301 30.833 -19 38.5s-28.334 11.5 -47.001 11.5c-11.333 0 -20.833 0.333008 -28.5 1s-11.5 2.66699 -11.5 6c0 1.33301 3.66699 6.33301 11 15l25 29c10.667 11.333 19.5 22.333 26.5 33s10.5 17.667 10.5 21
c0 11.333 -10.333 17 -31 17c-10.667 0 -22.667 -4.66699 -36 -14s-26 -20.166 -38 -32.499s-22.167 -25 -30.5 -38s-12.5 -23.167 -12.5 -30.5c0 -15.333 8.33301 -25.666 25 -30.999c-12.667 -17.333 -28.334 -37.166 -47.001 -59.499s-37.834 -43.5 -57.501 -63.5
s-38.834 -37 -57.501 -51s-34.334 -21 -47.001 -21c-8 0 -12 4.66699 -12 14c0 6 5.5 15.5 16.5 28.5l36 42.5c13 15.333 25 30.666 36 45.999s16.5 28 16.5 38c0 18 -6.33301 30.833 -19 38.5s-28.334 11.5 -47.001 11.5c-11.333 0 -20.833 0.333008 -28.5 1
s-11.5 2.66699 -11.5 6c0 1.33301 3.66699 6.33301 11 15l25 29c10.667 11.333 19.5 22.333 26.5 33s10.5 17.667 10.5 21c0 11.333 -10.333 17 -31 17c-10.667 0 -22.667 -4.66699 -36 -14s-26 -20.166 -38 -32.499s-22.167 -25 -30.5 -38s-12.5 -23.167 -12.5 -30.5
c0 -11.333 4.66699 -20 14 -26s21.333 -9 36 -9c13.333 0 25.5 0.666992 36.5 2s20.833 2 29.5 2c10.667 0 16 -2.33301 16 -7c0 -6.66699 -5.5 -16.834 -16.5 -30.501l-36 -45c-13 -16.333 -25 -32.833 -36 -49.5s-16.5 -31.334 -16.5 -44.001
c0 -15.333 4.83301 -26.833 14.5 -34.5s20.167 -11.5 31.5 -11.5c21.333 0 43.5 7.83301 66.5 23.5s45.333 34.834 67 57.501s42 46.5 61 71.5l49.5 65.5h5c13.333 -0.666992 25.5 -0.166992 36.5 1.5s20.833 2.5 29.5 2.5c10.667 0 16 -2.33301 16 -7
c0 -6.66699 -5.5 -16.834 -16.5 -30.501l-36 -45c-13 -16.333 -25 -32.833 -36 -49.5s-16.5 -31.334 -16.5 -44.001c0 -15.333 4.83301 -26.833 14.5 -34.5s20.167 -11.5 31.5 -11.5c18 0 37.333 5.83301 58 17.5s40.334 25.5 59.001 41.5
c24.667 20.667 44.334 39.167 59.001 55.5s23 26.166 25 29.499z" />
    <glyph glyph-name="dieresis" unicode="&#xa8;" horiz-adv-x="266" 
d="M218 719c0 24 -10.999 36.001 -32.999 36.001c-11.333 0 -18.666 -3.66699 -21.999 -11l-11 -25c-4.66699 -10 -3.33398 -17.5 3.99902 -22.5s16.666 -7.5 27.999 -7.5s19.833 2.16699 25.5 6.5s8.5 12.166 8.5 23.499zM107.001 719.001
c0 24 -10.999 36.001 -32.999 36.001c-11.333 0 -18.5 -3.66699 -21.5 -11l-10.5 -25c-5.33301 -10 -4.33301 -17.5 3 -22.5s16.666 -7.5 27.999 -7.5s19.833 2.16699 25.5 6.5s8.5 12.166 8.5 23.499z" />
    <glyph glyph-name="copyright" unicode="&#xa9;" horiz-adv-x="802" 
d="M786 342c0 50 -9.5 97 -28.5 141s-45 82.5 -78 115.5s-71.5 59 -115.5 78s-91 28.5 -141 28.5s-97.167 -9.5 -141.5 -28.5s-83 -45 -116 -78s-59 -71.5 -78 -115.5s-28.5 -91 -28.5 -141s9.5 -97.167 28.5 -141.5s45 -83 78 -116s71.667 -59 116 -78
s91.5 -28.5 141.5 -28.5s97 9.5 141 28.5s82.5 45 115.5 78s59 71.667 78 116s28.5 91.5 28.5 141.5zM739 342c0 -43.333 -8.33301 -84.166 -25 -122.499s-39.167 -71.833 -67.5 -100.5s-61.666 -51.334 -99.999 -68.001s-79.166 -25 -122.499 -25
s-84.166 8.33301 -122.499 25s-71.833 39.334 -100.5 68.001s-51.334 62.167 -68.001 100.5s-25 79.166 -25 122.499s8.33301 84.166 25 122.499s39.334 71.666 68.001 99.999s62.167 50.833 100.5 67.5s79.166 25 122.499 25s84.166 -8.33301 122.499 -25
s71.666 -39.167 99.999 -67.5s50.833 -61.666 67.5 -99.999s25 -79.166 25 -122.499zM597 147c-1.33301 4 -2.50195 9.83496 -3.50195 17.502s-1.83301 15.5 -2.5 23.5s-1 15.333 -1 22v17c0 3.33301 -1.5 5.66602 -4.5 6.99902s-6.16699 1.66602 -9.5 0.999023
s-6.33301 -2 -9 -4s-4 -5 -4 -9c1.33301 -11.333 0.833008 -21 -1.5 -29s-8.16602 -16 -17.499 -24c-12 -9.33301 -27.5 -16.5 -46.5 -21.5s-37.167 -7.5 -54.5 -7.5c-25.333 0 -48.666 5.16699 -69.999 15.5s-40 24.5 -56 42.5s-28.5 39 -37.5 63s-13.5 49.667 -13.5 77
s4.5 52.833 13.5 76.5s21.5 44.334 37.5 62.001s34.667 31.667 56 42s44.666 15.833 69.999 16.5c14 0.666992 28.833 -1 44.5 -5s29.167 -10 40.5 -18c19.333 -14 27.666 -31.333 24.999 -52l-1 -7c0 -4 1.33301 -7 4 -9s5.66699 -3.33301 9 -4s6.5 -0.333984 9.5 0.999023
s4.5 3.66602 4.5 6.99902c0 7.33301 0.166992 15.333 0.5 24s0.833008 17 1.5 25c1.33301 5.33301 2.33301 10.333 3 15s1.66699 9.66699 3 15c1.33301 4 1.33301 7.66699 0 11s-4 5 -8 5c-3.33301 0 -7.16602 0.166992 -11.499 0.5s-9.16602 0.833008 -14.499 1.5
c-19.333 3.33301 -38.5 6.83301 -57.5 10.5s-38.167 5.5 -57.5 5.5c-33.333 0 -64.833 -5.83301 -94.5 -17.5s-55.5 -27.667 -77.5 -48s-39.5 -44.166 -52.5 -71.499s-19.5 -56.333 -19.5 -87c0 -31.333 6.5 -60.5 19.5 -87.5s30.5 -50.667 52.5 -71
s47.833 -36.333 77.5 -48s61.167 -17.5 94.5 -17.5c14 0 28.333 1 43 3s28.667 4.33301 42 7c9.33301 1.33301 20 3.16602 32 5.49902s22.667 3.5 32 3.5c6 0 9.5 1.83301 10.5 5.5s0.833008 6.83398 -0.5 9.50098z" />
    <glyph glyph-name="ordfeminine" unicode="&#xaa;" horiz-adv-x="508" 
d="M596 679c3.33301 6 3.83203 10.3311 1.49902 12.998s-4.5 4 -6.5 4c-4 -5.33301 -13.667 -16 -29 -32l-50 -50c-15.333 -15.333 -30.166 -28.666 -44.499 -39.999s-24.5 -17 -30.5 -17c-5.33301 0 -8.5 1.66699 -9.5 5s-1.5 7.33301 -1.5 12c0 6 1.16699 12.667 3.5 20
l7 22.5l7 22c2.33301 7 3.5 13.167 3.5 18.5c0 14.667 -7.33301 22 -22 22c-2 0 -4 -0.333008 -6 -1s-4.33301 -1.66699 -7 -3l11 20c4 7.33301 7.5 14.5 10.5 21.5s5.5 13.5 7.5 19.5s3 10.667 3 14c0 13.333 -3.83301 23 -11.5 29s-17.167 9 -28.5 9
c-13.333 0 -27.833 -4.66699 -43.5 -14s-31.5 -21.5 -47.5 -36.5s-31.167 -32 -45.5 -51s-27.166 -38.5 -38.499 -58.5s-20.333 -39.333 -27 -58s-10 -35 -10 -49c0 -8.66699 1.83301 -16.334 5.5 -23.001s8.5 -10 14.5 -10c4 0 10.333 2.83301 19 8.5s18 12.667 28 21
l30.5 26.5l26.5 24l24.5 22l25 22l19.5 16.5c5.33301 4.33301 8.33301 6.5 9 6.5c3.33301 0 4.33301 -2 3 -6c-0.666992 -2 -2 -8.5 -4 -19.5s-3 -20.167 -3 -27.5c0 -15.333 2.16699 -28 6.5 -38s11.5 -15 21.5 -15c7.33301 0 15.5 2.33301 24.5 7s18 10.334 27 17.001
s17.5 13.834 25.5 21.501l21 19.5c6 5.33301 13.333 12.333 22 21s17 17.5 25 26.5l21.5 24c6.33301 7 10.166 11.5 11.499 13.5zM425.999 750.998c0 -2.66699 -1.83398 -7.66699 -5.50098 -15s-8 -15.166 -13 -23.499l-14 -23c-4.33301 -7 -7.16602 -11.167 -8.49902 -12.5
l-7 -7c-2 -2 -3 -3.66699 -3 -5c0 -0.666992 1.5 -1.83398 4.5 -3.50098s6.16699 -3.16699 9.5 -4.5c-8.66699 -7.33301 -17.834 -15.5 -27.501 -24.5l-29.5 -27.5l-33 -28.5l-34.5 -28.5c-11 -8.66699 -20.667 -16 -29 -22s-13.166 -9 -14.499 -9c-2 0 -3 2.66699 -3 8
c0 9.33301 4.66699 22.5 14 39.5s22 36.167 38 57.5c12.667 16.667 26.5 33 41.5 49s29.5 30.5 43.5 43.5s26.667 23.5 38 31.5s20 12 26 12c4.66699 0 7 -2.33301 7 -7z" />
    <glyph glyph-name="guillemotleft" unicode="&#xab;" horiz-adv-x="436" 
d="M418 334c0 5.33301 -2.33398 8.66699 -7.00098 10c-21.333 -6 -41.833 -14.333 -61.5 -25s-40.167 -20.334 -61.5 -29.001c-8.66699 -3.33301 -16.5 -6.83301 -23.5 -10.5s-10.5 -8.5 -10.5 -14.5c0 -9.33301 4.16699 -19.166 12.5 -29.499s17.833 -20 28.5 -29
s21 -17 31 -24l21 -14.5c5.33301 1.33301 8 5 8 11c0 2 -0.666992 4.33301 -2 7l-26.5 34.5c-8.33301 11 -15.166 23.5 -20.499 37.5c15.333 12.667 32.333 25 51 37s37 22.333 55 31c4 2 6 4.66699 6 8zM312.999 334.001c0 5.33301 -2.33398 8.66699 -7.00098 10
c-21.333 -6 -41.833 -14.333 -61.5 -25s-40.167 -20.334 -61.5 -29.001c-8.66699 -3.33301 -16.5 -6.83301 -23.5 -10.5s-10.5 -8.5 -10.5 -14.5c0 -9.33301 4.16699 -19.166 12.5 -29.499s17.833 -20 28.5 -29s21 -17 31 -24l21 -14.5c5.33301 1.33301 8 5 8 11
c0 2 -0.666992 4.33301 -2 7l-26.5 34.5c-8.33301 11 -15.166 23.5 -20.499 37.5c15.333 12.667 32.333 25 51 37s37 22.333 55 31c4 2 6 4.66699 6 8z" />
    <glyph glyph-name="registered" unicode="&#xae;" horiz-adv-x="629" 
d="M597 504c0 36.667 -7 71 -21 103s-33 60 -57 84s-52 43 -84 57s-66 21 -102 21c-36.667 0 -71 -7 -103 -21s-60 -33 -84 -57s-43 -52 -57 -84s-21 -66.333 -21 -103s7 -71 21 -103s33 -60 57 -84s52 -43 84 -57s66.333 -21 103 -21s71 7 103 21s60 33 84 57
s42.833 52.167 56.5 84.5s20.5 66.5 20.5 102.5zM564 504c0 -32 -6 -62 -18 -90s-28.5 -52.5 -49.5 -73.5s-45.5 -37.5 -73.5 -49.5s-58 -18 -90 -18s-62 6 -90 18s-52.5 28.5 -73.5 49.5s-37.5 45.5 -49.5 73.5s-18 58 -18 90s6 62 18 90s28.5 52.5 49.5 73.5
s45.5 37.5 73.5 49.5s58 18 90 18s62 -6 90 -18s52.5 -28.5 73.5 -49.5s37.5 -45.5 49.5 -73.5s18 -58 18 -90zM498 351c0 3.33301 -2.33984 5.66699 -7.00684 7c-20 9.33301 -33.333 21.166 -40 35.499s-12 28.833 -16 43.5s-9.66699 28.834 -17 42.501
s-21.666 24.5 -42.999 32.5c17.333 7.33301 32 17.833 44 31.5s18 30.167 18 49.5c0 12.667 -2.5 24.334 -7.5 35.001s-11.667 19.834 -20 27.501s-18 13.667 -29 18s-22.833 6.5 -35.5 6.5c-6.66699 0 -13.334 -0.333008 -20.001 -1s-13.667 -1 -21 -1
c-16.667 0 -33 0.333008 -49 1s-32.333 1 -49 1c-5.33301 -2 -8 -6 -8 -12c0 -6.66699 2 -10.167 6 -10.5s8.33301 -0.5 13 -0.5s9 -1.5 13 -4.5s6 -10.5 6 -22.5v-236c0 -12.667 -2.16699 -20.167 -6.5 -22.5s-12.166 -3.5 -23.499 -3.5c-5.33301 -2 -8 -6 -8 -12
s2.66699 -10 8 -12c10 0 20 0.5 30 1.5s20 1.5 30 1.5c9.33301 0 19 -0.5 29 -1.5s20 -1.5 30 -1.5c2.66699 0 4.83398 1.5 6.50098 4.5s2.5 5.5 2.5 7.5c0 6.66699 -2.16699 10.334 -6.5 11.001s-9.16602 1.16699 -14.499 1.5s-10.166 1.83301 -14.499 4.5
s-6.5 9.66699 -6.5 21v107c22.667 0 39.5 -4 50.5 -12s19.333 -17.833 25 -29.5s10.334 -24.334 14.001 -38.001s8.83398 -26.334 15.501 -38.001s16.667 -21.5 30 -29.5s33 -12 59 -12c2.66699 0 5.33398 0.666992 8.00098 2s4 3.66602 4 6.99902zM379.993 593.001
c0 -14 -2.33203 -25.668 -6.99902 -35.001s-11 -16.666 -19 -21.999s-17.333 -9 -28 -11s-22 -3 -34 -3v108c0 10.667 3.5 17 10.5 19s14.833 3 23.5 3c21.333 0 35.666 -4.66699 42.999 -14s11 -24.333 11 -45z" />
    <glyph glyph-name="macron" unicode="&#xaf;" horiz-adv-x="278" 
d="M251 751h-208l-10 -33h208z" />
    <glyph glyph-name="degree" unicode="&#xb0;" horiz-adv-x="806" 
d="M1096 566c0 3.33301 -1.5 8 -4.5 14s-6.66699 11.833 -11 17.5s-8.83301 10.5 -13.5 14.5s-8.66699 6 -12 6c-29.333 0 -60.833 -10.833 -94.5 -32.5s-67.334 -49.834 -101.001 -84.501s-66 -73.667 -97 -117s-58.5 -86.666 -82.5 -129.999
s-43.167 -84.666 -57.5 -123.999s-21.5 -72.333 -21.5 -99c0 -12 3.66699 -24.167 11 -36.5s19.666 -18.5 36.999 -18.5c20.667 0 38.334 6.33301 53.001 19c0 0.666992 0.166992 1.33398 0.5 2.00098s0.5 1.66699 0.5 3s-0.166992 3.66602 -0.5 6.99902
s-1.5 4.66602 -3.5 3.99902c-10 -8 -21.667 -12 -35 -12c-11.333 0 -19 3 -23 9s-6 12.667 -6 20c0 8.66699 2 19.167 6 31.5s8.66699 25.166 14 38.499s11 26 17 38l15 30c10.667 8.66699 25.334 20 44.001 34l62.5 48l73 58c25.667 20.667 50.5 42 74.5 64
c21.333 19.333 41.333 38.833 60 58.5s35 38.334 49 56.001s25.167 33.667 33.5 48s12.5 25.5 12.5 33.5zM1193 708c0 8 -1.66211 15.999 -4.99512 23.999s-9.33301 15.333 -18 22c-4 3.33301 -11 6.5 -21 9.5s-24.167 5.5 -42.5 7.5s-41.333 3.66699 -69 5
s-60.834 2 -99.501 2c-40 0 -80.833 -1 -122.5 -3s-82.5 -4.66699 -122.5 -8c4 6.66699 6 12 6 16c0 7.33301 -1 13.333 -3 18s-7.66699 7 -17 7c-6 0 -14.5 -4.5 -25.5 -13.5s-24.167 -21.167 -39.5 -36.5c-57.333 -6 -107 -12.167 -149 -18.5s-70.333 -11.5 -85 -15.5
l-2 4c2 0.666992 7 3 15 7s16.5 8.5 25.5 13.5s17.167 9.83301 24.5 14.5s11 8 11 10c0 10 -5.66699 15 -17 15c-1.33301 0 -11.5 -3 -30.5 -9s-42.167 -13.833 -69.5 -23.5l-88 -32.5l-87.5 -35c-27 -11.333 -49.333 -21.666 -67 -30.999s-26.5 -16.666 -26.5 -21.999
c0 -6.66699 3.33301 -12 10 -16s15.667 -6 27 -6c4 0 18.167 3 42.5 9s56.666 13.5 96.999 22.5s87.666 18.667 141.999 29s113.166 20.166 176.499 29.499l-51.5 -60l-53 -65l-51.5 -65.5l-47 -60.5l-29.5 -5.5l-36.5 -7l-32.5 -6.5c-9.66699 -2 -15.834 -3 -18.501 -3
c-7.33301 -0.666992 -11 -3.33398 -11 -8.00098v-10c0 -2 1.33301 -4 4 -6s6.66699 -2.66699 12 -2c2 0 5.66699 0.333008 11 1s11.833 1.33398 19.5 2.00098s15.834 1.33398 24.501 2.00098l25 2l-34.5 -46l-58.5 -79l-68.5 -95l-65 -94.5
c-19.667 -29.667 -36 -55.334 -49 -77.001s-19.5 -35.5 -19.5 -41.5c0 -15.333 2.33301 -28.5 7 -39.5s13 -16.5 25 -16.5c6 0 10.833 1.83301 14.5 5.5s6.83398 8.16699 9.50098 13.5s5 10.833 7 16.5s4.33301 10.167 7 13.5c1.33301 2 6.5 8 15.5 18l32 35.5l40 43.5
l40 43.5l32.5 35.5c9.33301 10 15 16.333 17 19c0 7.33301 -3.33301 11 -10 11c-2 -2 -7.66699 -6.5 -17 -13.5l-30 -23l-30.5 -24c-9.66699 -7.66699 -15.5 -12.5 -17.5 -14.5l-5 2c8 12.667 18 27.667 30 45l39 55l43 59.5l43.5 58.5l41 52l33.5 41
c21.333 4 44.833 8 70.5 12s48.834 7 69.501 9c17.333 2 36.333 3.66699 57 5s40.167 2.66602 58.5 3.99902s34.166 2.33301 47.499 3s21.666 1 24.999 1c13.333 0 20 0.666992 20 2c0 6.66699 -4.66699 13 -14 19c-10.667 4.66699 -33.667 7 -69 7
c-6.66699 0 -18.5 -0.333008 -35.5 -1s-36.5 -1.83398 -58.5 -3.50098s-44.833 -3.5 -68.5 -5.5s-45.167 -4 -64.5 -6l61.5 72l60.5 69l54 62l44 53c52.667 6 106.667 10.833 162 14.5s111.333 5.5 168 5.5c20.667 0 40.5 -0.166992 59.5 -0.5s35.667 -1.16602 50 -2.49902
s25.833 -3.33301 34.5 -6s13 -6.33398 13 -11.001s-3.66699 -9 -11 -13s-16.333 -8 -27 -12s-22.334 -7.83301 -35.001 -11.5l-35 -10.5l-27 -8.5c-7.33301 -2.33301 -11 -4.16602 -11 -5.49902c0 -4.66699 2.66699 -8 8 -10s10.666 -3 15.999 -3
c2.66699 0 13 1.83301 31 5.5s37.333 8.5 58 14.5s39.334 12.833 56.001 20.5s25 15.834 25 24.501zM1064 551.999c0 -4.66699 -3.83398 -12.665 -11.501 -23.998s-18.167 -24.666 -31.5 -39.999s-28.666 -31.833 -45.999 -49.5s-35.333 -34.834 -54 -51.501l-64 -55
l-60.5 -50.5l-51 -42c-15 -12.333 -26.5 -21.5 -34.5 -27.5c6.66699 12 15.5 26.167 26.5 42.5s23.667 33.833 38 52.5l46 58l50.5 59c17.333 19.333 34.833 37.666 52.5 54.999s34.5 32.5 50.5 45.5s30.667 23.333 44 31s25 11.5 35 11.5c5.33301 0 8.33301 -1.33301 9 -4
s1 -6.33398 1 -11.001z" />
    <glyph glyph-name="acute" unicode="&#xb4;" horiz-adv-x="184" 
d="M146 718c-5.33301 1.33301 -13.5 -0.834961 -24.5 -6.50195s-22.167 -12.834 -33.5 -21.501s-21.333 -17.5 -30 -26.5s-13.667 -15.833 -15 -20.5c-3.33301 -2 -6 -3 -8 -3c-4 0.666992 -5.33301 3.33398 -4 8.00098c1.33301 5.33301 5.16602 13.333 11.499 24
s13.5 21.667 21.5 33l23.5 32c7.66699 10 13.834 17 18.501 21c3.33301 3.33301 6.33301 4.33301 9 3s5 -2.33301 7 -3c5.33301 -1.33301 11 -6.66602 17 -15.999s9.33301 -16.666 10 -21.999z" />
    <glyph glyph-name="periodcentered" unicode="&#xb7;" horiz-adv-x="224" 
d="M179 203c0 4 -1.66504 8.5 -4.99805 13.5s-7.33301 9.5 -12 13.5s-9.33398 7.5 -14.001 10.5s-8.33398 4.5 -11.001 4.5s-5.66699 -1.5 -9 -4.5s-6.5 -6.33301 -9.5 -10s-5.66699 -7.5 -8 -11.5s-3.5 -7 -3.5 -9c0 -3.33301 0.833008 -9.66602 2.5 -18.999
s3.16699 -15.666 4.5 -18.999c0.666992 -4 3.5 -7.33301 8.5 -10s11.167 -4 18.5 -4c4.66699 0 9.33398 1.66699 14.001 5s8.66699 7.16602 12 11.499s6.16602 9.16602 8.49902 14.499s3.5 10 3.5 14z" />
    <glyph glyph-name="cedilla" unicode="&#xb8;" horiz-adv-x="296" 
d="M217 -79c0 -10 -2.50195 -20 -7.50195 -30s-11.5 -18.833 -19.5 -26.5s-16.833 -14 -26.5 -19s-19.5 -7.5 -29.5 -7.5c-4 0 -10.5 0.5 -19.5 1.5s-18 2.66699 -27 5s-16.833 5.33301 -23.5 9s-10 8.16699 -10 13.5c0 2 0.833008 4.66699 2.5 8s3.83398 5 6.50098 5
c8 0 15.667 -1.83301 23 -5.5s15 -5.5 23 -5.5c6 0 12.333 1 19 3s13 5 19 9s11 9.5 15 16.5s6 15.5 6 25.5c0 4 -1.66699 7.16699 -5 9.5s-7.33301 4 -12 5s-9.66699 1.5 -15 1.5h-11l31.5 34c10.333 11.333 19.5 23.666 27.5 36.999h32l-18.5 -24
c-6.33301 -8 -13.166 -15.667 -20.499 -23c12 0 21.667 -4.16699 29 -12.5s11 -18.166 11 -29.499z" />
    <glyph glyph-name="ordmasculine" unicode="&#xba;" horiz-adv-x="453" 
d="M502 698c-2.66699 4.66699 -5.66797 12.001 -9.00098 22.001c0 1.33301 0.166992 2.33301 0.5 3s0.5 1.66699 0.5 3c0 19.333 -4.5 33.166 -13.5 41.499s-19.167 12.5 -30.5 12.5c-7.33301 0 -15.833 -1.16699 -25.5 -3.5s-16.5 -3.5 -20.5 -3.5
c-3.33301 0 -6.33301 3.33301 -9 10s-7 10 -13 10c-12 0 -27.333 -7.5 -46 -22.5s-36.834 -33.333 -54.501 -55s-33 -44.334 -46 -68.001s-19.5 -44.167 -19.5 -61.5c0 -19.333 6.33301 -33.666 19 -42.999s28.334 -14 47.001 -14c18 0 36.667 5.33301 56 16
s38 23.834 56 39.501s34.333 32.667 49 51s26.334 35.166 35.001 50.499c4 1.33301 7.83301 2.33301 11.5 3s6.5 1 8.5 1c6.66699 1.33301 8 4 4 8zM460.999 753.001c0 -1.33301 -2.66992 -4.83594 -8.00293 -10.5029s-8 -13.5 -8 -23.5
c0 -7.33301 0.833008 -12.333 2.5 -15s3.16699 -4.66699 4.5 -6c0 -7.33301 -6.66699 -19.166 -20 -35.499s-29.166 -33 -47.499 -50s-37.166 -32 -56.499 -45s-35 -19.5 -47 -19.5c-16.667 0 -25 8.66699 -25 26c0 14 6.66699 31.333 20 52s30 40.834 50 60.501
s41.333 36.334 64 50.001s43.334 20.5 62.001 20.5c6 0 9 -1.33301 9 -4z" />
    <glyph glyph-name="guillemotright" unicode="&#xbb;" horiz-adv-x="424" 
d="M391 247c0 8.66699 -4.16699 18.1641 -12.5 28.4971s-17.833 20 -28.5 29s-21 17 -31 24s-17 12.167 -21 15.5c-5.33301 -2 -8 -6 -8 -12c0 -2.66699 0.666992 -4.66699 2 -6l26.5 -34.5c8.33301 -11 15.166 -23.833 20.499 -38.5c-15.333 -12.667 -32.333 -25 -51 -37
s-37 -22.333 -55 -31c-2 -1.33301 -3.5 -2.16602 -4.5 -2.49902s-1.5 -2.16602 -1.5 -5.49902c0 -5.33301 2.33301 -8.33301 7 -9c21.333 5.33301 41.833 13.5 61.5 24.5s39.834 20.5 60.501 28.5c9.33301 3.33301 17.5 6.83301 24.5 10.5s10.5 8.83398 10.5 15.501z
M287 246.997c0 8.66699 -4.16699 18.1641 -12.5 28.4971s-17.833 20 -28.5 29s-21 17 -31 24s-17 12.167 -21 15.5c-5.33301 -2 -8 -6 -8 -12c0 -2.66699 0.666992 -4.66699 2 -6l26.5 -34.5c8.33301 -11 15.166 -23.833 20.499 -38.5c-15.333 -12.667 -32.333 -25 -51 -37
s-37 -22.333 -55 -31c-2 -1.33301 -3.5 -2.16602 -4.5 -2.49902s-1.5 -2.16602 -1.5 -5.49902c0 -5.33301 2.33301 -8.33301 7 -9c21.333 5.33301 41.833 13.5 61.5 24.5s39.834 20.5 60.501 28.5c9.33301 3.33301 17.5 6.83301 24.5 10.5s10.5 8.83398 10.5 15.501z" />
    <glyph glyph-name="questiondown" unicode="&#xbf;" horiz-adv-x="559" 
d="M569 698c0 3.33301 -0.833008 9.66797 -2.5 19.001s-3.16699 15.666 -4.5 18.999c-0.666992 4 -3.5 7.33301 -8.5 10s-10.833 4 -17.5 4c-10 0 -18.833 -5.5 -26.5 -16.5s-11.5 -20.5 -11.5 -28.5c0 -4 1.66699 -8.5 5 -13.5s7.16602 -9.5 11.499 -13.5
s8.83301 -7.5 13.5 -10.5s8.33398 -4.5 11.001 -4.5s5.66699 1.5 9 4.5s6.5 6.33301 9.5 10s5.66699 7.5 8 11.5s3.5 7 3.5 9zM518 582.002c0 13.333 -3.16602 23.666 -9.49902 30.999s-13.5 11 -21.5 11c0.666992 -21.333 -5 -42.333 -17 -63s-28.167 -41.5 -48.5 -62.5
s-43.833 -42 -70.5 -63l-82 -63.5l-92 -71.5c-30.667 -24.333 -58.334 -49 -83.001 -74s-44.834 -50.667 -60.501 -77s-23.5 -53.5 -23.5 -81.5c0 -28.667 10 -49.834 30 -63.501s46.333 -20.5 79 -20.5c24 0 49.333 3.16699 76 9.5s53.167 14.166 79.5 23.499
s51.333 19.833 75 31.5s44.667 22.667 63 33s32.833 19.5 43.5 27.5s16 13.333 16 16c0 5.33301 -1.5 10.333 -4.5 15s-6.5 8.83398 -10.5 12.501s-7.83301 6.66699 -11.5 9s-6.5 3.5 -8.5 3.5c-3.33301 0 -11 -4 -23 -12l-44.5 -30l-60 -39c-22.333 -14 -45 -27 -68 -39
s-46 -22 -69 -30s-43.833 -12 -62.5 -12c-13.333 0 -26.166 3.66699 -38.499 11s-18.5 20 -18.5 38c0 28.667 7 56.334 21 83.001s32.333 52.5 55 77.5s48.167 49.333 76.5 73l85.5 68.5l83.5 63c27 20 51.167 39.5 72.5 58.5s38.5 37.333 51.5 55s19.5 34.834 19.5 51.501z
" />
    <glyph glyph-name="Agrave" unicode="&#xc0;" horiz-adv-x="788" 
d="M1087 837c-3.33301 10 -8.16699 19.6709 -14.5 29.0039s-13.333 18.333 -21 27s-15.667 17.167 -24 25.5s-15.5 16.5 -21.5 24.5c-3.33301 3.33301 -6.5 4.16602 -9.5 2.49902s-5.16699 -2.83398 -6.5 -3.50098c-2.66699 -0.666992 -5.5 -2.5 -8.5 -5.5
s-5.66699 -6.5 -8 -10.5s-4.16602 -8 -5.49902 -12s-2 -7.33301 -2 -10c4 -1.33301 11.333 -3.5 22 -6.5s21.667 -7.33301 33 -13s22.166 -12.834 32.499 -21.501s17.5 -19.334 21.5 -32.001c2 -2 5 -2.33301 9 -1c2 0.666992 3 3 3 7zM1069 759.004
c0 4 -0.833008 9.83008 -2.5 17.4971s-5.5 11.5 -11.5 11.5c-8.66699 0 -24.5 -6.16699 -47.5 -18.5s-50.333 -28.833 -82 -49.5l-102 -70l-107.5 -79l-74.5 -59l-68 -54.5l-56.5 -47l-41 -35.5c-19.333 -0.666992 -36.5 -1.83398 -51.5 -3.50098l-50.5 -5.5
c-8 -0.666992 -22.5 -2.5 -43.5 -5.5s-44.833 -6.66699 -71.5 -11s-54.5 -9.33301 -83.5 -15s-55.5 -12 -79.5 -19s-43.833 -14.667 -59.5 -23s-23.5 -16.833 -23.5 -25.5c0 -7.33301 4.5 -13.666 13.5 -18.999s17.167 -8 24.5 -8c6.66699 0 15.834 2 27.501 6
s24 8.66699 37 14l37.5 16c12 5.33301 21.667 9.33301 29 12c20.667 6.66699 43.5 13.334 68.5 20.001s49.333 12.5 73 17.5s45.667 9.16699 66 12.5s36.5 5 48.5 5c-34 -30.667 -67.5 -63.167 -100.5 -97.5s-66.167 -67.166 -99.5 -98.499l-52.5 -51.5
c-17.667 -17.667 -35.834 -34.167 -54.501 -49.5c-1.33301 -1.33301 -4.66602 -3.83301 -9.99902 -7.5s-10.833 -7.83398 -16.5 -12.501l-15 -12.5c-4.33301 -3.66699 -6.5 -6.16699 -6.5 -7.5s1.16699 -2.5 3.5 -3.5s5.16602 -1.83301 8.49902 -2.5s6.33301 -1 9 -1h7
c10.667 0 20.5 3 29.5 9s17.167 12 24.5 18c20 15.333 39.167 32.833 57.5 52.5l53.5 55.5l107.5 105.5l108.5 103.5c38 3.33301 78.5 5.16602 121.5 5.49902s82.833 -0.166992 119.5 -1.5c-6.66699 -8.66699 -17.167 -24.167 -31.5 -46.5l-48 -78.5l-54.5 -97
c-18.667 -34.667 -35.834 -68.167 -51.501 -100.5s-28.5 -62.166 -38.5 -89.499s-15 -49 -15 -65c0 -4.66699 0.5 -10.5 1.5 -17.5s2.66699 -13.833 5 -20.5s5.5 -12.334 9.5 -17.001s9.33301 -7 16 -7c4 0 7.33301 2.33301 10 7c10 22.667 23.333 48.834 40 78.501
s34.667 59.834 54 90.501c20 32.667 40 63.667 60 93s37.333 53 52 71c0 1.33301 -0.5 2.83301 -1.5 4.5s-1.83301 2.5 -2.5 2.5c-18 -12 -34.833 -26.333 -50.5 -43s-29.5 -33.667 -41.5 -51h-3c24.667 48 48 95.833 70 143.5s47.333 94.167 76 139.5
c11.333 -0.666992 22.333 -1.16699 33 -1.5s21.667 -1.16602 33 -2.49902l-10 18l-47 5l59 86.5l61 84.5l15.5 20l27 34.5l32.5 41.5l32 41l25 32.5c6.66699 9 10.334 14.5 11.001 16.5c2.66699 6.66699 4.66699 13 6 19s2 12.667 2 20zM979.999 701.001l-22.5 -30.5
l-38.5 -53l-47.5 -66l-49.5 -70l-44.5 -64.5c-13.667 -20 -24.5 -36.333 -32.5 -49c-34.667 2 -70.5 3.5 -107.5 4.5s-72.833 1.5 -107.5 1.5l46.5 37.5l80 63.5l97 74.5l98 71.5c31 22 58.167 40.5 81.5 55.5s39 23.167 47 24.5z" />
    <glyph glyph-name="Aacute" unicode="&#xc1;" horiz-adv-x="788" 
d="M1188 911c0 2.66699 -0.999023 6.00098 -2.99902 10.001s-4.33301 8 -7 12s-5.5 7.5 -8.5 10.5s-5.83301 4.83301 -8.5 5.5c-2 0.666992 -4.5 1.66699 -7.5 3s-6.16699 0.333008 -9.5 -3c-4.66699 -4 -10.834 -11 -18.501 -21l-23.5 -32c-8 -11.333 -15 -22.333 -21 -33
s-9.66699 -18.667 -11 -24c-1.33301 -4.66699 0 -7.33398 4 -8.00098c1.33301 0 4 0.666992 8 2c1.33301 5.33301 6.33301 12.5 15 21.5s18.667 17.667 30 26s22.5 15.5 33.5 21.5s19.167 8.33301 24.5 7zM1069 759.001c0 4 -0.833008 9.83008 -2.5 17.4971
s-5.5 11.5 -11.5 11.5c-8.66699 0 -24.5 -6.16699 -47.5 -18.5s-50.333 -28.833 -82 -49.5l-102 -70l-107.5 -79l-74.5 -59l-68 -54.5l-56.5 -47l-41 -35.5c-19.333 -0.666992 -36.5 -1.83398 -51.5 -3.50098l-50.5 -5.5c-8 -0.666992 -22.5 -2.5 -43.5 -5.5
s-44.833 -6.66699 -71.5 -11s-54.5 -9.33301 -83.5 -15s-55.5 -12 -79.5 -19s-43.833 -14.667 -59.5 -23s-23.5 -16.833 -23.5 -25.5c0 -7.33301 4.5 -13.666 13.5 -18.999s17.167 -8 24.5 -8c6.66699 0 15.834 2 27.501 6s24 8.66699 37 14l37.5 16
c12 5.33301 21.667 9.33301 29 12c20.667 6.66699 43.5 13.334 68.5 20.001s49.333 12.5 73 17.5s45.667 9.16699 66 12.5s36.5 5 48.5 5c-34 -30.667 -67.5 -63.167 -100.5 -97.5s-66.167 -67.166 -99.5 -98.499l-52.5 -51.5
c-17.667 -17.667 -35.834 -34.167 -54.501 -49.5c-1.33301 -1.33301 -4.66602 -3.83301 -9.99902 -7.5s-10.833 -7.83398 -16.5 -12.501l-15 -12.5c-4.33301 -3.66699 -6.5 -6.16699 -6.5 -7.5s1.16699 -2.5 3.5 -3.5s5.16602 -1.83301 8.49902 -2.5s6.33301 -1 9 -1h7
c10.667 0 20.5 3 29.5 9s17.167 12 24.5 18c20 15.333 39.167 32.833 57.5 52.5l53.5 55.5l107.5 105.5l108.5 103.5c38 3.33301 78.5 5.16602 121.5 5.49902s82.833 -0.166992 119.5 -1.5c-6.66699 -8.66699 -17.167 -24.167 -31.5 -46.5l-48 -78.5l-54.5 -97
c-18.667 -34.667 -35.834 -68.167 -51.501 -100.5s-28.5 -62.166 -38.5 -89.499s-15 -49 -15 -65c0 -4.66699 0.5 -10.5 1.5 -17.5s2.66699 -13.833 5 -20.5s5.5 -12.334 9.5 -17.001s9.33301 -7 16 -7c4 0 7.33301 2.33301 10 7c10 22.667 23.333 48.834 40 78.501
s34.667 59.834 54 90.501c20 32.667 40 63.667 60 93s37.333 53 52 71c0 1.33301 -0.5 2.83301 -1.5 4.5s-1.83301 2.5 -2.5 2.5c-18 -12 -34.833 -26.333 -50.5 -43s-29.5 -33.667 -41.5 -51h-3c24.667 48 48 95.833 70 143.5s47.333 94.167 76 139.5
c11.333 -0.666992 22.333 -1.16699 33 -1.5s21.667 -1.16602 33 -2.49902l-10 18l-47 5l59 86.5l61 84.5l15.5 20l27 34.5l32.5 41.5l32 41l25 32.5c6.66699 9 10.334 14.5 11.001 16.5c2.66699 6.66699 4.66699 13 6 19s2 12.667 2 20zM980.001 700.998l-22.5 -30.5
l-38.5 -53l-47.5 -66l-49.5 -70l-44.5 -64.5c-13.667 -20 -24.5 -36.333 -32.5 -49c-34.667 2 -70.5 3.5 -107.5 4.5s-72.833 1.5 -107.5 1.5l46.5 37.5l80 63.5l97 74.5l98 71.5c31 22 58.167 40.5 81.5 55.5s39 23.167 47 24.5z" />
    <glyph glyph-name="Acircumflex" unicode="&#xc2;" horiz-adv-x="788" 
d="M1159 836c0 4.66699 -1.00098 12.833 -3.00098 24.5s-5.16699 23.5 -9.5 35.5s-9.66602 22.667 -15.999 32s-13.5 14 -21.5 14c-11.333 0 -18.833 -2.16699 -22.5 -6.5l-13.5 -15.5c-4.66699 -4.66699 -12.334 -11 -23.001 -19s-21.5 -16.667 -32.5 -26
s-20.667 -19 -29 -29s-12.5 -19.333 -12.5 -28l7 -3l11 4c0.666992 4.66699 5.5 10.667 14.5 18s19 14.5 30 21.5s22 13.5 33 19.5s19.167 10.667 24.5 14c10.667 -7.33301 20 -15.5 28 -24.5s13.333 -19.167 16 -30.5c1.33301 -3.33301 1.83301 -6.5 1.5 -9.5
s-0.166016 -5.83301 0.500977 -8.5c0.666992 -1.33301 2 -2.33301 4 -3s3.66699 -1 5 -1c4 0 6.33301 3 7 9s1 10 1 12zM1069 758.999c0 4 -0.833008 9.83008 -2.5 17.4971s-5.5 11.5 -11.5 11.5c-8.66699 0 -24.5 -6.16699 -47.5 -18.5s-50.333 -28.833 -82 -49.5l-102 -70
l-107.5 -79l-74.5 -59l-68 -54.5l-56.5 -47l-41 -35.5c-19.333 -0.666992 -36.5 -1.83398 -51.5 -3.50098l-50.5 -5.5c-8 -0.666992 -22.5 -2.5 -43.5 -5.5s-44.833 -6.66699 -71.5 -11s-54.5 -9.33301 -83.5 -15s-55.5 -12 -79.5 -19s-43.833 -14.667 -59.5 -23
s-23.5 -16.833 -23.5 -25.5c0 -7.33301 4.5 -13.666 13.5 -18.999s17.167 -8 24.5 -8c6.66699 0 15.834 2 27.501 6s24 8.66699 37 14l37.5 16c12 5.33301 21.667 9.33301 29 12c20.667 6.66699 43.5 13.334 68.5 20.001s49.333 12.5 73 17.5s45.667 9.16699 66 12.5
s36.5 5 48.5 5c-34 -30.667 -67.5 -63.167 -100.5 -97.5s-66.167 -67.166 -99.5 -98.499l-52.5 -51.5c-17.667 -17.667 -35.834 -34.167 -54.501 -49.5c-1.33301 -1.33301 -4.66602 -3.83301 -9.99902 -7.5s-10.833 -7.83398 -16.5 -12.501l-15 -12.5
c-4.33301 -3.66699 -6.5 -6.16699 -6.5 -7.5s1.16699 -2.5 3.5 -3.5s5.16602 -1.83301 8.49902 -2.5s6.33301 -1 9 -1h7c10.667 0 20.5 3 29.5 9s17.167 12 24.5 18c20 15.333 39.167 32.833 57.5 52.5l53.5 55.5l107.5 105.5l108.5 103.5
c38 3.33301 78.5 5.16602 121.5 5.49902s82.833 -0.166992 119.5 -1.5c-6.66699 -8.66699 -17.167 -24.167 -31.5 -46.5l-48 -78.5l-54.5 -97c-18.667 -34.667 -35.834 -68.167 -51.501 -100.5s-28.5 -62.166 -38.5 -89.499s-15 -49 -15 -65c0 -4.66699 0.5 -10.5 1.5 -17.5
s2.66699 -13.833 5 -20.5s5.5 -12.334 9.5 -17.001s9.33301 -7 16 -7c4 0 7.33301 2.33301 10 7c10 22.667 23.333 48.834 40 78.501s34.667 59.834 54 90.501c20 32.667 40 63.667 60 93s37.333 53 52 71c0 1.33301 -0.5 2.83301 -1.5 4.5s-1.83301 2.5 -2.5 2.5
c-18 -12 -34.833 -26.333 -50.5 -43s-29.5 -33.667 -41.5 -51h-3c24.667 48 48 95.833 70 143.5s47.333 94.167 76 139.5c11.333 -0.666992 22.333 -1.16699 33 -1.5s21.667 -1.16602 33 -2.49902l-10 18l-47 5l59 86.5l61 84.5l15.5 20l27 34.5l32.5 41.5l32 41l25 32.5
c6.66699 9 10.334 14.5 11.001 16.5c2.66699 6.66699 4.66699 13 6 19s2 12.667 2 20zM979.999 700.996l-22.5 -30.5l-38.5 -53l-47.5 -66l-49.5 -70l-44.5 -64.5c-13.667 -20 -24.5 -36.333 -32.5 -49c-34.667 2 -70.5 3.5 -107.5 4.5s-72.833 1.5 -107.5 1.5l46.5 37.5
l80 63.5l97 74.5l98 71.5c31 22 58.167 40.5 81.5 55.5s39 23.167 47 24.5z" />
    <glyph glyph-name="Atilde" unicode="&#xc3;" horiz-adv-x="788" 
d="M1200 885c-4 -2 -10.3359 -5.66895 -19.0029 -11.002l-27 -16l-25.5 -14.5c-7.66699 -4.33301 -12.834 -6.5 -15.501 -6.5c-3.33301 0 -8.16602 1.83301 -14.499 5.5l-20.5 11.5l-22 11.5c-7.33301 3.66699 -13.666 5.5 -18.999 5.5c-8 0 -15.333 -1.16699 -22 -3.5
s-16.667 -8.16602 -30 -17.499l-8 14c4 4 9.83301 8.83301 17.5 14.5s15.834 11 24.501 16s17.167 9.33301 25.5 13s15.5 5.5 21.5 5.5c4 0 9 -1.66699 15 -5s12.333 -7.16602 19 -11.499s13.167 -8.16602 19.5 -11.499s11.5 -5 15.5 -5c9.33301 0 18.333 3.16699 27 9.5
s17.667 10.5 27 12.5c4.66699 -2.66699 8.33398 -8.33398 11.001 -17.001zM1069 758.998c0 -7.33301 -0.666992 -13.9971 -2 -19.9971s-3.33301 -12.333 -6 -19c-0.666992 -2 -4.33398 -7.5 -11.001 -16.5l-25 -32.5l-32 -41l-32.5 -41.5l-27 -34.5l-15.5 -20l-61 -84.5
l-59 -86.5l47 -5l10 -18c-11.333 1.33301 -22.333 2.16602 -33 2.49902s-21.667 0.833008 -33 1.5c-28.667 -45.333 -54 -91.833 -76 -139.5s-45.333 -95.5 -70 -143.5h3c12 17.333 25.833 34.333 41.5 51s32.5 31 50.5 43c0.666992 0 1.5 -0.833008 2.5 -2.5
s1.5 -3.16699 1.5 -4.5c-14.667 -18 -32 -41.667 -52 -71s-40 -60.333 -60 -93c-19.333 -30.667 -37.333 -60.834 -54 -90.501s-30 -55.834 -40 -78.501c-2.66699 -4.66699 -6 -7 -10 -7c-6.66699 0 -12 2.33301 -16 7s-7.16699 10.334 -9.5 17.001s-4 13.5 -5 20.5
s-1.5 12.833 -1.5 17.5c0 16 5 37.667 15 65s22.833 57.166 38.5 89.499s32.834 65.833 51.501 100.5l54.5 97l48 78.5c14.333 22.333 24.833 37.833 31.5 46.5c-36.667 1.33301 -76.5 1.83301 -119.5 1.5s-83.5 -2.16602 -121.5 -5.49902l-108.5 -103.5l-107.5 -105.5
l-53.5 -55.5c-18.333 -19.667 -37.5 -37.167 -57.5 -52.5c-7.33301 -6 -15.5 -12 -24.5 -18s-18.833 -9 -29.5 -9h-7c-2.66699 0 -5.66699 0.333008 -9 1s-6.16602 1.5 -8.49902 2.5s-3.5 2.16699 -3.5 3.5s2.16699 3.83301 6.5 7.5l15 12.5
c5.66699 4.66699 11.167 8.83398 16.5 12.501s8.66602 6.16699 9.99902 7.5c18.667 15.333 36.834 31.833 54.501 49.5l52.5 51.5c33.333 31.333 66.5 64.166 99.5 98.499s66.5 66.833 100.5 97.5c-12 0 -28.167 -1.66699 -48.5 -5s-42.333 -7.5 -66 -12.5
s-48 -10.833 -73 -17.5s-47.833 -13.334 -68.5 -20.001c-7.33301 -2.66699 -17 -6.66699 -29 -12l-37.5 -16c-13 -5.33301 -25.333 -10 -37 -14s-20.834 -6 -27.501 -6c-7.33301 0 -15.5 2.66699 -24.5 8s-13.5 11.666 -13.5 18.999c0 8.66699 7.83301 17.167 23.5 25.5
s35.5 16 59.5 23s50.5 13.333 79.5 19s56.833 10.667 83.5 15s50.5 8 71.5 11s35.5 4.83301 43.5 5.5l50.5 5.5c15 1.66699 32.167 2.83398 51.5 3.50098l41 35.5l56.5 47l68 54.5l74.5 59l107.5 79l102 70c31.667 20.667 59 37.167 82 49.5s38.833 18.5 47.5 18.5
c6 0 9.83301 -3.83301 11.5 -11.5s2.5 -13.5 2.5 -17.5zM979.997 701.001c-8 -1.33301 -23.667 -9.5 -47 -24.5s-50.5 -33.5 -81.5 -55.5l-98 -71.5l-97 -74.5l-80 -63.5l-46.5 -37.5c34.667 0 70.5 -0.5 107.5 -1.5s72.833 -2.5 107.5 -4.5c8 12.667 18.833 29 32.5 49
l44.5 64.5l49.5 70l47.5 66l38.5 53z" />
    <glyph glyph-name="Adieresis" unicode="&#xc4;" horiz-adv-x="788" 
d="M1163 858c0 24 -10.999 36.001 -32.999 36.001c-11.333 0 -18.5 -3.66699 -21.5 -11l-10.5 -25c-5.33301 -10 -4.33301 -17.5 3 -22.5s16.666 -7.5 27.999 -7.5s19.833 2.16699 25.5 6.5s8.5 12.166 8.5 23.499zM1053 858.001c0 24 -11 36.001 -33 36.001
c-11.333 0 -18.666 -3.66699 -21.999 -11l-11 -25c-5.33301 -10 -4.33301 -17.5 3 -22.5s16.666 -7.5 27.999 -7.5s20 2.16699 26 6.5s9 12.166 9 23.499zM1069 759.002c0 4 -0.833008 9.83008 -2.5 17.4971s-5.5 11.5 -11.5 11.5c-8.66699 0 -24.5 -6.16699 -47.5 -18.5
s-50.333 -28.833 -82 -49.5l-102 -70l-107.5 -79l-74.5 -59l-68 -54.5l-56.5 -47l-41 -35.5c-19.333 -0.666992 -36.5 -1.83398 -51.5 -3.50098l-50.5 -5.5c-8 -0.666992 -22.5 -2.5 -43.5 -5.5s-44.833 -6.66699 -71.5 -11s-54.5 -9.33301 -83.5 -15s-55.5 -12 -79.5 -19
s-43.833 -14.667 -59.5 -23s-23.5 -16.833 -23.5 -25.5c0 -7.33301 4.5 -13.666 13.5 -18.999s17.167 -8 24.5 -8c6.66699 0 15.834 2 27.501 6s24 8.66699 37 14l37.5 16c12 5.33301 21.667 9.33301 29 12c20.667 6.66699 43.5 13.334 68.5 20.001s49.333 12.5 73 17.5
s45.667 9.16699 66 12.5s36.5 5 48.5 5c-34 -30.667 -67.5 -63.167 -100.5 -97.5s-66.167 -67.166 -99.5 -98.499l-52.5 -51.5c-17.667 -17.667 -35.834 -34.167 -54.501 -49.5c-1.33301 -1.33301 -4.66602 -3.83301 -9.99902 -7.5s-10.833 -7.83398 -16.5 -12.501
l-15 -12.5c-4.33301 -3.66699 -6.5 -6.16699 -6.5 -7.5s1.16699 -2.5 3.5 -3.5s5.16602 -1.83301 8.49902 -2.5s6.33301 -1 9 -1h7c10.667 0 20.5 3 29.5 9s17.167 12 24.5 18c20 15.333 39.167 32.833 57.5 52.5l53.5 55.5l107.5 105.5l108.5 103.5
c38 3.33301 78.5 5.16602 121.5 5.49902s82.833 -0.166992 119.5 -1.5c-6.66699 -8.66699 -17.167 -24.167 -31.5 -46.5l-48 -78.5l-54.5 -97c-18.667 -34.667 -35.834 -68.167 -51.501 -100.5s-28.5 -62.166 -38.5 -89.499s-15 -49 -15 -65c0 -4.66699 0.5 -10.5 1.5 -17.5
s2.66699 -13.833 5 -20.5s5.5 -12.334 9.5 -17.001s9.33301 -7 16 -7c4 0 7.33301 2.33301 10 7c10 22.667 23.333 48.834 40 78.501s34.667 59.834 54 90.501c20 32.667 40 63.667 60 93s37.333 53 52 71c0 1.33301 -0.5 2.83301 -1.5 4.5s-1.83301 2.5 -2.5 2.5
c-18 -12 -34.833 -26.333 -50.5 -43s-29.5 -33.667 -41.5 -51h-3c24.667 48 48 95.833 70 143.5s47.333 94.167 76 139.5c11.333 -0.666992 22.333 -1.16699 33 -1.5s21.667 -1.16602 33 -2.49902l-10 18l-47 5l59 86.5l61 84.5l15.5 20l27 34.5l32.5 41.5l32 41l25 32.5
c6.66699 9 10.334 14.5 11.001 16.5c2.66699 6.66699 4.66699 13 6 19s2 12.667 2 20zM980.001 700.999l-22.5 -30.5l-38.5 -53l-47.5 -66l-49.5 -70l-44.5 -64.5c-13.667 -20 -24.5 -36.333 -32.5 -49c-34.667 2 -70.5 3.5 -107.5 4.5s-72.833 1.5 -107.5 1.5l46.5 37.5
l80 63.5l97 74.5l98 71.5c31 22 58.167 40.5 81.5 55.5s39 23.167 47 24.5z" />
    <glyph glyph-name="Aring" unicode="&#xc5;" horiz-adv-x="788" 
d="M1205 929c0 16 -5.16699 28.666 -15.5 37.999s-23.166 14 -38.499 14c-12 0 -24.167 -2.83301 -36.5 -8.5s-23.333 -13 -33 -22s-17.5 -19.333 -23.5 -31s-9 -23.834 -9 -36.501c0 -15.333 5.16699 -27.666 15.5 -36.999s23.166 -14 38.499 -14
c12 0 24.167 2.66699 36.5 8s23.333 12.5 33 21.5s17.5 19.333 23.5 31s9 23.834 9 36.501zM1172 919.999c0 -7.33301 -1.83301 -14.332 -5.5 -20.999s-8.16699 -12.667 -13.5 -18s-11.5 -9.5 -18.5 -12.5s-13.833 -4.5 -20.5 -4.5c-9.33301 0 -16.833 2.66699 -22.5 8
s-8.5 12.666 -8.5 21.999c0 14 6.16699 26.667 18.5 38s25.5 17 39.5 17c8.66699 0 16 -2.5 22 -7.5s9 -12.167 9 -21.5zM1069 759c0 4 -0.833008 9.83008 -2.5 17.4971s-5.5 11.5 -11.5 11.5c-8.66699 0 -24.5 -6.16699 -47.5 -18.5s-50.333 -28.833 -82 -49.5l-102 -70
l-107.5 -79l-74.5 -59l-68 -54.5l-56.5 -47l-41 -35.5c-19.333 -0.666992 -36.5 -1.83398 -51.5 -3.50098l-50.5 -5.5c-8 -0.666992 -22.5 -2.5 -43.5 -5.5s-44.833 -6.66699 -71.5 -11s-54.5 -9.33301 -83.5 -15s-55.5 -12 -79.5 -19s-43.833 -14.667 -59.5 -23
s-23.5 -16.833 -23.5 -25.5c0 -7.33301 4.5 -13.666 13.5 -18.999s17.167 -8 24.5 -8c6.66699 0 15.834 2 27.501 6s24 8.66699 37 14l37.5 16c12 5.33301 21.667 9.33301 29 12c20.667 6.66699 43.5 13.334 68.5 20.001s49.333 12.5 73 17.5s45.667 9.16699 66 12.5
s36.5 5 48.5 5c-34 -30.667 -67.5 -63.167 -100.5 -97.5s-66.167 -67.166 -99.5 -98.499l-52.5 -51.5c-17.667 -17.667 -35.834 -34.167 -54.501 -49.5c-1.33301 -1.33301 -4.66602 -3.83301 -9.99902 -7.5s-10.833 -7.83398 -16.5 -12.501l-15 -12.5
c-4.33301 -3.66699 -6.5 -6.16699 -6.5 -7.5s1.16699 -2.5 3.5 -3.5s5.16602 -1.83301 8.49902 -2.5s6.33301 -1 9 -1h7c10.667 0 20.5 3 29.5 9s17.167 12 24.5 18c20 15.333 39.167 32.833 57.5 52.5l53.5 55.5l107.5 105.5l108.5 103.5
c38 3.33301 78.5 5.16602 121.5 5.49902s82.833 -0.166992 119.5 -1.5c-6.66699 -8.66699 -17.167 -24.167 -31.5 -46.5l-48 -78.5l-54.5 -97c-18.667 -34.667 -35.834 -68.167 -51.501 -100.5s-28.5 -62.166 -38.5 -89.499s-15 -49 -15 -65c0 -4.66699 0.5 -10.5 1.5 -17.5
s2.66699 -13.833 5 -20.5s5.5 -12.334 9.5 -17.001s9.33301 -7 16 -7c4 0 7.33301 2.33301 10 7c10 22.667 23.333 48.834 40 78.501s34.667 59.834 54 90.501c20 32.667 40 63.667 60 93s37.333 53 52 71c0 1.33301 -0.5 2.83301 -1.5 4.5s-1.83301 2.5 -2.5 2.5
c-18 -12 -34.833 -26.333 -50.5 -43s-29.5 -33.667 -41.5 -51h-3c24.667 48 48 95.833 70 143.5s47.333 94.167 76 139.5c11.333 -0.666992 22.333 -1.16699 33 -1.5s21.667 -1.16602 33 -2.49902l-10 18l-47 5l59 86.5l61 84.5l15.5 20l27 34.5l32.5 41.5l32 41l25 32.5
c6.66699 9 10.334 14.5 11.001 16.5c2.66699 6.66699 4.66699 13 6 19s2 12.667 2 20zM980 700.997l-22.5 -30.5l-38.5 -53l-47.5 -66l-49.5 -70l-44.5 -64.5c-13.667 -20 -24.5 -36.333 -32.5 -49c-34.667 2 -70.5 3.5 -107.5 4.5s-72.833 1.5 -107.5 1.5l46.5 37.5
l80 63.5l97 74.5l98 71.5c31 22 58.167 40.5 81.5 55.5s39 23.167 47 24.5z" />
    <glyph glyph-name="AE" unicode="&#xc6;" horiz-adv-x="1157" 
d="M1467 722c-1.33301 8.66699 -7.99902 16.3311 -19.999 22.998c-5.33301 2.66699 -15.666 4.66699 -30.999 6s-34 2 -56 2c-48 0 -97.167 -1.83301 -147.5 -5.5s-99.5 -8.5 -147.5 -14.5c1.33301 4 2.33301 8.16699 3 12.5s1 8.83301 1 13.5
c0 4 -0.833008 9.83301 -2.5 17.5s-5.5 11.5 -11.5 11.5c-9.33301 0 -27.166 -7.33301 -53.499 -22s-57.166 -33.667 -92.499 -57c-13.333 -2 -26.166 -4.16699 -38.499 -6.5s-24.166 -4.83301 -35.499 -7.5c-8.66699 -1.33301 -13 -4.66602 -13 -9.99902
s0.333008 -9.33301 1 -12c0 -2.66699 1.5 -5.16699 4.5 -7.5s7.16699 -3.5 12.5 -3.5l-62 -45l-62 -46l-74.5 -59l-68 -54.5l-56.5 -47l-41 -35.5c-19.333 -0.666992 -36.5 -1.83398 -51.5 -3.50098l-50.5 -5.5c-8 -0.666992 -22.5 -2.5 -43.5 -5.5
s-44.833 -6.66699 -71.5 -11s-54.5 -9.33301 -83.5 -15s-55.5 -12 -79.5 -19s-43.833 -14.667 -59.5 -23s-23.5 -16.833 -23.5 -25.5c0 -7.33301 4.5 -13.666 13.5 -18.999s17.167 -8 24.5 -8c6.66699 0 15.834 2 27.501 6s24 8.66699 37 14l37.5 16
c12 5.33301 21.667 9.33301 29 12c20.667 6.66699 43.5 13.334 68.5 20.001s49.333 12.5 73 17.5s45.667 9.16699 66 12.5s36.5 5 48.5 5c-34 -30.667 -67.5 -63.167 -100.5 -97.5s-66.167 -67.166 -99.5 -98.499l-52.5 -51.5
c-17.667 -17.667 -35.834 -34.167 -54.501 -49.5c-1.33301 -1.33301 -4.66602 -3.83301 -9.99902 -7.5s-10.833 -7.83398 -16.5 -12.501l-15 -12.5c-4.33301 -3.66699 -6.5 -6.16699 -6.5 -7.5s1.16699 -2.5 3.5 -3.5s5.16602 -1.83301 8.49902 -2.5s6.33301 -1 9 -1h7
c10.667 0 20.5 3 29.5 9s17.167 12 24.5 18c20 15.333 39.167 32.833 57.5 52.5l53.5 55.5l107.5 105.5l108.5 103.5c38 3.33301 78.333 5.16602 121 5.49902s82.667 -0.166992 120 -1.5l-9 -13c-2.66699 -4 -5.33398 -8.33301 -8.00098 -13
c-8.66699 -1.33301 -17.167 -2.83301 -25.5 -4.5s-16.5 -3.16699 -24.5 -4.5c-6.66699 -1.33301 -10 -4.33301 -10 -9c0 -4 0.333008 -7 1 -9c0 -2.66699 1.5 -5 4.5 -7s7.16699 -2.66699 12.5 -2l22 3c-3.33301 -6.66699 -7 -13.5 -11 -20.5l-12 -21.5
c-28 -46.667 -52 -85 -72 -115s-30 -47.333 -30 -52c1.33301 -14 5.33301 -27.167 12 -39.5s14.5 -23 23.5 -32s17.833 -16.167 26.5 -21.5s15.667 -8 21 -8c28 0 57.5 1.83301 88.5 5.5s62 8.33398 93 14.001s61 11.834 90 18.501s55 13 78 19s42.333 11.333 58 16
s25.5 7.33398 29.5 8.00098c3.33301 5.33301 3.83301 11.666 1.5 18.999s-6.5 12 -12.5 14c-6 -2 -18.5 -5 -37.5 -9s-41.667 -8.33301 -68 -13l-86 -15c-31 -5.33301 -61 -10.166 -90 -14.499s-55.833 -7.83301 -80.5 -10.5s-43.667 -4 -57 -4
c-6 0 -9.66699 1.16699 -11 3.5s-2 5.16602 -2 8.49902c-0.666992 4 3.16602 14 11.499 30s19.5 35.833 33.5 59.5l49.5 80l59.5 93.5c27.333 3.33301 54.333 6.16602 81 8.49902s53.334 4.83301 80.001 7.5c17.333 2 36.166 3.66699 56.499 5
s39.666 2.66602 57.999 3.99902s34.166 2.33301 47.499 3s21.666 1 24.999 1c13.333 0 19.666 0.666992 18.999 2c0 8 -5 14.333 -15 19c-10.667 4.66699 -33.667 7 -69 7c-42.667 0 -86 -1.83301 -130 -5.5s-87 -8.16699 -129 -13.5l72 113l66 103.5l50.5 82
c13.667 23 22.167 39.167 25.5 48.5l84 8l83 8c22 2 45.833 4 71.5 6l73 5.5c23 1.66699 43 2.83398 60 3.50098s27.5 1 31.5 1c16 0 24 1.33301 24 4zM941.001 674.997l-41.5 -61l-49 -75l-52.5 -84l-53 -87c-34.667 2 -70.5 3.5 -107.5 4.5s-72.833 1.5 -107.5 1.5
c6 5.33301 17.5 14.833 34.5 28.5l60 48l76 59l82.5 61.5l79 57c25.333 18 47.333 33 66 45z" />
    <glyph glyph-name="Ccedilla" unicode="&#xc7;" horiz-adv-x="613" 
d="M946 697c0 8.66699 -1.16211 17.8359 -3.49512 27.5029s-7 18.334 -14 26.001s-17 14 -30 19s-30.5 7.5 -52.5 7.5c-32.667 0 -69.5 -6.5 -110.5 -19.5s-84 -31.167 -129 -54.5s-90.833 -50.666 -137.5 -81.999s-91.834 -65.166 -135.501 -101.499
s-84.834 -74.5 -123.501 -114.5s-72.334 -80.167 -101.001 -120.5s-51.334 -80 -68.001 -119s-25 -75.833 -25 -110.5c0 -23.333 4 -42.833 12 -58.5s18.333 -28.167 31 -37.5c-7.33301 -11.333 -15.5 -22 -24.5 -32s-18.167 -19.667 -27.5 -29
c2.66699 0.666992 6.33398 1 11.001 1c5.33301 0 10.333 -0.5 15 -1.5s8.66699 -2.66699 12 -5s5 -5.5 5 -9.5c0 -10 -2 -18.5 -6 -25.5s-9 -12.667 -15 -17s-12.333 -7.5 -19 -9.5s-13 -3 -19 -3c-8 0 -15.667 1.83301 -23 5.5s-15 5.5 -23 5.5
c-2.66699 0 -4.83398 -1.5 -6.50098 -4.5s-2.5 -5.83301 -2.5 -8.5c0 -5.33301 3.33301 -9.83301 10 -13.5s14.5 -6.5 23.5 -8.5s18 -3.5 27 -4.5s15.5 -1.5 19.5 -1.5c10 0 19.833 2.5 29.5 7.5s18.5 11.333 26.5 19s14.5 16.334 19.5 26.001s7.5 19.5 7.5 29.5
c0 12 -3.66699 22 -11 30s-17 12 -29 12c3.33301 4.66699 7 9 11 13s7.66699 8 11 12c12 -4.66699 25.333 -7 40 -7c30 0 61 3.83301 93 11.5s63.333 17.334 94 29.001s60 24.667 88 39s53.167 28 75.5 41s41 24.5 56 34.5s24.833 17 29.5 21
c2.66699 3.33301 2.66699 6.5 0 9.5s-6 4.5 -10 4.5c-4 -3.33301 -12.667 -9.5 -26 -18.5s-30.166 -19.333 -50.499 -31s-43.5 -24 -69.5 -37s-53.5 -24.833 -82.5 -35.5s-59 -19.5 -90 -26.5s-61.5 -10.5 -91.5 -10.5c-28.667 0 -49.334 8.16699 -62.001 24.5
s-19 36.5 -19 60.5c0 26.667 8.66699 57 26 91s40.833 69.333 70.5 106s64.334 74.167 104.001 112.5s81.667 75.166 126 110.499s90 68.666 137 99.999s92.5 58.666 136.5 81.999s85.5 41.833 124.5 55.5s73.167 20.5 102.5 20.5c14 0 25 -2.83301 33 -8.5
s12 -13.167 12 -22.5c0 -14 -6.16699 -29.333 -18.5 -46s-26 -32.334 -41 -47.001s-29.167 -27 -42.5 -37s-21.333 -15 -24 -15s-4.66699 0.5 -6 1.5s-2.66602 2.33301 -3.99902 4s-3 3 -5 4s-5 1.5 -9 1.5c-4.66699 0 -13.5 -4.16699 -26.5 -12.5s-28 -18.833 -45 -31.5
s-34.833 -26.834 -53.5 -42.501s-35.834 -30.834 -51.501 -45.501s-28.5 -27.834 -38.5 -39.501s-15 -19.834 -15 -24.501c0 -9.33301 3.16699 -16.833 9.5 -22.5s13.166 -8.5 20.499 -8.5c6 0 19.333 6.5 40 19.5s44.667 29.833 72 50.5s56 44 86 70s57.667 52.167 83 78.5
s46.166 51.5 62.499 75.5s24.5 44.333 24.5 61z" />
    <glyph glyph-name="Egrave" unicode="&#xc8;" horiz-adv-x="607" 
d="M683 816c-2.66699 10 -7.16699 19.6699 -13.5 29.0029s-13.333 18.333 -21 27s-15.667 17.167 -24 25.5s-15.5 16.5 -21.5 24.5c-3.33301 3.33301 -6.66602 4.16602 -9.99902 2.49902l-7 -3.5c-2.66699 -0.666992 -5.33398 -2.5 -8.00098 -5.5s-5.16699 -6.5 -7.5 -10.5
s-4.16602 -8 -5.49902 -12s-2 -7.33301 -2 -10c4 -1.33301 11.333 -3.5 22 -6.5s21.667 -7.33301 33 -13s22.166 -12.834 32.499 -21.501s17.5 -19.334 21.5 -32.001c2 -2 4.66699 -2.33301 8 -1c3.33301 0.666992 4.33301 3 3 7zM918 722.003
c0 8.66699 -4.66797 15.168 -14.001 19.501s-20 7.33301 -32 9s-24 2.5 -36 2.5h-24c-55.333 0 -110.333 -2.5 -165 -7.5s-109 -11.5 -163 -19.5l-23 4l-13 -9c-10.667 -2 -22.167 -3.83301 -34.5 -5.5s-24.833 -3.5 -37.5 -5.5s-25.167 -4.16699 -37.5 -6.5
s-23.5 -5.16602 -33.5 -8.49902c-8 -2 -12 -6.66699 -12 -14s1.66699 -12.333 5 -15s9 -4 17 -4c15.333 0 31.5 1.66699 48.5 5s33.167 6 48.5 8l-39.5 -60l-58.5 -91.5l-65.5 -104.5l-60.5 -98c-3.33301 -0.666992 -8.33301 -1.33398 -15 -2.00098
s-13.5 -1.83398 -20.5 -3.50098s-13 -3.66699 -18 -6s-7.5 -5.5 -7.5 -9.5c0 -6 1.33301 -10 4 -12s7 -3 13 -3c4 0 8.16699 0.5 12.5 1.5s8.5 1.83301 12.5 2.5c-2 -4 -6.33301 -11.667 -13 -23l-23.5 -40l-28 -49l-26.5 -48.5c-8 -15 -14.667 -28 -20 -39
s-8 -17.833 -8 -20.5c0 -5.33301 1.66699 -13.166 5 -23.499s7.66602 -20.5 12.999 -30.5s11.333 -18.667 18 -26s13 -11 19 -11c24.667 0 54.834 2.33301 90.501 7s73.5 10.667 113.5 18s80.167 16 120.5 26s78.166 20 113.499 30c2 2.66699 3 6 3 10
c0 11.333 -4.66699 19 -14 23c-14.667 -4 -33.5 -8.33301 -56.5 -13s-48.167 -9.33398 -75.5 -14.001l-84.5 -14c-29 -4.66699 -56.667 -8.83398 -83 -12.501s-50.166 -6.66699 -71.499 -9s-37.666 -3.5 -48.999 -3.5c-8.66699 0 -13 4 -13 12c0 4 3.33301 12.667 10 26
s15.167 28.833 25.5 46.5l34.5 57l36 57.5l30.5 47.5l18.5 28.5l173.5 19c58.333 6.66699 116.5 10 174.5 10h11c5.33301 0 8 0.666992 8 2c0 6.66699 -3.66699 11.834 -11 15.501s-15.833 6.33398 -25.5 8.00098s-19.167 2.5 -28.5 2.5h-20
c-43.333 0 -86.5 -1.83301 -129.5 -5.5s-85.833 -8.16699 -128.5 -13.5l71 111l71 111l39 61c14 21.333 24.667 42.666 32 63.999l99 10.5c34 3.66699 68.333 7.16699 103 10.5s69 6 103 8s66.667 3 98 3h14c6.66699 0 10 1.33301 10 4z" />
    <glyph glyph-name="Eacute" unicode="&#xc9;" horiz-adv-x="607" 
d="M744 878c0 2 -0.999023 5.00098 -2.99902 9.00098s-4.33301 8 -7 12s-5.5 7.66699 -8.5 11s-5.83301 5.33301 -8.5 6c-2 0.666992 -4.33301 1.66699 -7 3s-5.66699 0.333008 -9 -3c-4.66699 -4 -10.834 -11 -18.501 -21s-15.5 -20.833 -23.5 -32.5
s-15.167 -22.834 -21.5 -33.501s-10.166 -18.667 -11.499 -24c-1.33301 -4 0 -6.33301 4 -7c1.33301 -0.666992 2.66602 -0.666992 3.99902 0l4 2c1.33301 5.33301 6.33301 12.5 15 21.5s18.667 17.667 30 26s22.5 15.5 33.5 21.5s19.167 8.33301 24.5 7zM918.001 722.001
c0 8.66699 -4.66797 15.168 -14.001 19.501s-20 7.33301 -32 9s-24 2.5 -36 2.5h-24c-55.333 0 -110.333 -2.5 -165 -7.5s-109 -11.5 -163 -19.5l-23 4l-13 -9c-10.667 -2 -22.167 -3.83301 -34.5 -5.5s-24.833 -3.5 -37.5 -5.5s-25.167 -4.16699 -37.5 -6.5
s-23.5 -5.16602 -33.5 -8.49902c-8 -2 -12 -6.66699 -12 -14s1.66699 -12.333 5 -15s9 -4 17 -4c15.333 0 31.5 1.66699 48.5 5s33.167 6 48.5 8l-39.5 -60l-58.5 -91.5l-65.5 -104.5l-60.5 -98c-3.33301 -0.666992 -8.33301 -1.33398 -15 -2.00098
s-13.5 -1.83398 -20.5 -3.50098s-13 -3.66699 -18 -6s-7.5 -5.5 -7.5 -9.5c0 -6 1.33301 -10 4 -12s7 -3 13 -3c4 0 8.16699 0.5 12.5 1.5s8.5 1.83301 12.5 2.5c-2 -4 -6.33301 -11.667 -13 -23l-23.5 -40l-28 -49l-26.5 -48.5c-8 -15 -14.667 -28 -20 -39
s-8 -17.833 -8 -20.5c0 -5.33301 1.66699 -13.166 5 -23.499s7.66602 -20.5 12.999 -30.5s11.333 -18.667 18 -26s13 -11 19 -11c24.667 0 54.834 2.33301 90.501 7s73.5 10.667 113.5 18s80.167 16 120.5 26s78.166 20 113.499 30c2 2.66699 3 6 3 10
c0 11.333 -4.66699 19 -14 23c-14.667 -4 -33.5 -8.33301 -56.5 -13s-48.167 -9.33398 -75.5 -14.001l-84.5 -14c-29 -4.66699 -56.667 -8.83398 -83 -12.501s-50.166 -6.66699 -71.499 -9s-37.666 -3.5 -48.999 -3.5c-8.66699 0 -13 4 -13 12c0 4 3.33301 12.667 10 26
s15.167 28.833 25.5 46.5l34.5 57l36 57.5l30.5 47.5l18.5 28.5l173.5 19c58.333 6.66699 116.5 10 174.5 10h11c5.33301 0 8 0.666992 8 2c0 6.66699 -3.66699 11.834 -11 15.501s-15.833 6.33398 -25.5 8.00098s-19.167 2.5 -28.5 2.5h-20
c-43.333 0 -86.5 -1.83301 -129.5 -5.5s-85.833 -8.16699 -128.5 -13.5l71 111l71 111l39 61c14 21.333 24.667 42.666 32 63.999l99 10.5c34 3.66699 68.333 7.16699 103 10.5s69 6 103 8s66.667 3 98 3h14c6.66699 0 10 1.33301 10 4z" />
    <glyph glyph-name="Ecircumflex" unicode="&#xca;" horiz-adv-x="607" 
d="M739 825c0 4.66699 -1.00098 12.833 -3.00098 24.5s-5.16699 23.5 -9.5 35.5s-9.66602 22.667 -15.999 32s-13.5 14 -21.5 14c-11.333 0 -18.833 -2.16699 -22.5 -6.5l-13.5 -15.5c-4.66699 -4.66699 -12.334 -11 -23.001 -19s-21.5 -16.667 -32.5 -26
s-20.667 -19 -29 -29s-12.5 -19.333 -12.5 -28l7 -3l11 4c0.666992 4.66699 5.5 10.667 14.5 18s19 14.5 30 21.5s22 13.5 33 19.5s19.167 10.667 24.5 14c10.667 -7.33301 20 -15.5 28 -24.5s13.333 -19.167 16 -30.5c1.33301 -3.33301 1.83301 -6.5 1.5 -9.5
s-0.166016 -5.83301 0.500977 -8.5c0.666992 -1.33301 2 -2.33301 4 -3s3.66699 -1 5 -1c4 0 6.33301 3 7 9s1 10 1 12zM917.999 721.999c0 8.66699 -4.66797 15.168 -14.001 19.501s-20 7.33301 -32 9s-24 2.5 -36 2.5h-24c-55.333 0 -110.333 -2.5 -165 -7.5
s-109 -11.5 -163 -19.5l-23 4l-13 -9c-10.667 -2 -22.167 -3.83301 -34.5 -5.5s-24.833 -3.5 -37.5 -5.5s-25.167 -4.16699 -37.5 -6.5s-23.5 -5.16602 -33.5 -8.49902c-8 -2 -12 -6.66699 -12 -14s1.66699 -12.333 5 -15s9 -4 17 -4c15.333 0 31.5 1.66699 48.5 5
s33.167 6 48.5 8l-39.5 -60l-58.5 -91.5l-65.5 -104.5l-60.5 -98c-3.33301 -0.666992 -8.33301 -1.33398 -15 -2.00098s-13.5 -1.83398 -20.5 -3.50098s-13 -3.66699 -18 -6s-7.5 -5.5 -7.5 -9.5c0 -6 1.33301 -10 4 -12s7 -3 13 -3c4 0 8.16699 0.5 12.5 1.5
s8.5 1.83301 12.5 2.5c-2 -4 -6.33301 -11.667 -13 -23l-23.5 -40l-28 -49l-26.5 -48.5c-8 -15 -14.667 -28 -20 -39s-8 -17.833 -8 -20.5c0 -5.33301 1.66699 -13.166 5 -23.499s7.66602 -20.5 12.999 -30.5s11.333 -18.667 18 -26s13 -11 19 -11
c24.667 0 54.834 2.33301 90.501 7s73.5 10.667 113.5 18s80.167 16 120.5 26s78.166 20 113.499 30c2 2.66699 3 6 3 10c0 11.333 -4.66699 19 -14 23c-14.667 -4 -33.5 -8.33301 -56.5 -13s-48.167 -9.33398 -75.5 -14.001l-84.5 -14
c-29 -4.66699 -56.667 -8.83398 -83 -12.501s-50.166 -6.66699 -71.499 -9s-37.666 -3.5 -48.999 -3.5c-8.66699 0 -13 4 -13 12c0 4 3.33301 12.667 10 26s15.167 28.833 25.5 46.5l34.5 57l36 57.5l30.5 47.5l18.5 28.5l173.5 19c58.333 6.66699 116.5 10 174.5 10h11
c5.33301 0 8 0.666992 8 2c0 6.66699 -3.66699 11.834 -11 15.501s-15.833 6.33398 -25.5 8.00098s-19.167 2.5 -28.5 2.5h-20c-43.333 0 -86.5 -1.83301 -129.5 -5.5s-85.833 -8.16699 -128.5 -13.5l71 111l71 111l39 61c14 21.333 24.667 42.666 32 63.999l99 10.5
c34 3.66699 68.333 7.16699 103 10.5s69 6 103 8s66.667 3 98 3h14c6.66699 0 10 1.33301 10 4z" />
    </font>
</defs>
</svg>
